<svg width="23" height="27" viewBox="0 0 23 27" fill="none" xmlns="http://www.w3.org/2000/svg">
<path d="M14.1296 4.91832C14.3675 4.45694 14.5048 3.93096 14.5048 3.37731C14.5048 1.51333 13.004 0 11.1554 0C9.30686 0 7.80605 1.51333 7.80605 3.37731C7.80605 3.93096 7.94332 4.45694 8.18126 4.91832C3.46834 6.23787 0 10.5841 0 15.7515C0 21.9525 5.00576 27 11.1554 27C17.3051 27 22.3109 21.9525 22.3109 15.7515C22.32 10.5841 18.8425 6.23787 14.1296 4.91832ZM10.039 3.37731C10.039 2.75906 10.5423 2.25154 11.1554 2.25154C11.7686 2.25154 12.2719 2.75906 12.2719 3.37731C12.2719 3.99556 11.7686 4.50308 11.1554 4.50308C10.5423 4.50308 10.039 3.99556 10.039 3.37731ZM11.1554 24.7485C6.23203 24.7485 2.23292 20.7068 2.23292 15.7515C2.23292 10.7871 6.24118 6.75461 11.1554 6.75461C16.0697 6.75461 20.0779 10.7963 20.0779 15.7515C20.0871 20.716 16.0788 24.7485 11.1554 24.7485Z" fill="url(#paint0_linear_360_814)"/>
<path d="M14.6421 10.7686L5.15223 14.7088C4.74042 14.8842 4.46588 15.2902 4.46588 15.7423C4.46588 16.1945 4.73127 16.6097 5.14308 16.7851L8.63887 18.2984L10.1397 21.8233C10.3136 22.2386 10.7162 22.5062 11.1646 22.5062H11.1738C11.6222 22.5062 12.0248 22.2293 12.1987 21.8141L16.1063 12.2543C16.2802 11.8298 16.1795 11.35 15.8592 11.027C15.5298 10.6948 15.0539 10.6026 14.6421 10.7686ZM11.1372 18.4737L10.5057 16.9973C10.3959 16.7297 10.1854 16.5175 9.92005 16.4067L8.45584 15.77L13.004 13.8784L11.1372 18.4737Z" fill="url(#paint1_linear_360_814)"/>
<defs>
<linearGradient id="paint0_linear_360_814" x1="2.96344" y1="6.86678" x2="19.4883" y2="23.2549" gradientUnits="userSpaceOnUse">
<stop offset="4.1e-07" stop-color="#007EA7"/>
<stop offset="1" stop-color="#1837CF"/>
</linearGradient>
<linearGradient id="paint1_linear_360_814" x1="8.13722" y1="11.5805" x2="15.3536" y2="18.7371" gradientUnits="userSpaceOnUse">
<stop offset="4.1e-07" stop-color="#007EA7"/>
<stop offset="1" stop-color="#1837CF"/>
</linearGradient>
</defs>
</svg>
