<svg width="24" height="23" viewBox="0 0 24 23" fill="none" xmlns="http://www.w3.org/2000/svg">
<path d="M23.5255 12.4342C23.1413 11.9749 22.5651 11.7077 21.9639 11.7077H20.4357L19.2499 5.7119C19.0662 4.75992 18.2227 4.06681 17.2541 4.06681H16.561V2.03758C16.561 0.91858 15.6507 0 14.5234 0H13.5046C12.3856 0 11.467 0.91023 11.467 2.03758V4.07516H10.4482V2.03758C10.4482 0.91858 9.53799 0 8.41064 0H7.4002C6.27285 0 5.36262 0.91023 5.36262 2.03758V4.11691C3.91794 4.35908 2.81565 5.61169 2.81565 7.12317V13.2359H2.03903C1.42108 13.2359 0.844876 13.5115 0.452392 13.9958C0.0682581 14.4718 -0.0820551 15.0981 0.0432059 15.6994L0.961786 19.9833C1.26241 21.3862 2.51502 22.3967 3.95135 22.3967H19.943C21.4294 22.3967 22.6904 21.3361 22.9493 19.8747L23.9681 14.096C24.0766 13.5031 23.9096 12.9019 23.5255 12.4342ZM13.5046 2.03758H14.5234V4.07516H13.5046V2.03758ZM7.4002 2.03758H8.41899V4.07516H7.4002V2.03758ZM4.85323 7.12317C4.85323 6.56368 5.31252 6.10438 5.87202 6.10438H17.2541L18.3647 11.7077H16.0599C15.7927 11.7077 15.5338 11.8163 15.3417 12.0084L14.1142 13.2359H4.85323V7.12317ZM20.9451 19.524C20.8616 20.0084 20.4357 20.3674 19.943 20.3674H3.95135C3.47536 20.3674 3.05782 20.0251 2.95761 19.5658L2.03903 15.2818H14.5234C14.7906 15.2818 15.0495 15.1733 15.2415 14.9812L16.4691 13.7537H21.9639L20.9451 19.524Z" fill="url(#paint0_linear_27_3740)"/>
<path d="M7.4002 10.6889C7.96286 10.6889 8.41899 10.2328 8.41899 9.67016C8.41899 9.1075 7.96286 8.65137 7.4002 8.65137C6.83754 8.65137 6.38141 9.1075 6.38141 9.67016C6.38141 10.2328 6.83754 10.6889 7.4002 10.6889Z" fill="url(#paint1_linear_27_3740)"/>
<path d="M10.9576 10.6889C11.5203 10.6889 11.9764 10.2328 11.9764 9.67016C11.9764 9.1075 11.5203 8.65137 10.9576 8.65137C10.3949 8.65137 9.93881 9.1075 9.93881 9.67016C9.93881 10.2328 10.3949 10.6889 10.9576 10.6889Z" fill="url(#paint2_linear_27_3740)"/>
<path d="M14.5234 10.6889C15.086 10.6889 15.5422 10.2328 15.5422 9.67016C15.5422 9.1075 15.086 8.65137 14.5234 8.65137C13.9607 8.65137 13.5046 9.1075 13.5046 9.67016C13.5046 10.2328 13.9607 10.6889 14.5234 10.6889Z" fill="url(#paint3_linear_27_3740)"/>
<defs>
<linearGradient id="paint0_linear_27_3740" x1="-3.68775" y1="11.1983" x2="24.0006" y2="11.1983" gradientUnits="userSpaceOnUse">
<stop stop-color="#007EA7"/>
<stop offset="1" stop-color="#0E55BF"/>
</linearGradient>
<linearGradient id="paint1_linear_27_3740" x1="6.06833" y1="9.67016" x2="8.41899" y2="9.67016" gradientUnits="userSpaceOnUse">
<stop stop-color="#007EA7"/>
<stop offset="1" stop-color="#0E55BF"/>
</linearGradient>
<linearGradient id="paint2_linear_27_3740" x1="9.62573" y1="9.67016" x2="11.9764" y2="9.67016" gradientUnits="userSpaceOnUse">
<stop stop-color="#007EA7"/>
<stop offset="1" stop-color="#0E55BF"/>
</linearGradient>
<linearGradient id="paint3_linear_27_3740" x1="13.1915" y1="9.67016" x2="15.5422" y2="9.67016" gradientUnits="userSpaceOnUse">
<stop stop-color="#007EA7"/>
<stop offset="1" stop-color="#0E55BF"/>
</linearGradient>
</defs>
</svg>
