<svg width="26" height="25" viewBox="0 0 26 25" fill="none" xmlns="http://www.w3.org/2000/svg">
<path d="M9.67962 24.9945C9.40489 24.9945 9.13875 24.8915 8.94129 24.6855L0.304617 16.0574C0.00413646 15.7569 -0.0817152 15.3105 0.081403 14.9155C0.244521 14.5206 0.622268 14.2717 1.05153 14.2717H6.05668L8.98422 10.7603L2.37364 5.54054C2.14184 5.35167 1.99589 5.07694 1.97872 4.77646C1.96155 4.47598 2.07316 4.18408 2.28779 3.97804L4.16794 2.09789C4.73456 1.53127 5.56732 1.32522 6.33999 1.56561L15.0024 4.26993L17.5007 1.47976C18.5138 0.346515 20.0505 -0.194351 21.5271 0.0632044C23.2785 0.363685 24.6521 1.7459 24.9612 3.49727C25.2188 4.96533 24.6779 6.51066 23.5447 7.52371L20.7545 10.022L23.4588 18.693C23.6992 19.4571 23.4931 20.2899 22.9265 20.8651L21.0464 22.7452C20.8317 22.9598 20.5484 23.0714 20.248 23.0543C19.9475 23.0371 19.6727 22.8912 19.4839 22.6594L14.2641 16.0488L10.727 18.942V23.9471C10.727 24.3678 10.4695 24.7541 10.0831 24.9173C9.94576 24.9688 9.81698 24.9945 9.67962 24.9945ZM3.56698 16.3578L8.63223 21.4231V18.4526C8.63223 18.1436 8.76959 17.8517 9.00997 17.6456L13.7232 13.7222C13.9379 13.5419 14.2212 13.4561 14.5045 13.4818C14.7878 13.5076 15.0453 13.6535 15.217 13.8767L20.3767 20.41L21.4241 19.3627C21.4413 19.3455 21.4499 19.3197 21.4413 19.3026L18.5395 9.99624C18.4193 9.60132 18.5309 9.18065 18.84 8.90592L22.1367 5.96121C22.7291 5.42893 23.021 4.62193 22.8836 3.85785C22.7291 2.97358 22.0337 2.27818 21.158 2.13223C20.3939 2.00345 19.5869 2.28676 19.0546 2.87914L16.1099 6.17584C15.8352 6.48491 15.4059 6.59651 15.0196 6.47632L5.68752 3.55737C5.66176 3.54878 5.64459 3.55737 5.62742 3.57454L4.58003 4.62193L11.1133 9.78161C11.3366 9.95331 11.4739 10.2109 11.5083 10.4942C11.534 10.7775 11.4482 11.0522 11.2679 11.2754L7.34445 15.9887C7.14699 16.2291 6.8551 16.3664 6.53745 16.3664H3.56698V16.3578Z" fill="url(#paint0_linear_27_3784)"/>
<defs>
<linearGradient id="paint0_linear_27_3784" x1="-3.84506" y1="12.4973" x2="25.0244" y2="12.4973" gradientUnits="userSpaceOnUse">
<stop stop-color="#007EA7"/>
<stop offset="1" stop-color="#0E55BF"/>
</linearGradient>
</defs>
</svg>
