<svg width="14" height="19" viewBox="0 0 14 19" fill="none" xmlns="http://www.w3.org/2000/svg">
<path d="M2.01612 18.0239C2.01612 17.2265 2.01612 5.82842 2.01612 1.68421C2.01612 0.828426 2.65141 0.109685 3.50012 -0.00012207C4.23612 -0.00012207 5.50012 -2.11969e-06 5.50012 -2.11969e-06C6.00012 -0.00012207 6.90412 -0.00012207 7.70412 -0.00012207C9.00012 -0.00012207 10.1161 0.191878 11.0521 0.575878C11.9881 0.959878 12.7081 1.56388 13.2121 2.38788C13.7161 3.20388 13.9681 4.26388 13.9681 5.56788C13.9681 7.46388 13.3801 8.91188 12.2041 9.91188C11.0361 10.9039 9.33612 11.3999 7.10412 11.3999C6.54412 11.3999 6.08012 11.3919 5.71212 11.3759C5.35212 11.3599 5.06412 11.3519 4.84812 11.3519C4.84812 11.3519 4.84812 17.0479 4.84812 18.0239C4.84812 18.9999 2.01612 18.9999 2.01612 18.0239ZM4.84812 8.1179C4.84812 8.73603 5.29864 9.27181 5.91612 9.29988C6.27612 9.30788 6.61612 9.31188 6.93612 9.31188C7.68012 9.31188 8.37612 9.22788 9.02412 9.05988C9.67212 8.89188 10.1921 8.54388 10.5841 8.01588C10.9841 7.47988 11.1841 6.66388 11.1841 5.56788C11.1841 4.29588 10.8161 3.37588 10.0801 2.80788C9.35212 2.23188 8.29612 1.96788 6.91212 2.01588C6.56812 2.02388 6.21612 2.04388 5.85612 2.07588C5.26094 2.12878 4.84812 2.65515 4.84812 3.25269V8.1179ZM0.500122 15.6719C0.223979 15.6719 0.00012207 15.448 0.00012207 15.1719V13.9399C0.00012207 13.6637 0.22398 13.4399 0.500122 13.4399H9.82012C10.0963 13.4399 10.3201 13.6637 10.3201 13.9399V15.1719C10.3201 15.448 10.0963 15.6719 9.82012 15.6719H0.500122Z" fill="url(#paint0_linear_27_3722)"/>
<defs>
<linearGradient id="paint0_linear_27_3722" x1="-2.14609" y1="9.37788" x2="13.9681" y2="9.37788" gradientUnits="userSpaceOnUse">
<stop stop-color="#007EA7"/>
<stop offset="1" stop-color="#0E55BF"/>
</linearGradient>
</defs>
</svg>
