<svg width="24" height="24" viewBox="0 0 24 24" fill="none" xmlns="http://www.w3.org/2000/svg">
<path d="M23.7868 21.0728L16.9234 7.65015C16.7182 7.24018 16.398 6.9286 16.0121 6.73181V4.50154V1.00034C16.0121 0.450974 15.5606 0 15.0106 0H8.50023C7.95018 0 7.49865 0.450974 7.49865 1.00034V4.50154C7.49865 5.05091 7.95018 5.50188 8.50023 5.50188H14.009V6.781C13.6477 6.98599 13.3522 7.29757 13.1798 7.68295L9.60034 15.0707L8.08975 12.1189C7.72852 11.4219 7.00606 11.012 6.21793 11.0038C5.42158 11.0202 4.72376 11.4711 4.38716 12.1763L0.191981 21.1138C-0.103569 21.7369 -0.0543107 22.4585 0.315127 23.0489C0.692775 23.6474 1.34134 24 2.05559 24H21.9314C22.662 24 23.3188 23.6392 23.7047 23.0243C24.0659 22.4339 24.0987 21.7123 23.7868 21.0728ZM9.50182 3.5012V2.00068H14.009V3.5012H9.50182ZM6.99785 21.9911H2.04738C1.99812 21.9911 1.98991 21.9583 1.99812 21.9583L6.1933 13.0208C6.20151 13.0126 6.20151 12.9962 6.24256 12.9962C6.28361 12.9962 6.29181 13.0126 6.29181 13.0208L10.8893 21.9911H6.99785ZM21.9232 21.9911H13.1469L10.7415 17.2928L14.9859 8.5275C14.9859 8.5193 15.0023 8.4947 15.0516 8.4947C15.068 8.4947 15.1091 8.5029 15.1337 8.5357L21.997 21.9583C21.997 21.9583 21.9888 21.9911 21.9232 21.9911Z" fill="url(#paint0_linear_27_3779)"/>
<defs>
<linearGradient id="paint0_linear_27_3779" x1="-3.68766" y1="12" x2="24" y2="12" gradientUnits="userSpaceOnUse">
<stop stop-color="#007EA7"/>
<stop offset="1" stop-color="#0E55BF"/>
</linearGradient>
</defs>
</svg>
