<svg width="25" height="25" viewBox="0 0 25 25" fill="none" xmlns="http://www.w3.org/2000/svg">
<path d="M24.701 8.63807L21.5738 5.51094C21.3773 5.31442 21.1124 5.20335 20.839 5.20335H13.5509V1.04238C13.5424 0.469925 13.0725 0 12.5 0C11.9275 0 11.4576 0.469925 11.4576 1.04238V2.08476H4.16951C3.8961 2.08476 3.63124 2.19583 3.43472 2.39234L0.307587 5.51094C-0.102529 5.92105 -0.102529 6.57895 0.307587 6.98052L3.43472 10.1077C3.63124 10.3042 3.8961 10.4152 4.16951 10.4152H11.4576V22.9152H8.85167C8.27922 22.9152 7.8093 23.3852 7.8093 23.9576C7.8093 24.5301 8.27922 25 8.85167 25H16.1483C16.7208 25 17.1907 24.5301 17.1907 23.9576C17.1907 23.3852 16.7208 22.9152 16.1483 22.9152H13.5424V13.5424H20.8305C21.1039 13.5424 21.3688 13.4313 21.5653 13.2348L24.6924 10.1077C25.1025 9.70608 25.1025 9.04819 24.701 8.63807ZM4.59672 8.33049L2.51196 6.25427L4.59672 4.16951H11.4576V8.33903H4.59672V8.33049ZM20.4033 11.4576H13.5424V7.28811H20.4033L22.488 9.37286L20.4033 11.4576Z" fill="url(#paint0_linear_27_3789)"/>
<defs>
<linearGradient id="paint0_linear_27_3789" x1="-3.84148" y1="12.5" x2="25.0011" y2="12.5" gradientUnits="userSpaceOnUse">
<stop stop-color="#007EA7"/>
<stop offset="1" stop-color="#0E55BF"/>
</linearGradient>
</defs>
</svg>
