<svg width="30" height="27" viewBox="0 0 30 27" fill="none" xmlns="http://www.w3.org/2000/svg">
<path d="M1.99808 21.8542C3.22106 21.8542 4.14552 22.5819 4.88701 23.1584C5.41665 23.5742 5.90777 23.9617 6.30259 23.9617C6.69741 23.9617 7.19816 23.5742 7.71817 23.1584C8.45966 22.5725 9.38412 21.8542 10.6071 21.8542C11.8301 21.8542 12.7545 22.5819 13.496 23.1584C14.0257 23.5742 14.5168 23.9617 14.9116 23.9617C15.3064 23.9617 15.8072 23.5742 16.3272 23.1584C17.0687 22.5725 17.9932 21.8542 19.2161 21.8542C20.4391 21.8542 21.3636 22.5819 22.1051 23.1584C22.6347 23.5742 23.1258 23.9617 23.5207 23.9617C23.9155 23.9617 24.4162 23.5742 24.9362 23.1584C25.6777 22.5725 26.6022 21.8542 27.8252 21.8542C28.4704 21.8542 29 22.374 29 23.0072C29 23.6404 28.4704 24.1602 27.8252 24.1602C27.4303 24.1602 26.9296 24.5476 26.4096 24.9635C25.6681 25.5494 24.7436 26.2676 23.5207 26.2676C22.2977 26.2676 21.3732 25.5399 20.6317 24.9635C20.1021 24.5476 19.611 24.1602 19.2161 24.1602C18.8213 24.1602 18.3206 24.5476 17.8006 24.9635C17.0591 25.5494 16.1346 26.2676 14.9116 26.2676C13.6886 26.2676 12.7642 25.5399 12.0227 24.9635C11.493 24.5476 11.0019 24.1602 10.6071 24.1602C10.2123 24.1602 9.71154 24.5476 9.19153 24.9635C8.45003 25.5494 7.52557 26.2676 6.30259 26.2676C5.07961 26.2676 4.15515 25.5399 3.41365 24.9635C2.88402 24.5476 2.3929 24.1602 1.99808 24.1602C1.35288 24.1602 0.82324 23.6404 0.82324 23.0072C0.82324 22.374 1.34325 21.8542 1.99808 21.8542Z" fill="url(#paint0_linear_27_3767)"/>
<path d="M1.99808 17.6299C3.22106 17.6299 4.14552 18.3576 4.88701 18.9436C5.41665 19.3594 5.90777 19.7469 6.30259 19.7469C6.69741 19.7469 7.19816 19.3594 7.71817 18.9436C7.76632 18.9058 7.8241 18.8585 7.87225 18.8207C7.10186 17.5732 6.68778 16.1368 6.68778 14.6531C6.68778 10.2019 10.376 6.5918 14.902 6.5918C19.4473 6.5918 23.1258 10.2113 23.1258 14.6531C23.1258 16.1273 22.7117 17.5732 21.9414 18.8207C21.9895 18.8585 22.0473 18.9058 22.0954 18.9436C22.6251 19.3594 23.1162 19.7469 23.511 19.7469C23.9058 19.7469 24.4066 19.3594 24.9266 18.9436C25.6681 18.3576 26.5926 17.6299 27.8155 17.6299C28.4704 17.6299 29 18.1497 29 18.7829C29 19.4161 28.4704 19.9359 27.8252 19.9359C27.4303 19.9359 26.9296 20.3233 26.4096 20.7392C25.6681 21.3251 24.7436 22.0528 23.5207 22.0528C22.2977 22.0528 21.3732 21.3251 20.6317 20.7392C20.1021 20.3233 19.611 19.9359 19.2161 19.9359C18.8213 19.9359 18.3206 20.3233 17.8006 20.7392C17.0591 21.3251 16.1346 22.0528 14.9116 22.0528C13.6886 22.0528 12.7642 21.3251 12.0227 20.7392C11.493 20.3233 11.0019 19.9359 10.6071 19.9359C10.2123 19.9359 9.71154 20.3233 9.19153 20.7392C8.45003 21.3251 7.52557 22.0528 6.30259 22.0528C5.07961 22.0528 4.15515 21.3251 3.41365 20.7392C2.88402 20.3233 2.3929 19.9359 1.99808 19.9359C1.35288 19.9359 0.82324 19.4161 0.82324 18.7829C0.82324 18.1497 1.34325 17.6299 1.99808 17.6299ZM13.496 18.9436C14.0257 19.3594 14.5168 19.7469 14.9116 19.7469C15.3064 19.7469 15.8072 19.3594 16.3272 18.9436C17.0687 18.3576 17.9932 17.6299 19.2161 17.6299C19.4473 17.6299 19.6687 17.6678 19.8806 17.715C20.4584 16.8078 20.7762 15.7493 20.7762 14.6531C20.7762 11.4777 18.1472 8.88826 14.902 8.88826C11.6664 8.88826 9.02782 11.4682 9.02782 14.6531C9.02782 15.7399 9.3456 16.7983 9.92339 17.715C10.1352 17.6678 10.3567 17.6299 10.5878 17.6299C11.8205 17.6299 12.7449 18.3576 13.496 18.9436Z" fill="url(#paint1_linear_27_3767)"/>
<path d="M14.911 5.67502C14.2658 5.67502 13.7361 5.15524 13.7361 4.52206V1.88538C13.7361 1.2522 14.2658 0.732422 14.911 0.732422C15.5562 0.732422 16.0858 1.2522 16.0858 1.88538V4.52206C16.0858 5.16469 15.5562 5.67502 14.911 5.67502Z" fill="url(#paint2_linear_27_3767)"/>
<path d="M7.78595 7.9337C7.48743 7.9337 7.1889 7.82029 6.95779 7.59348L5.05109 5.72229C4.58886 5.26867 4.58886 4.54098 5.05109 4.09681C5.51332 3.64319 6.25481 3.64319 6.70741 4.09681L8.61411 5.968C9.07634 6.42163 9.07634 7.14931 8.61411 7.59348C8.39263 7.82029 8.0941 7.9337 7.78595 7.9337Z" fill="url(#paint3_linear_27_3767)"/>
<path d="M22.8666 7.59348C22.6355 7.82029 22.3369 7.9337 22.0384 7.9337C21.7399 7.9337 21.4414 7.82029 21.2102 7.59348C20.748 7.13986 20.748 6.41217 21.2102 5.968L23.1073 4.09681C23.5695 3.64319 24.311 3.64319 24.7636 4.09681C25.2259 4.55043 25.2259 5.27812 24.7636 5.72229L22.8666 7.59348Z" fill="url(#paint4_linear_27_3767)"/>
<path d="M5.86003 14.0292C5.86003 14.6624 5.33039 15.1821 4.6852 15.1821H1.99849C1.35329 15.1821 0.823652 14.6624 0.823652 14.0292C0.823652 13.396 1.35329 12.8762 1.99849 12.8762H4.6852C5.33039 12.8762 5.86003 13.396 5.86003 14.0292Z" fill="url(#paint5_linear_27_3767)"/>
<path d="M29.0364 14.0292C29.0364 14.6624 28.5067 15.1821 27.8615 15.1821H25.1748C24.5296 15.1821 24 14.6624 24 14.0292C24 13.396 24.5296 12.8762 25.1748 12.8762H27.8615C28.5067 12.8762 29.0364 13.396 29.0364 14.0292Z" fill="url(#paint6_linear_27_3767)"/>
<defs>
<linearGradient id="paint0_linear_27_3767" x1="33.3294" y1="24.0609" x2="0.823242" y2="24.0609" gradientUnits="userSpaceOnUse">
<stop stop-color="#007EA7"/>
<stop offset="1" stop-color="#0E55BF"/>
</linearGradient>
<linearGradient id="paint1_linear_27_3767" x1="33.3294" y1="14.3223" x2="0.823242" y2="14.3223" gradientUnits="userSpaceOnUse">
<stop stop-color="#007EA7"/>
<stop offset="1" stop-color="#0E55BF"/>
</linearGradient>
<linearGradient id="paint2_linear_27_3767" x1="16.4468" y1="3.20372" x2="13.7361" y2="3.20372" gradientUnits="userSpaceOnUse">
<stop stop-color="#007EA7"/>
<stop offset="1" stop-color="#0E55BF"/>
</linearGradient>
<linearGradient id="paint3_linear_27_3767" x1="9.61479" y1="5.84515" x2="4.70442" y2="5.84515" gradientUnits="userSpaceOnUse">
<stop stop-color="#007EA7"/>
<stop offset="1" stop-color="#0E55BF"/>
</linearGradient>
<linearGradient id="paint4_linear_27_3767" x1="25.7628" y1="5.84515" x2="20.8636" y2="5.84515" gradientUnits="userSpaceOnUse">
<stop stop-color="#007EA7"/>
<stop offset="1" stop-color="#0E55BF"/>
</linearGradient>
<linearGradient id="paint5_linear_27_3767" x1="6.63388" y1="14.0292" x2="0.823652" y2="14.0292" gradientUnits="userSpaceOnUse">
<stop stop-color="#007EA7"/>
<stop offset="1" stop-color="#0E55BF"/>
</linearGradient>
<linearGradient id="paint6_linear_27_3767" x1="29.8102" y1="14.0292" x2="24" y2="14.0292" gradientUnits="userSpaceOnUse">
<stop stop-color="#007EA7"/>
<stop offset="1" stop-color="#0E55BF"/>
</linearGradient>
</defs>
</svg>
