<svg width="24" height="24" viewBox="0 0 24 24" fill="none" xmlns="http://www.w3.org/2000/svg">
<path d="M23.0073 18.5118H5.94609L1.74642 13.8589C1.3773 13.45 0.745713 13.4173 0.335588 13.7853C-0.0745361 14.1533 -0.107346 14.7829 0.261766 15.1918L4.58448 19.9837L3.14084 22.5105C2.87016 22.9848 3.03421 23.5981 3.50995 23.868C3.6658 23.9579 3.83805 23.9988 4.0021 23.9988C4.3466 23.9988 4.68291 23.8189 4.87156 23.5L6.58588 20.5152H19.4228L21.1371 23.5C21.3258 23.8189 21.6621 23.9988 22.0066 23.9988C22.1706 23.9988 22.3429 23.9579 22.4987 23.868C22.9745 23.5981 23.1467 22.9848 22.8678 22.5105L21.7195 20.5152H22.9991C23.5486 20.5152 23.9998 20.0655 23.9998 19.5176C23.9998 18.9616 23.5568 18.5118 23.0073 18.5118Z" fill="url(#paint0_linear_27_3729)"/>
<path d="M1.55817 9.04209H8.99783V16.0174H6.50427C5.9547 16.0174 5.50357 16.4671 5.50357 17.015C5.50357 17.5629 5.9547 18.0126 6.50427 18.0126H22.007C22.5565 18.0126 23.0077 17.5629 23.0077 17.015C23.0077 16.4671 22.5565 16.0174 22.007 16.0174H10.9992V9.04209H18.4389C19.1115 9.04209 19.7103 8.61687 19.9235 7.98721C20.1368 7.35756 19.9235 6.68702 19.3904 6.28633L11.8031 0.594901C10.7368 -0.1983 9.26031 -0.1983 8.19398 0.594901L0.614885 6.27815C0.0817237 6.68702 -0.131541 7.35756 0.0817237 7.98721C0.294988 8.61687 0.885567 9.04209 1.55817 9.04209ZM9.39975 2.18948C9.75246 1.91963 10.2446 1.92781 10.6055 2.18948L17.0855 7.04682H2.91978L9.39975 2.18948Z" fill="url(#paint1_linear_27_3729)"/>
<defs>
<linearGradient id="paint0_linear_27_3729" x1="-3.68174" y1="18.7641" x2="23.9998" y2="18.7641" gradientUnits="userSpaceOnUse">
<stop stop-color="#007EA7"/>
<stop offset="1" stop-color="#0E55BF"/>
</linearGradient>
<linearGradient id="paint1_linear_27_3729" x1="-3.53518" y1="9.00631" x2="23.0077" y2="9.00631" gradientUnits="userSpaceOnUse">
<stop stop-color="#007EA7"/>
<stop offset="1" stop-color="#0E55BF"/>
</linearGradient>
</defs>
</svg>
