<svg width="20" height="23" viewBox="0 0 20 23" fill="none" xmlns="http://www.w3.org/2000/svg">
<path d="M16.4387 0H3.56094C2.03703 0 0.799805 1.28913 0.799805 2.87696V20.123C0.799805 21.7109 2.03703 23 3.56094 23H16.4387C17.9626 23 19.1998 21.7109 19.1998 20.123V2.87696C19.1998 1.28913 17.955 0 16.4387 0ZM17.3591 20.123C17.3591 20.6497 16.9441 21.082 16.4387 21.082H3.56094C3.05548 21.082 2.64056 20.6497 2.64056 20.123V2.87696C2.64056 2.35031 3.05548 1.91798 3.56094 1.91798H16.4387C16.9441 1.91798 17.3591 2.35031 17.3591 2.87696V20.123Z" fill="url(#paint0_linear_27_3752)"/>
<path d="M9.99623 3.83594C6.95597 3.83594 4.47397 6.4142 4.47397 9.58987C4.47397 12.7577 6.94843 15.3438 9.99623 15.3438C13.0365 15.3438 15.5185 12.7655 15.5185 9.58987C15.5185 6.4142 13.044 3.83594 9.99623 3.83594ZM13.557 8.62302H12.7196C12.6593 7.91557 12.5009 7.22384 12.267 6.57141C12.8932 7.08235 13.3533 7.79766 13.557 8.62302ZM9.23428 8.62302C9.3399 7.75836 9.61148 6.94086 10.0566 6.23341C10.5017 6.94086 10.7808 7.75836 10.8789 8.62302H9.23428ZM10.8336 10.541C10.7054 11.3113 10.4489 12.0817 10.0566 12.7891C9.66429 12.0817 9.40779 11.3192 9.27954 10.541H10.8336ZM7.89143 6.44564C7.62739 7.13737 7.46142 7.8684 7.39353 8.62302H6.44297C6.66175 7.73478 7.18229 6.96444 7.89143 6.44564ZM6.44297 10.541H7.43879C7.53686 11.3113 7.73301 12.0817 8.03477 12.8127C7.25019 12.3018 6.67684 11.4921 6.44297 10.541ZM12.1237 12.7105C12.3952 12.0109 12.5838 11.2799 12.6744 10.5489H13.557C13.3383 11.4292 12.8177 12.1917 12.1237 12.7105Z" fill="url(#paint1_linear_27_3752)"/>
<path d="M13.6775 17.254H6.32199C5.81654 17.254 5.40161 17.6864 5.40161 18.213C5.40161 18.7397 5.81654 19.172 6.32199 19.172H13.6775C14.1829 19.172 14.5978 18.7397 14.5978 18.213C14.5978 17.6785 14.1829 17.254 13.6775 17.254Z" fill="url(#paint2_linear_27_3752)"/>
<defs>
<linearGradient id="paint0_linear_27_3752" x1="-2.0274" y1="11.5" x2="19.1998" y2="11.5" gradientUnits="userSpaceOnUse">
<stop stop-color="#007EA7"/>
<stop offset="1" stop-color="#0E55BF"/>
</linearGradient>
<linearGradient id="paint1_linear_27_3752" x1="2.77695" y1="9.58987" x2="15.5185" y2="9.58987" gradientUnits="userSpaceOnUse">
<stop stop-color="#007EA7"/>
<stop offset="1" stop-color="#0E55BF"/>
</linearGradient>
<linearGradient id="paint2_linear_27_3752" x1="3.98859" y1="18.213" x2="14.5978" y2="18.213" gradientUnits="userSpaceOnUse">
<stop stop-color="#007EA7"/>
<stop offset="1" stop-color="#0E55BF"/>
</linearGradient>
</defs>
</svg>
