<svg width="7" height="12" viewBox="0 0 7 12" fill="none" xmlns="http://www.w3.org/2000/svg">
<path d="M6.02344 0.0913086C6.52148 0.0913086 6.91162 0.481445 6.91162 0.971191C6.91162 1.22021 6.81201 1.43604 6.6377 1.61035L2.19678 5.99316L6.6377 10.3843C6.81201 10.5586 6.91162 10.7827 6.91162 11.0234C6.91162 11.5132 6.52148 11.9033 6.02344 11.9033C5.78271 11.9033 5.5752 11.8203 5.40918 11.6543L0.387207 6.68213C0.179688 6.49121 0.0883789 6.25879 0.0883789 6.00146C0.0883789 5.73584 0.187988 5.52002 0.387207 5.3125L5.40918 0.348633C5.5752 0.182617 5.78271 0.0913086 6.02344 0.0913086Z" fill="#007EA7"/>
</svg>
