<svg width="8" height="13" viewBox="0 0 8 13" fill="none" xmlns="http://www.w3.org/2000/svg">
<path d="M1.43506 12.3008C1.04492 12.3008 0.746094 12.002 0.746094 11.6118C0.746094 11.4209 0.829102 11.2549 0.945312 11.1221L5.58545 6.50684L0.945312 1.8916C0.829102 1.75879 0.746094 1.58447 0.746094 1.40186C0.746094 1.01172 1.04492 0.712891 1.43506 0.712891C1.62598 0.712891 1.79199 0.787598 1.9165 0.92041L7.04639 6.01709C7.1792 6.1416 7.25391 6.32422 7.25391 6.50684C7.25391 6.68945 7.1792 6.86377 7.04639 6.99658L1.9165 12.1016C1.79199 12.2261 1.62598 12.3008 1.43506 12.3008Z" fill="white"/>
</svg>
