<svg width="30" height="30" viewBox="0 0 30 30" fill="none" xmlns="http://www.w3.org/2000/svg">
<circle cx="15" cy="15" r="15" fill="#767680" fill-opacity="0.12"/>
<path d="M9.94531 19.1641L13.7344 15.3672L9.94531 11.5781C9.61719 11.25 9.60156 10.6641 9.95312 10.3281C10.2891 9.97656 10.875 9.99219 11.2109 10.3203L15 14.1094L18.7812 10.3203C19.125 9.98438 19.7031 9.97656 20.0391 10.3281C20.3906 10.6641 20.3828 11.2422 20.0469 11.5859L16.2578 15.3672L20.0469 19.1562C20.3828 19.4922 20.3906 20.0781 20.0391 20.4141C19.7031 20.7656 19.125 20.7578 18.7812 20.4219L15 16.6328L11.2109 20.4219C10.875 20.75 10.2891 20.7656 9.95312 20.4141C9.60156 20.0781 9.61719 19.4922 9.94531 19.1641Z" fill="#3C3C43" fill-opacity="0.6"/>
</svg>
