<svg width="24" height="24" viewBox="0 0 24 24" fill="none" xmlns="http://www.w3.org/2000/svg">
<mask id="mask0_369_1104" style="mask-type:luminance" maskUnits="userSpaceOnUse" x="1" y="2" width="22" height="21">
<path fill-rule="evenodd" clip-rule="evenodd" d="M11.2931 21.7073C11.4881 21.9023 11.7441 22.0002 12.0001 22.0002C12.2561 22.0002 12.5121 21.9032 12.7071 21.7073L21.7071 12.7072C22.0981 12.3162 22.0981 11.6833 21.7071 11.2933L12.7071 2.29325C12.3161 1.90225 11.6841 1.90225 11.2931 2.29325L2.29313 11.2933C1.90213 11.6842 1.90213 12.3162 2.29313 12.7072L11.2931 21.7073ZM12.0001 19.5863L4.41413 12.0002L12.0001 4.41525L19.5861 12.0002L12.0001 19.5863ZM11.0001 8.00025H13.0001V14.0002H11.0001V8.00025ZM13.2501 16.0002C13.2501 16.6906 12.6905 17.2502 12.0001 17.2502C11.3098 17.2502 10.7501 16.6906 10.7501 16.0002C10.7501 15.3099 11.3098 14.7502 12.0001 14.7502C12.6905 14.7502 13.2501 15.3099 13.2501 16.0002Z" fill="white"/>
</mask>
<g mask="url(#mask0_369_1104)">
<rect x="-0.00012207" width="24" height="24" fill="white"/>
</g>
</svg>
