<svg width="24" height="24" viewBox="0 0 24 24" fill="none" xmlns="http://www.w3.org/2000/svg">
<path d="M9.35358 15.8465C9.15832 16.0418 8.84173 16.0418 8.64647 15.8465L5.15358 12.3537C4.95832 12.1584 4.64173 12.1584 4.44647 12.3537L3.75358 13.0465C3.55832 13.2418 3.55832 13.5584 3.75358 13.7537L8.64647 18.6465C8.84173 18.8418 9.15832 18.8418 9.35358 18.6465L20.6465 7.35365C20.8417 7.15839 20.8417 6.84181 20.6465 6.64654L19.9536 5.95365C19.7583 5.75839 19.4417 5.75839 19.2465 5.95365L9.35358 15.8465Z" fill="black"/>
<mask id="mask0_385_426" style="mask-type:luminance" maskUnits="userSpaceOnUse" x="3" y="5" width="18" height="14">
<path d="M9.35358 15.8465C9.15832 16.0418 8.84173 16.0418 8.64647 15.8465L5.15358 12.3537C4.95832 12.1584 4.64173 12.1584 4.44647 12.3537L3.75358 13.0465C3.55832 13.2418 3.55832 13.5584 3.75358 13.7537L8.64647 18.6465C8.84173 18.8418 9.15832 18.8418 9.35358 18.6465L20.6465 7.35365C20.8417 7.15839 20.8417 6.84181 20.6465 6.64654L19.9536 5.95365C19.7583 5.75839 19.4417 5.75839 19.2465 5.95365L9.35358 15.8465Z" fill="white"/>
</mask>
<g mask="url(#mask0_385_426)">
<rect width="24" height="24" fill="white"/>
</g>
</svg>
