<svg width="24" height="24" viewBox="0 0 24 24" fill="none" xmlns="http://www.w3.org/2000/svg">
<path d="M9.35355 15.8464C9.15829 16.0417 8.84171 16.0417 8.64645 15.8464L5.15355 12.3535C4.95829 12.1583 4.64171 12.1583 4.44645 12.3535L3.75355 13.0464C3.55829 13.2417 3.55829 13.5583 3.75355 13.7535L8.64645 18.6464C8.84171 18.8417 9.15829 18.8417 9.35355 18.6464L20.6464 7.35353C20.8417 7.15827 20.8417 6.84168 20.6464 6.64642L19.9536 5.95353C19.7583 5.75827 19.4417 5.75827 19.2464 5.95353L9.35355 15.8464Z" fill="black"/>
<mask id="mask0_9_13" style="mask-type:luminance" maskUnits="userSpaceOnUse" x="3" y="5" width="18" height="14">
<path d="M9.35355 15.8464C9.15829 16.0417 8.84171 16.0417 8.64645 15.8464L5.15355 12.3535C4.95829 12.1583 4.64171 12.1583 4.44645 12.3535L3.75355 13.0464C3.55829 13.2417 3.55829 13.5583 3.75355 13.7535L8.64645 18.6464C8.84171 18.8417 9.15829 18.8417 9.35355 18.6464L20.6464 7.35353C20.8417 7.15827 20.8417 6.84168 20.6464 6.64642L19.9536 5.95353C19.7583 5.75827 19.4417 5.75827 19.2464 5.95353L9.35355 15.8464Z" fill="white"/>
</mask>
<g mask="url(#mask0_9_13)">
<rect width="24" height="24" fill="white"/>
</g>
</svg>
