<svg width="18" height="18" viewBox="0 0 18 18" fill="none" xmlns="http://www.w3.org/2000/svg">
<path d="M7.46875 14.1777C3.70215 14.1777 0.619141 11.0947 0.619141 7.32812C0.619141 3.56836 3.70215 0.485352 7.46875 0.485352C11.2285 0.485352 14.3115 3.56836 14.3115 7.32812C14.3115 8.83887 13.8125 10.2402 12.9785 11.3818L17.0527 15.4629C17.2715 15.6816 17.374 15.9619 17.374 16.2627C17.374 16.8848 16.9092 17.3838 16.2598 17.3838C15.959 17.3838 15.665 17.2744 15.4531 17.0625L11.3516 12.9541C10.2441 13.7266 8.9043 14.1777 7.46875 14.1777ZM7.46875 12.5986C10.3604 12.5986 12.7393 10.2197 12.7393 7.32812C12.7393 4.43652 10.3604 2.05762 7.46875 2.05762C4.57715 2.05762 2.19824 4.43652 2.19824 7.32812C2.19824 10.2197 4.57715 12.5986 7.46875 12.5986Z" fill="white"/>
</svg>
