<svg width="79" height="85" viewBox="0 0 79 85" fill="none" xmlns="http://www.w3.org/2000/svg">
<path fill-rule="evenodd" clip-rule="evenodd" d="M60.8615 25.2127C60.4223 17.0792 58.0108 11.0064 48.6376 9.08396C42.4121 7.80833 35.6239 8.24559 29.5585 10.4291C23.4251 12.6362 20.1898 17.773 18.6441 23.8639C17.5645 28.1162 17.4858 32.6144 17.0573 36.9598C16.5618 42 15.3873 47.715 15.6924 52.8048C16.0806 59.2968 18.7989 63.8789 24.6827 66.544C30.2401 69.0618 37.7197 68.9498 43.6769 68.4773C49.4686 68.0202 54.7487 66.9207 58.0108 61.8715C61.1943 56.9461 60.306 49.2761 60.6424 43.5701C61.0002 37.4594 61.1925 31.3396 60.8615 25.2127Z" fill="#FACD61"/>
<path fill-rule="evenodd" clip-rule="evenodd" d="M78.1445 45.0867C76.6643 37.0701 65.7229 41.4904 60.9076 44.5142C60.8506 45.8543 60.8407 47.2773 60.8262 48.7459C62.5905 48.1616 67.8581 46.3456 70.3083 45.6264C71.7731 45.0676 72.8317 46.1004 70.4205 47.5243C69.6496 47.9801 67.014 48.8644 66.178 49.1734C63.3967 50.2017 59.9404 50.7095 58.6511 53.1781C57.8377 54.7351 59.0112 58.5064 60.8262 58.9221C63.7106 59.5812 64.9809 57.604 65.5708 55.4061C68.1947 54.6203 70.776 53.613 73.1574 52.4561C75.7152 51.2145 78.7327 48.2764 78.1445 45.0867Z" fill="#FACD61"/>
<path fill-rule="evenodd" clip-rule="evenodd" d="M75.0894 45.9996C74.8734 43.4959 72.8704 43.3523 70.9262 43.6059C70.2086 43.7629 69.5017 43.9509 68.7931 44.1513C67.6633 44.4679 65.926 45.0879 64.742 44.6107C64.0867 44.3473 63.5163 43.7895 63.2569 43.1864C62.3793 43.6192 61.583 44.0573 60.9051 44.4715C60.8481 45.7734 60.8382 47.1578 60.8237 48.5848C62.5863 48.0163 67.8486 46.2496 70.2962 45.5499C71.7596 45.0063 72.8171 46.0111 70.4083 47.3964C69.6382 47.8398 67.0053 48.7001 66.1701 49.0007C63.3916 50.0011 59.9388 50.4951 58.6508 52.8967C57.8383 54.4115 59.0106 58.0804 60.8237 58.4848C63.7053 59.126 64.9743 57.2024 65.5636 55.0642C68.1848 54.2997 70.7635 53.3197 73.1425 52.1943C73.9506 51.8112 74.8038 51.2631 75.5748 50.5962C73.7707 49.853 75.2133 47.4496 75.0894 45.9996Z" fill="#F0A641"/>
<path fill-rule="evenodd" clip-rule="evenodd" d="M29.8115 10.7522C29.7061 10.7904 29.6078 10.8359 29.5042 10.875C28.8338 13.9356 28.1328 16.9562 28.5455 20.1879C29.1618 25.0227 32.0101 28.4109 36.901 29.1751C41.2873 29.8611 47.6109 29.8784 50.689 26.0089C54.1517 21.6564 52.4199 15.929 53.5408 10.8832C53.3732 10.8004 53.2137 10.7149 53.0398 10.6384C52.0135 17.3748 49.4788 26.0845 41.4775 25.3038C33.3752 24.5123 30.3539 17.4539 31.719 10.1353C31.0775 10.3237 30.4386 10.5256 29.8115 10.7522Z" fill="#F0A641"/>
<path fill-rule="evenodd" clip-rule="evenodd" d="M55.2015 60.8982C48.7741 63.627 35.9507 63.0251 29.8989 59.2297C26.487 57.091 23.9522 53.9209 23.2917 48.8341C22.6906 44.2139 20.7039 19.8006 24.8427 13.2204C21.6716 15.8671 19.7451 19.6553 18.6578 23.9146C17.5733 28.1622 17.4942 32.6552 17.0638 36.9957C16.566 42.0301 15.3862 47.7386 15.6926 52.8227C16.0826 59.3073 18.8133 63.8842 24.7241 66.5463C30.3068 69.0612 37.8206 68.9493 43.8051 68.4774C49.6233 68.0208 54.9275 66.9226 58.2045 61.8791C59.1903 60.3622 59.786 58.58 60.1508 56.6822C58.9647 58.4951 57.3536 59.9823 55.2015 60.8982Z" fill="#F0A641"/>
<path fill-rule="evenodd" clip-rule="evenodd" d="M43.9677 43.7355C43.9069 43.6361 43.8335 43.5623 43.7547 43.5104C43.6232 43.2677 43.386 43.1041 43.1086 43.2299C41.8083 43.8164 40.108 44.7793 38.6842 44.3097C38.4049 44.2182 38.1884 44.3378 38.0622 44.5366C37.7776 44.6834 37.57 45.0651 37.7347 45.4836C38.6161 47.733 40.1214 50.3041 42.6406 49.7097C45.1508 49.1206 45.1329 45.6287 43.9677 43.7355Z" fill="#E3657C"/>
<path fill-rule="evenodd" clip-rule="evenodd" d="M21.8118 41.5349C21.8118 39.8512 22.9074 38.4243 24.4311 37.8981C23.9782 39.305 24.0287 40.9164 24.5274 42.2148C24.9473 43.3089 25.9246 44.3931 27.0999 45.1391C26.67 45.2991 26.2079 45.3896 25.7211 45.3896C23.562 45.3896 21.8118 43.6625 21.8118 41.5349Z" fill="#FFFFFE"/>
<path fill-rule="evenodd" clip-rule="evenodd" d="M21.7892 41.6589C21.7892 40.0194 22.8415 38.6299 24.305 38.1175C23.87 39.4875 23.9185 41.0566 24.3975 42.321C24.8008 43.3865 25.7395 44.4422 26.8685 45.1686C26.4555 45.3245 26.0116 45.4125 25.544 45.4125C23.4702 45.4125 21.7892 43.7307 21.7892 41.6589ZM25.5571 37.017C23.0025 37.017 20.9305 39.088 20.9305 41.6459C20.9305 44.2011 23.0025 46.2712 25.5571 46.2712C28.1135 46.2712 30.1847 44.2011 30.1847 41.6459C30.1847 39.088 28.1135 37.017 25.5571 37.017Z" fill="#7F1F38"/>
<path fill-rule="evenodd" clip-rule="evenodd" d="M46.0805 9.11211C47.431 9.15432 48.0755 9.29081 49.5744 9.40664C49.5726 9.39946 49.5708 9.39227 49.5662 9.38329C48.8621 3.8708 47.8866 0.560075 42.3454 0.0284906C37.1481 -0.470767 34.5004 5.70441 33.7101 9.69488C34.3381 9.44076 36.5769 9.25668 37.1481 9.19473C37.7752 7.51557 39.0147 5.0938 39.9838 3.56819C41.6285 3.58436 43.0587 3.63374 44.7044 3.67774C44.9519 5.19886 45.7413 7.60716 46.0805 9.11211Z" fill="#FACD61"/>
<path fill-rule="evenodd" clip-rule="evenodd" d="M36.2444 3.52549C34.9092 5.42012 34.0914 7.80986 33.7101 9.69496C34.3277 9.44956 36.5293 9.27181 37.091 9.21198C37.7077 7.59049 38.9266 5.2519 39.8796 3.77868C38.7066 3.71105 37.0071 3.59139 36.2444 3.52549Z" fill="#F0A641"/>
<path fill-rule="evenodd" clip-rule="evenodd" d="M49.126 9.67135C48.8514 7.51093 48.5301 5.69442 47.9151 4.24426C47.1248 4.15896 45.6155 3.99374 44.2868 3.9659C44.5332 5.48699 45.3189 7.89524 45.6565 9.40017C47.0007 9.44237 47.6422 9.57886 49.1342 9.69469C49.1324 9.68751 49.1306 9.68033 49.126 9.67135Z" fill="#F0A641"/>
<path fill-rule="evenodd" clip-rule="evenodd" d="M20.0638 24.2655C19.3867 23.9359 19.0829 23.9314 18.1462 23.8046C19.0018 23.5045 20.0322 23.3018 20.1936 22.6114C20.4677 21.4368 19.7906 21.3297 18.3364 21.0769C18.6105 20.9215 19.3516 20.5401 19.6148 20.3481C20.3793 19.7881 19.5436 18.9333 19.1217 18.9494C5.01259 19.4897 -1.78231 31.568 0.733884 41.935C2.57933 49.5429 9.2318 54.1445 17.5548 53.1995C17.5368 52.385 17.1185 50.7621 16.8994 49.8698C3.68282 47.3449 2.24937 30.9973 14.3228 26.4555C16.4802 25.6463 18.0182 25.8928 19.879 25.8651C20.318 25.858 20.9031 24.6781 20.0638 24.2655Z" fill="#FACD61"/>
<path fill-rule="evenodd" clip-rule="evenodd" d="M15.3516 49.3931C12.6566 52.7085 5.67239 46.9969 4.40461 43.5936C2.607 38.7707 2.52175 33.1721 5.36438 28.6801C6.81091 26.3924 8.52969 24.1989 10.7627 22.5856C12.8647 21.0665 15.3544 20.1625 17.6516 18.9492C4.52745 20.3885 -1.70782 31.922 0.742469 41.8888C2.61892 49.5276 9.38312 54.1478 17.8459 53.1991C17.8276 52.3812 17.4023 50.7517 17.1795 49.8558C16.5406 49.7357 15.9356 49.5752 15.3516 49.3931Z" fill="#F0A641"/>
<path fill-rule="evenodd" clip-rule="evenodd" d="M48.9347 83.3107C48.2419 82.6801 47.3847 82.1913 46.467 81.8215C47.1354 77.7768 47.5988 71.7 47.7966 66.9825C46.3116 67.9592 43.852 68.21 41.7095 68.253C41.0085 75.1453 39.7313 85.9423 48.3259 84.4741C48.5463 84.4366 49.5562 83.8782 48.9347 83.3107Z" fill="#FACD61"/>
<path fill-rule="evenodd" clip-rule="evenodd" d="M28.859 66.5421C29.0469 71.3178 29.5184 77.6491 30.2075 81.8193C29.289 82.1894 28.4318 82.6786 27.74 83.3098C27.1186 83.8778 28.1284 84.4366 28.3478 84.4742C36.9741 85.9491 35.6573 75.0611 34.9573 68.1646C32.8475 68.0565 30.4766 67.6854 28.859 66.5421Z" fill="#FACD61"/>
<path fill-rule="evenodd" clip-rule="evenodd" d="M28.8325 66.5421C29.0166 71.3195 29.4786 77.6529 30.1539 81.8245C29.2538 82.1947 28.4139 82.6841 27.736 83.3155C27.1271 83.8837 28.1166 84.4427 28.3316 84.4803C28.9644 84.5903 29.5388 84.6251 30.0663 84.604C31.069 83.1836 32.1771 82.1755 32.1691 79.7295C32.1629 77.6877 31.8992 75.6588 31.9337 73.6197C31.9691 71.5202 33.3391 70.3865 35.0321 70.4534C34.9587 69.6598 34.8808 68.8919 34.8082 68.1651C32.7399 68.057 30.4176 67.6858 28.8325 66.5421Z" fill="#F0A641"/>
<path fill-rule="evenodd" clip-rule="evenodd" d="M43.9413 78.4275C43.6987 75.1318 44.4817 72.3246 47.6467 70.1246C47.7119 69.0371 47.7653 67.9827 47.8078 66.9825C47.7481 66.9954 47.6793 67.0019 47.6177 67.012C46.1149 67.8944 43.7666 68.1271 41.7106 68.1676C41.0081 75.0959 39.728 85.9492 48.3419 84.4734C48.4958 84.4467 49.0345 84.1652 49.1341 83.8054C44.594 83.6794 44.1196 80.8575 43.9413 78.4275Z" fill="#F0A641"/>
<path fill-rule="evenodd" clip-rule="evenodd" d="M64.9524 54.6817C63.8149 55.0791 62.7016 55.5355 61.5457 55.8863C60.6463 56.1601 61.0251 57.5168 61.9365 57.2546C63.1564 56.9038 64.3522 56.4706 65.5164 55.974C66.2741 55.6518 65.7295 54.4133 64.9524 54.6817Z" fill="#D0692D"/>
<path fill-rule="evenodd" clip-rule="evenodd" d="M45.4108 33.4628C44.9526 33.6038 44.4717 33.717 43.9935 33.7727C43.8481 32.3228 43.7672 30.8692 43.6172 29.4211C44.1753 29.3609 44.7281 29.2684 45.2717 29.1435C45.3954 30.5809 45.4554 32.02 45.4108 33.4628ZM33.6857 33.0242C33.3675 33.0242 33.0493 33.0242 32.7311 33.0242C32.7348 31.3785 32.9502 29.7533 33.3329 28.1498C33.7629 28.3088 34.2039 28.4498 34.6548 28.5711C34.242 30.0327 33.9239 31.5249 33.6857 33.0242ZM52.4438 11.2046C51.6101 15.4888 52.4147 20.0578 50.1956 24.0025C48.0983 27.7261 43.3573 28.1645 39.5337 27.8932C35.0682 27.5716 30.6555 26.4092 29.4009 21.6865C28.5064 18.3231 29.3564 14.6309 29.6618 11.2459C29.7318 10.4805 28.4373 10.3071 28.3027 11.0644C27.5873 15.0863 27.0054 19.4829 28.3464 23.4329C29.0182 25.4147 30.3418 26.6876 31.9646 27.5438C31.4318 29.5794 31.1473 31.6546 31.2291 33.7648C31.2445 34.1664 31.5582 34.5042 31.9782 34.5024C32.7582 34.5024 33.5382 34.5024 34.3182 34.5024C34.6173 34.5006 34.9937 34.2796 35.0382 33.9598C35.2809 32.2502 35.6773 30.5811 36.0773 28.903C36.8864 29.0647 37.7009 29.1931 38.4955 29.3027C39.671 29.4635 40.9401 29.5525 42.2173 29.5165C42.2519 31.1893 42.4137 32.8728 42.6137 34.5329C42.661 34.9246 42.9101 35.2543 43.3446 35.2543C44.321 35.257 45.4146 35.0172 46.3237 34.6794C46.6446 34.5599 46.8419 34.329 46.861 33.984C46.9492 32.2269 46.8746 30.4787 46.6728 28.735C47.6974 28.364 48.6537 27.8474 49.4792 27.1386C54.2165 23.0673 52.9047 17.0969 53.9647 11.6187C54.1556 10.6377 52.6365 10.2173 52.4438 11.2046Z" fill="#D0692D"/>
<path fill-rule="evenodd" clip-rule="evenodd" d="M45.6181 9.27391C46.5276 9.43913 47.4566 9.45791 48.3585 9.67664C49.1381 9.8644 49.4688 8.53416 48.6875 8.34453C47.7831 8.12673 46.8584 8.10702 45.9472 7.94273C45.1642 7.80004 44.8293 9.13028 45.6181 9.27391Z" fill="#D0692D"/>
<path fill-rule="evenodd" clip-rule="evenodd" d="M47.4255 67.4418C45.5888 67.8473 43.7751 68.0266 41.903 68.0582C40.9687 68.0735 40.9678 69.6227 41.903 69.6266C43.8716 69.6342 45.8925 69.4722 47.7797 68.8338C48.6042 68.5529 48.2641 67.2548 47.4255 67.4418Z" fill="#D0692D"/>
<path fill-rule="evenodd" clip-rule="evenodd" d="M62.0215 47.9869C62.3323 46.802 62.4246 45.4939 62.3015 44.2807C62.2149 43.4269 60.8554 43.3923 60.8699 44.2807C60.8901 45.4711 60.6659 46.6223 60.5928 47.8035C60.5456 48.5862 61.8252 48.7321 62.0215 47.9869Z" fill="#D0692D"/>
<path fill-rule="evenodd" clip-rule="evenodd" d="M35.2279 67.8386C33.4603 67.775 31.7153 67.4809 29.9477 67.4239C29.0774 67.3958 29.1009 68.6268 29.9477 68.6904C31.7075 68.8267 33.4568 69.1919 35.2279 69.1861C36.1461 69.1828 36.1391 67.8709 35.2279 67.8386Z" fill="#D0692D"/>
<path fill-rule="evenodd" clip-rule="evenodd" d="M34.3182 9.68847C35.2379 9.56215 36.1543 9.41403 37.0741 9.28953C37.8683 9.18412 37.8853 7.83738 37.0741 7.93734C36.1535 8.05184 35.2371 8.19451 34.3182 8.31991C33.5121 8.42987 33.5027 9.79842 34.3182 9.68847Z" fill="#D0692D"/>
<path fill-rule="evenodd" clip-rule="evenodd" d="M15.0768 49.8536C14.8409 50.9275 14.6626 52.1524 14.8214 53.243C14.9226 53.9405 16.1865 53.9317 16.298 53.243C16.4651 52.2085 16.5097 51.0846 16.5236 50.0387C16.5348 49.2649 15.2495 49.0762 15.0768 49.8536Z" fill="#D0692D"/>
<path fill-rule="evenodd" clip-rule="evenodd" d="M60.0268 50.7457C57.0099 52.1144 56.885 55.9366 58.6832 58.3235C59.2017 59.007 60.391 58.3408 59.8673 57.6478C58.4581 55.78 58.3774 53.0487 60.695 51.8618C61.4599 51.469 60.7881 50.3997 60.0268 50.7457Z" fill="#D0692D"/>
<path fill-rule="evenodd" clip-rule="evenodd" d="M20.4812 23.7408C21.1029 22.9624 21.1371 21.7988 20.2041 20.8964C19.602 20.3128 18.705 21.2466 19.3044 21.8401C19.9142 22.4443 19.6474 23.1563 18.811 23.2129C17.9764 23.2677 17.9618 24.5929 18.811 24.5857C20.3922 24.5695 19.0847 25.4306 18.3219 25.5428C17.4881 25.6712 17.843 27.0009 18.6708 26.8725C19.6337 26.7289 20.7625 26.1022 20.9139 24.9826C20.9908 24.4205 20.7984 24.021 20.4812 23.7408Z" fill="#D0692D"/>
<path fill-rule="evenodd" clip-rule="evenodd" d="M45.2748 1.40667C44.9617 1.07402 44.3839 0.831035 43.9245 0.890212C43.2883 0.971805 42.872 1.67565 43.3807 2.20107C43.719 2.54896 44.2188 2.75608 44.6943 2.80898C45.4525 2.89416 45.7199 1.87829 45.2748 1.40667ZM7.82912 44.8716C7.80849 44.851 7.67479 44.7066 7.68018 44.7165C7.34191 44.0835 6.41413 44.4081 6.38901 45.0662C6.37555 45.4177 6.5568 45.6696 6.77573 45.9252C7.40292 46.6478 8.54694 45.5172 7.82912 44.8716ZM58.4405 48.6536C57.912 48.6536 57.5576 49.0724 57.5208 49.5745C57.5127 49.6857 57.5154 49.7906 57.5235 49.9017C57.5576 50.4021 57.9147 50.8208 58.4405 50.8208C58.9663 50.8208 59.3234 50.4021 59.3584 49.9017C59.3664 49.7906 59.3691 49.6857 59.3611 49.5745C59.3243 49.0724 58.9699 48.6536 58.4405 48.6536ZM48.7086 10.9804C47.7512 11.0494 47.7135 12.2733 48.5354 12.5091C49.0092 12.8821 49.8948 12.6642 49.8266 11.9335C49.7683 11.3112 49.3367 10.9355 48.7086 10.9804ZM45.8369 10.1526C45.1056 9.94462 44.3465 9.92669 43.5901 9.91862C43.2518 9.91503 42.9181 9.9222 42.5807 9.95179C42.3815 9.96793 42.1823 9.99842 41.9867 10.045C41.9445 10.0549 41.2384 10.3813 41.7364 10.1894C41.0482 10.4548 41.0051 11.2698 41.5919 11.6195C41.6116 11.6365 41.6628 11.676 41.7642 11.7504C41.9634 11.8661 42.1805 11.8876 42.403 11.9172C42.7269 11.9593 43.0509 11.9835 43.3775 11.9952C44.1105 12.0248 44.8409 12.0831 45.5749 12.101C46.7099 12.1279 46.9046 10.4557 45.8369 10.1526ZM17.5304 19.2096C17.4246 19.215 17.3259 19.2284 17.2299 19.2571C16.6413 19.2302 16.1702 20.0461 16.6691 20.5402C16.9795 20.8468 17.3339 20.9033 17.7431 20.7831C18.5955 20.5312 18.4537 19.1773 17.5304 19.2096ZM35.1995 74.5646C35.1995 74.561 35.1986 74.5574 35.1968 74.5521C35.0389 73.9415 34.2493 73.9056 33.9389 74.3647C33.7863 74.5395 33.7226 74.7619 33.6302 74.9753C33.449 75.3949 33.5019 75.8719 33.9317 76.1247C34.2987 76.339 34.8882 76.2377 35.082 75.8226C35.2767 75.4038 35.3763 74.9636 35.1995 74.5646ZM46.9059 74.4094C46.8297 73.3326 45.307 73.3326 45.2307 74.4094C45.2074 74.7412 45.1877 75.0649 45.2002 75.3984C45.2388 76.5174 46.8979 76.5174 46.9374 75.3984C46.949 75.0649 46.9302 74.7412 46.9059 74.4094ZM76.795 42.8428C76.5132 42.2752 76.0457 41.9238 75.4724 41.687C75.1574 41.5579 74.7608 41.7713 74.602 42.0412C74.3777 42.425 74.5338 42.8553 74.8784 43.0947C75.0821 43.2364 75.2642 43.4552 75.388 43.665C75.6159 44.0434 76.1184 44.1823 76.5024 43.9564C76.9044 43.7215 76.9932 43.24 76.795 42.8428ZM59.6788 23.2271C59.5002 24.2115 58.1382 24.0331 57.8636 23.2271C57.4114 21.9001 57.4203 20.4547 56.9259 19.1232C56.4818 17.919 55.7954 17.0215 55.1099 15.9644C54.7492 15.4076 55.353 14.5253 56.0143 14.788C58.777 15.8819 60.1678 20.5291 59.6788 23.2271Z" fill="#FFFFFE"/>
<path fill-rule="evenodd" clip-rule="evenodd" d="M55.9648 40.3639C56.5153 41.8911 55.9973 43.5396 54.7961 44.5082C54.7434 43.0849 54.1683 41.638 53.2929 40.6179C52.5562 39.7592 51.3182 39.0881 50.0151 38.7879C50.3497 38.5043 50.7369 38.2713 51.1759 38.1177C53.1217 37.4239 55.2659 38.4283 55.9648 40.3639Z" fill="#FFFFFE"/>
<path fill-rule="evenodd" clip-rule="evenodd" d="M55.9809 40.3609C56.5328 41.9015 56.0134 43.5644 54.8092 44.5416C54.7564 43.1058 54.1798 41.6462 53.3021 40.617C52.5636 39.7508 51.3223 39.0738 50.016 38.771C50.3514 38.4849 50.7396 38.2498 51.1797 38.0949C53.1305 37.395 55.2802 38.4083 55.9809 40.3609ZM54.0001 45.9977C56.4051 45.1376 57.656 42.4869 56.7924 40.0826C55.9297 37.6775 53.2818 36.4248 50.8768 37.2919C48.4718 38.152 47.2218 40.8028 48.0845 43.2061C48.9481 45.6121 51.5969 46.8613 54.0001 45.9977Z" fill="#7F1F38"/>
<path fill-rule="evenodd" clip-rule="evenodd" d="M41.9011 44.2715C41.6755 44.0604 41.367 43.996 41.0978 44.1611C40.816 44.335 40.6399 44.8127 40.8605 45.1164C41.294 45.708 41.3804 46.387 41.6235 47.066C41.7309 47.3671 41.9548 47.5931 42.2801 47.5931C42.6281 47.5931 42.9929 47.2647 42.9627 46.8753C42.8897 45.972 42.5602 44.8825 41.9011 44.2715Z" fill="#BE244D"/>
<path fill-rule="evenodd" clip-rule="evenodd" d="M44.4537 42.0406C42.3003 43.8775 37.3012 44.8665 34.9511 42.9188C34.2537 42.3429 33.2465 43.3275 33.9476 43.9186C35.5975 45.3074 38.2698 45.6517 40.7365 45.2064C41.2419 45.0919 41.6279 45.0078 42.197 44.8451C43.4672 44.4319 44.6018 43.8014 45.4043 42.9877C46.021 42.3643 45.1036 41.4844 44.4537 42.0406Z" fill="#7F1F38"/>
</svg>
