<svg width="104" height="108" viewBox="0 0 104 108" fill="none" xmlns="http://www.w3.org/2000/svg">
<g clip-path="url(#clip0_346_662)">
<path fill-rule="evenodd" clip-rule="evenodd" d="M84.3181 47.8197C84.5479 47.8197 84.6245 47.5107 84.7776 47.279C84.9308 47.1245 85.1605 46.8927 85.4669 46.8927C86.4625 46.8927 86.6922 48.7468 86.6922 49.7511C86.8454 51.8369 86.6156 54.0773 86.3859 55.9313C86.1561 57.7854 85.7732 59.7167 85.2371 61.2618C84.7776 62.8069 84.0884 64.4292 83.0162 65.588C82.0206 66.7468 80.5655 67.6738 78.8041 67.8283C77.1959 67.9828 75.7408 67.133 74.5921 66.3605C72.0648 64.5837 70.38 62.1116 68.7717 59.3305C68.6186 59.0987 68.4654 58.7897 68.3122 58.5579C67.9293 57.8627 67.6996 57.0129 67.7761 55.7768C67.8527 55.0043 68.3888 53.8455 69.1546 53.691C69.9971 53.5365 70.8395 54.3863 71.3756 54.8498C72.6009 56.0086 73.5199 57.0129 74.7452 58.2489C75.2813 58.7124 76.1237 59.485 76.813 59.5622C77.3491 59.6395 77.8851 59.485 78.268 59.176C78.9573 58.6352 79.1105 57.1674 79.187 55.9313C79.2636 55.0815 79.1105 54.5408 79.187 53.6137C77.0427 53.9227 75.8174 51.2189 77.0427 49.5193C77.1959 49.2876 77.5022 49.0558 77.8085 48.9785C77.732 48.6695 77.8085 48.3605 77.8851 48.1288C78.5744 46.3519 81.3314 46.6609 82.0972 48.206C82.327 47.4335 82.2504 46.2747 82.9396 46.1202C83.8586 45.8884 84.2415 46.97 84.3181 47.8197ZM80.3358 51.7597C81.408 51.4506 80.5655 49.0558 79.7231 48.824C79.4934 48.7468 79.2636 48.824 79.0339 48.9013C77.1193 49.2876 79.4168 51.9914 80.3358 51.7597Z" fill="#FFD15F"/>
<path fill-rule="evenodd" clip-rule="evenodd" d="M19.452 51.9914C19.9881 51.4506 20.6008 50.6009 21.673 50.6009C22.6685 50.6009 23.4344 51.2961 23.5875 52.3777C23.9705 52.6867 24.43 52.764 24.6597 53.1502C24.966 53.6137 25.0426 54.309 25.0426 54.6953C24.966 56.2403 23.511 57.2446 22.3622 57.5537C22.4388 58.9442 22.5154 59.8712 22.8217 61.1073C23.0515 62.0343 23.6641 63.4249 24.7363 63.5021C25.7319 63.5021 26.7275 62.5751 27.4933 61.8026C28.2591 61.03 28.9484 60.0258 29.4844 59.3305C30.48 58.0944 31.3224 56.7811 32.1649 55.2361C32.4712 54.7725 32.7775 54 33.1604 54C33.8497 54 33.6965 55.1588 33.6965 55.9313C33.6965 56.9356 33.6199 57.6309 33.6199 58.3262C33.5434 59.176 33.5434 59.9485 33.3902 60.6438C33.237 61.3391 33.0073 61.9571 32.7775 62.5751C32.318 63.8112 31.7819 64.97 31.1693 65.9743C30.0205 67.8283 28.8718 69.6052 26.9572 70.8412C26.0382 71.382 25.0426 71.8455 23.8939 71.8455C19.2223 71.8455 17.1545 67.7511 15.9292 64.1202C15.3166 62.4206 14.9336 59.794 14.7039 57.4764C14.6273 56.3176 14.5507 54.8498 14.6273 53.691C14.7805 52.1459 15.6995 50.2146 17.0014 51.7597C17.078 50.9871 17.3077 50.2918 17.997 50.2146C18.9925 50.1373 19.2989 50.9871 19.452 51.9914ZM20.9071 55.2361C21.1369 55.9313 21.9793 55.6223 22.3622 55.3133C22.8983 54.8498 23.128 53.691 23.2812 52.764C22.1325 52.2232 20.5242 54.0773 20.9071 55.2361Z" fill="#FFD15F"/>
<path fill-rule="evenodd" clip-rule="evenodd" d="M82.0206 61.03C83.9351 55.3133 83.7054 50.6781 83.2459 46.1202C83.1693 46.1202 83.0927 46.1202 83.0161 46.1202C82.3269 46.3519 82.4035 47.4335 82.1737 48.206C81.4079 46.6609 78.7275 46.3519 77.9616 48.1288C77.8851 48.3605 77.8085 48.6695 77.8851 48.9785C77.5787 49.133 77.2724 49.2876 77.1192 49.5193C75.8939 51.2189 77.0426 53.9227 79.2636 53.6137C79.187 54.5408 79.3401 55.0815 79.2636 55.9313C79.187 57.1674 79.0338 58.6352 78.3446 59.176C77.9616 59.485 77.4256 59.6395 76.8895 59.5622C76.2002 59.485 75.3578 58.7124 74.8217 58.2489C73.5198 57.0901 72.6774 56.0086 71.4521 54.8498C70.916 54.3863 70.0736 53.5365 69.2312 53.691C68.4653 53.8455 67.9292 55.0043 67.8527 55.7768C67.6995 57.0129 68.0058 57.8627 68.3887 58.5579C68.5419 58.7897 68.6951 59.0987 68.8482 59.3305C70.4565 62.1116 72.1413 64.5064 74.6686 66.3605C75.7407 67.133 77.2724 67.9828 78.8806 67.8283C79.4933 67.7511 80.106 67.5966 80.7186 67.3648C79.4167 65.6652 81.1016 63.8112 82.0206 61.03ZM79.0338 48.9785C79.2636 48.9013 79.4933 48.824 79.7231 48.9013C80.5655 49.133 81.3313 51.3734 80.3357 51.6824C79.4167 51.9142 77.2724 49.3648 79.0338 48.9785Z" fill="#F9A63B"/>
<path fill-rule="evenodd" clip-rule="evenodd" d="M33.1605 54.0773C32.7776 54.0773 32.4713 54.8498 32.1649 55.3133C31.2459 56.7811 30.4035 58.0944 29.4845 59.4077C29.4079 59.485 29.3314 59.6395 29.2548 59.7167C29.5611 62.4979 27.4168 67.1331 24.6598 67.4421C21.7496 67.7511 20.3711 64.5064 19.4521 61.6481C18.4565 58.7125 17.6141 53.6137 18.8395 50.4464C18.6097 50.2919 18.38 50.2146 18.0736 50.2146C17.3844 50.2918 17.2312 51.0644 17.078 51.7597C15.7761 50.2146 14.8571 52.1459 14.704 53.691C14.5508 54.927 14.704 56.3176 14.7805 57.4764C14.9337 59.794 15.3932 62.4206 16.0059 64.1202C17.2312 67.7511 19.2224 71.9227 23.9705 71.8455C25.0427 71.8455 26.1149 71.382 27.0339 70.8412C28.9484 69.6051 30.0972 67.9056 31.2459 65.9743C31.8586 64.97 32.3947 63.8112 32.8542 62.5751C33.0839 62.0343 33.3137 61.3391 33.4669 60.6438C33.62 59.9485 33.62 59.176 33.6966 58.3262C33.7732 57.6309 33.7732 56.8584 33.7732 55.9313C33.6966 55.2361 33.8498 54.0773 33.1605 54.0773Z" fill="#F9A63B"/>
<path d="M61.8026 106.223C61.4962 106.223 61.1899 106.223 60.9601 106.223C59.5051 106.223 57.9734 106.223 56.5183 106.146C55.3696 106.146 54.2208 106.069 53.0721 106.069C51.2341 106.069 49.3961 106.069 47.6347 106.069C45.8732 106.069 44.1884 106.069 42.5036 106.069H42.427C40.6656 106.069 38.9808 106.146 37.2959 106.223C35.6111 106.3 33.7731 106.378 32.0117 106.378H29.7908C27.1869 106.378 24.2002 106.378 21.4432 106.223C18.1501 106.069 14.7805 105.682 12.7893 104.292C11.1811 103.133 10.1855 100.429 10.2621 97.4163C10.3386 95.0987 10.8747 92.7811 11.8703 90.927C13.7849 87.2189 16.5419 85.2875 20.0647 85.2875C20.6774 85.2875 21.29 85.3648 21.9027 85.4421C21.9027 85.6738 21.8261 85.9828 21.8261 86.2918C21.7495 86.7554 21.673 87.2961 21.673 87.8369C21.673 90.0772 22.6685 93.6309 25.1958 93.6309C25.349 93.6309 25.5021 93.6309 25.6553 93.6309C26.4977 93.4764 27.1869 92.8584 27.4933 92.0086C28.4123 89.4592 26.7274 86.6781 25.4255 85.5193C25.1192 85.2103 24.6597 84.824 24.1236 84.515C24.047 84.4378 23.9705 84.4378 23.8939 84.4378C23.8939 84.4378 23.8173 84.4378 23.7407 84.3605C24.5831 80.8841 26.4977 77.8712 29.4844 75.1674C31.5522 73.3906 33.7731 72.1545 36.8364 71.2275C37.2193 71.073 37.6788 70.9957 38.1383 70.9185C38.6744 70.7639 39.2871 70.6867 39.8232 70.4549C40.0529 70.3777 40.2061 70.3004 40.3593 70.1459C40.4358 70.0687 40.4358 70.0687 40.5124 69.9914C40.589 69.9142 40.6656 69.8369 40.7422 69.8369C40.8188 69.8369 40.9719 69.7597 41.1251 69.7597C41.2783 69.7597 41.3548 69.6824 41.508 69.6824C43.6523 69.0644 46.3327 68.3691 49.1663 68.1373C53.455 67.7511 58.5861 67.9828 62.7216 68.8326C63.0279 68.9099 63.3342 68.9871 63.6406 68.9871C64.9425 69.2189 66.1678 69.4506 67.3165 69.8369C70.3799 70.8412 72.371 72.5408 74.1325 74.1631C76.2768 76.1717 77.5787 78.103 78.6509 80.8069C79.1104 81.8884 79.3401 82.97 79.4933 84.1288C79.4933 84.2833 79.5699 84.4378 79.5699 84.5923C79.6464 84.824 79.6464 85.133 79.6464 85.2875C79.6464 85.4421 79.2635 85.6738 79.1104 85.7511L79.0338 85.8283C77.885 86.7554 76.5831 87.9142 75.8173 89.4592C75.5109 90.1545 75.2046 91.3906 75.6641 92.2403C75.8939 92.6266 76.2768 92.8584 76.7363 92.9356C77.5787 93.0129 78.1914 92.6266 78.6509 92.2403C79.9528 91.0815 80.7952 88.9185 80.8718 86.4463C81.561 86.0601 82.0971 85.8283 82.7864 85.7511C83.0927 85.7511 83.3224 85.6738 83.6288 85.6738C87.5345 85.6738 89.4491 88.6094 90.2149 90.3863C91.5934 93.4764 91.0573 98.0343 89.9086 100.738C89.4491 101.82 88.6833 102.747 87.4579 103.519C86.4623 104.215 85.237 104.524 83.5522 104.833C79.2635 105.605 74.0559 106.069 68.4653 106.069C66.7805 106.069 65.0956 105.991 63.3342 105.991C63.0279 106.223 62.4152 106.223 61.8026 106.223ZM26.1148 92.0086C25.9616 92.2403 25.7319 92.3948 25.5021 92.3948C24.8129 92.4721 24.2002 91.6996 23.8939 91.0043C23.2812 89.691 23.128 87.6824 23.4344 86.0601C24.43 86.6009 25.7319 87.7597 26.2679 89.3047C26.4977 90.0772 26.4977 91.3133 26.1148 92.0086ZM77.0426 91.6996H76.966C76.7363 90.8498 77.2724 90 77.8084 89.3047C78.4211 88.5322 79.0338 87.9914 79.5699 87.5279C79.4933 88.6094 79.0338 89.5365 78.7274 90.1545C78.4211 90.8498 77.9616 91.6996 77.0426 91.6996Z" fill="white"/>
<path fill-rule="evenodd" clip-rule="evenodd" d="M48.9366 89.5365C48.4005 88.9957 48.9366 87.9914 49.0132 87.2961C48.4005 86.9099 47.5581 86.8326 46.8688 86.6781C45.2606 86.4464 43.6523 86.2918 42.1973 85.9056C40.2061 85.3648 38.4447 84.2833 37.2194 82.8154C36.1472 81.5021 35.3814 80.0343 35.5345 77.5622C35.6877 75.7854 36.4535 74.2403 37.5257 73.2361C37.832 72.927 38.2915 72.5408 38.751 72.309C39.5169 72 40.4359 72.927 40.9719 73.3133C41.4314 73.6223 42.1973 74.0858 42.3504 74.4721C42.427 74.8584 42.2739 75.2446 42.2739 75.5537C42.2739 76.7125 42.8099 77.6395 43.4992 78.2575C44.5713 79.2618 46.1796 79.7253 47.7113 80.3433C49.9322 81.2704 52.8423 82.4292 51.9233 85.8283C51.6936 86.7554 51.1575 87.4506 50.5448 88.2232C50.1619 88.7639 49.7024 89.6137 48.9366 89.5365Z" fill="#FFD15F"/>
<path d="M91.3637 89.073C90.6745 87.7597 89.3725 86.0601 87.3048 85.133C85.7731 84.4378 83.782 84.1288 82.2503 84.515C81.944 84.5923 81.7142 84.6695 81.4845 84.7468C81.3313 84.824 81.1016 84.9013 80.9484 84.9013C80.6421 82.8927 80.3357 81.5021 79.7996 80.2661C79.1104 78.6438 78.4212 77.4077 77.6553 76.4034C76.5832 74.9356 75.1281 73.4678 73.1369 71.9227C72.9837 71.7682 72.754 71.6137 72.6008 71.4592C72.2179 71.1502 71.835 70.8412 71.4521 70.6094C68.7717 68.9099 65.4786 68.1373 62.5684 67.5193C58.1266 66.6695 52.7658 66.3605 48.7069 66.824C45.7201 67.133 43.0397 67.9828 40.5125 68.6781C39.2871 69.0644 38.215 69.3734 36.9896 69.6824C35.1516 70.1459 33.7731 70.6094 32.6244 71.2275C30.3269 72.3863 28.2591 74.1631 26.1914 76.5579C25.1192 77.794 24.3534 78.9528 23.7407 80.0343C23.0515 81.2704 22.6686 82.6609 22.2091 84.206C17.7672 83.3562 14.1678 84.9013 11.564 88.764C9.57284 91.7768 8.04117 96.9528 9.41967 101.433C10.1855 103.828 11.1811 105.219 12.7893 106.069C14.321 106.918 16.3887 107.382 18.9926 107.691C21.7496 108 24.8895 108.077 27.3401 108.077C28.4889 108.077 29.6376 108.077 30.863 108.077C32.0117 108.077 33.1605 108.077 34.3092 108.077C36.5301 108.077 38.9042 108 41.891 107.846C42.9631 107.768 44.0353 107.768 45.4904 107.768C46.1796 107.768 46.8689 107.768 47.5581 107.768C50.8512 107.768 54.1443 107.768 57.4373 107.846C60.0412 107.846 62.645 107.923 65.1722 107.923C68.0824 107.923 70.6097 107.923 72.8306 107.846C75.5876 107.768 78.1148 107.536 80.0294 107.227L80.5655 107.15C82.7864 106.841 84.9307 106.609 86.6155 105.991C88.913 105.142 90.215 103.519 90.9042 102.283C91.4403 101.356 91.7466 100.352 91.9764 99.3476C92.2061 98.3434 92.5125 97.1846 92.589 95.9485C92.8188 93.1674 92.3593 90.8498 91.3637 89.073ZM61.8026 106.223C61.4963 106.223 61.1899 106.223 60.9602 106.223C59.5051 106.223 57.9734 106.223 56.5183 106.146C55.3696 106.146 54.2209 106.069 53.0721 106.069C51.2341 106.069 49.3961 106.069 47.6347 106.069C45.8733 106.069 44.1884 106.069 42.5036 106.069H42.427C40.6656 106.069 38.9808 106.146 37.296 106.223C35.6111 106.3 33.7731 106.378 32.0117 106.378H29.7908C27.187 106.378 24.2002 106.378 21.4432 106.223C18.1502 106.069 14.7805 105.682 12.7893 104.292C11.1811 103.133 10.1855 100.429 10.2621 97.4163C10.3387 95.0987 10.8748 92.7811 11.8703 90.927C13.7849 87.2189 16.5419 85.2876 20.0647 85.2876C20.6774 85.2876 21.2901 85.3648 21.9027 85.4421C21.9027 85.6738 21.8262 85.9828 21.8262 86.2918C21.7496 86.7554 21.673 87.2961 21.673 87.8369C21.673 90.0773 22.6686 93.6309 25.1958 93.6309C25.349 93.6309 25.5021 93.6309 25.6553 93.6309C26.4977 93.4764 27.187 92.8584 27.4933 92.0086C28.4123 89.4592 26.7275 86.6781 25.4256 85.5193C25.1192 85.2103 24.6597 84.824 24.1236 84.515C24.0471 84.4378 23.9705 84.4378 23.8939 84.4378C23.8939 84.4378 23.8173 84.4378 23.7407 84.3605C24.5831 80.8841 26.4977 77.8712 29.4845 75.1674C31.5522 73.3906 33.7731 72.1545 36.8365 71.2275C37.2194 71.073 37.6789 70.9957 38.1384 70.9185C38.6745 70.764 39.2871 70.6867 39.8232 70.4549C40.053 70.3777 40.2061 70.3004 40.3593 70.1459C40.4359 70.0687 40.4359 70.0687 40.5125 69.9914C40.589 69.9142 40.6656 69.8369 40.7422 69.8369C40.8188 69.8369 40.972 69.7597 41.1251 69.7597C41.2783 69.7597 41.3549 69.6824 41.508 69.6824C43.6524 69.0644 46.3328 68.3691 49.1664 68.1373C53.455 67.7511 58.5861 67.9828 62.7216 68.8326C63.0279 68.9099 63.3343 68.9871 63.6406 68.9871C64.9425 69.2189 66.1678 69.4506 67.3166 69.8369C70.3799 70.8412 72.3711 72.5408 74.1325 74.1631C76.2768 76.1717 77.5787 78.103 78.6509 80.8069C79.1104 81.8884 79.3401 82.97 79.4933 84.1288C79.4933 84.2833 79.5699 84.4378 79.5699 84.5923C79.6465 84.824 79.6465 85.1331 79.6465 85.2876C79.6465 85.4421 79.2636 85.6738 79.1104 85.7511L79.0338 85.8283C77.8851 86.7554 76.5831 87.9142 75.8173 89.4592C75.511 90.1545 75.2047 91.3906 75.6642 92.2403C75.8939 92.6266 76.2768 92.8584 76.7363 92.9356C77.5787 93.0129 78.1914 92.6266 78.6509 92.2403C79.9528 91.0815 80.7952 88.9185 80.8718 86.4464C81.5611 86.0601 82.0971 85.8283 82.7864 85.7511C83.0927 85.7511 83.3225 85.6738 83.6288 85.6738C87.5345 85.6738 89.4491 88.6094 90.215 90.3863C91.5935 93.4764 91.0574 98.0343 89.9086 100.738C89.4491 101.82 88.6833 102.747 87.458 103.519C86.4624 104.215 85.2371 104.524 83.5522 104.833C79.2636 105.605 74.0559 106.069 68.4653 106.069C66.7805 106.069 65.0957 105.991 63.3343 105.991C63.0279 106.223 62.4153 106.223 61.8026 106.223ZM26.1148 92.0086C25.9616 92.2403 25.7319 92.3949 25.5021 92.3949C24.8129 92.4721 24.2002 91.6996 23.8939 91.0043C23.2812 89.691 23.1281 87.6824 23.4344 86.0601C24.43 86.6009 25.7319 87.7597 26.268 89.3047C26.4977 90.0773 26.4977 91.3133 26.1148 92.0086ZM77.0426 91.6996H76.9661C76.7363 90.8498 77.2724 90 77.8085 89.3047C78.4211 88.5322 79.0338 87.9914 79.5699 87.5279C79.4933 88.6094 79.0338 89.5365 78.7275 90.1545C78.4212 90.8498 77.9616 91.6996 77.0426 91.6996Z" fill="#D6C4CB"/>
<path fill-rule="evenodd" clip-rule="evenodd" d="M64.1767 71.8455C64.6362 72 65.0191 72.5408 65.3255 72.927C66.5508 74.3949 68.0824 77.2532 67.0103 79.9571C66.7039 80.8069 66.0913 81.7339 65.4786 82.3519C64.3299 83.5107 62.645 84.515 61.0368 85.2876C59.352 86.1373 57.5905 86.9099 55.9057 87.5279C55.9057 87.9142 56.1355 88.2232 56.2886 88.6094C56.3652 88.9185 56.595 89.382 56.4418 89.691C56.0589 90.4635 54.6804 89.3047 54.2209 88.9185C53.0721 87.9914 51.8468 86.9099 51.8468 85.0558C51.8468 83.3562 53.1487 82.2747 54.2209 81.5021C54.9867 80.8841 55.9057 80.2661 56.7481 79.7253C57.4374 79.2618 58.2032 78.7983 58.8159 78.3348C59.888 77.4077 60.807 76.7897 60.807 74.9356C60.807 74.3176 60.6539 73.7768 60.8836 73.3906C61.1134 72.8498 62.4919 72.5408 63.1811 72.309C63.4875 72.0773 63.8704 72 64.1767 71.8455Z" fill="#FFD15F"/>
<path fill-rule="evenodd" clip-rule="evenodd" d="M55.7526 23.0215C58.6627 23.3305 60.8071 24.2575 62.2622 25.8798C63.028 26.7296 63.6406 27.9657 64.1767 29.1245C65.8616 32.4464 67.0869 36.618 68.0059 40.6352C68.9249 44.8841 69.8439 48.9013 70.38 53.6137C70.6863 56.5494 71.0692 60.2575 70.5331 63.1931C69.7673 67.5966 67.9293 70.6867 65.1723 73.1588C64.2533 73.9313 63.2577 74.7039 62.109 75.2446C60.9602 75.7854 59.6583 76.1717 58.2798 76.4807C56.9013 76.7897 55.4462 77.0215 53.9146 77.176C52.3829 77.3305 50.6981 77.4077 49.0898 77.2532C45.8733 76.9442 42.9632 76.4807 40.6657 75.5536C39.7467 75.1674 38.9043 74.7039 38.1384 74.1631C34.8454 71.9227 33.0074 68.3691 32.3181 63.4249C31.9352 60.4893 31.9352 56.9356 32.0884 53.6137C32.2415 50.4464 32.7776 47.4335 33.2371 44.4979C33.4669 43.03 33.6966 41.5622 34.0795 40.2489C35.5346 34.9957 37.6789 30.206 41.2018 26.9614C42.1208 26.1116 43.2695 25.6481 44.2651 24.9528C44.0353 22.4034 44.1885 20.1631 44.8778 18.3863C45.7968 15.9914 48.0943 14.5236 50.6981 14.1373C52.3829 13.9056 53.2253 14.9871 53.838 16.2232C54.6038 18.0773 55.2931 20.7039 55.7526 23.0215ZM47.6348 18.4635C47.405 20.1631 47.3284 22.0172 47.2518 23.8712C48.7069 23.4077 50.5449 23.3305 52.2297 23.0987C51.7702 21.1674 51.1576 19.3133 50.6981 17.3047H50.6215C49.7791 17.7682 48.7069 18.0773 47.6348 18.4635Z" fill="#FFD15F"/>
<path fill-rule="evenodd" clip-rule="evenodd" d="M49.3196 84.206C48.2474 83.279 46.7923 82.8154 45.4138 82.5837C44.2651 82.3519 42.5803 82.4292 41.5847 81.5794C40.6657 80.8069 40.8954 79.8026 41.5081 78.8755C41.891 78.2575 42.5037 78.0257 43.1929 77.9485C42.7334 77.3305 42.3505 76.5579 42.3505 75.6309C42.3505 75.3219 42.5037 74.9356 42.4271 74.5494C42.3505 74.1631 41.5081 73.6996 41.0486 73.3906C40.5125 73.0043 39.5169 72.0772 38.8277 72.3863C38.3682 72.5408 37.9087 73.0043 37.6024 73.3133C36.5302 74.3176 35.7644 75.8627 35.6112 77.6395C35.458 80.1116 36.2239 81.5794 37.296 82.8927C38.4448 84.3605 40.2828 85.4421 42.2739 85.9828C43.729 86.3691 45.3373 86.5236 46.9455 86.7554C47.6348 86.8326 48.4772 86.9871 49.0898 87.3734C49.0133 88.0687 48.4772 89.073 49.0133 89.6137C49.7791 89.691 50.2386 88.9185 50.6215 88.3777C50.8512 88.0687 51.081 87.7597 51.3107 87.4506C50.6981 86.2918 50.2386 84.9013 49.3196 84.206Z" fill="#F9A63B"/>
<path fill-rule="evenodd" clip-rule="evenodd" d="M55.9056 88.7639C52.9955 86.9099 54.4506 83.6652 57.9734 82.0429C62.9513 79.8026 63.4874 76.4807 67.1634 76.4807C66.7804 75.0129 66.0146 73.7768 65.3254 72.927C65.019 72.5408 64.6361 72.0773 64.2532 71.9227C64.2532 71.9227 64.2532 71.8455 64.1766 71.8455C63.8703 72 63.4874 72 63.1045 72.1545C62.4152 72.3863 61.0367 72.7725 60.807 73.2361C60.5772 73.6223 60.7304 74.1631 60.7304 74.7811C60.7304 76.6352 59.888 77.2532 58.7392 78.1803C58.1265 78.721 57.3607 79.1073 56.6715 79.5708C55.8291 80.1116 54.9101 80.8069 54.1442 81.3476C53.1486 82.1202 51.7701 83.2017 51.7701 84.9013C51.7701 86.7554 52.9955 87.8369 54.1442 88.7639C54.6037 89.1502 55.9056 90.2318 56.3651 89.5365C56.4417 89.382 56.4417 89.073 56.3651 88.8412C56.212 88.9185 56.0588 88.8412 55.9056 88.7639Z" fill="#F9A63B"/>
<path fill-rule="evenodd" clip-rule="evenodd" d="M44.5713 18.5408C43.9587 20.1631 43.8055 22.1717 44.0352 24.412C45.2606 24.2575 46.2562 23.7167 47.3283 23.176C47.4049 21.5536 47.4815 19.9313 47.6347 18.4635C46.4859 18.5408 45.184 18.618 44.5713 18.5408Z" fill="#F9A63B"/>
<path fill-rule="evenodd" clip-rule="evenodd" d="M55.7526 23.0215C55.3697 20.7039 54.6038 18.1545 53.6848 16.2232C52.919 16.4549 51.9234 16.9185 50.7747 17.2275C51.1576 19.236 51.7702 21.0901 52.3063 23.0215C53.6848 22.9442 54.6804 22.7897 55.7526 23.0215Z" fill="#F9A63B"/>
<path fill-rule="evenodd" clip-rule="evenodd" d="M41.9676 26.1116C41.7378 28.7382 41.8144 31.3648 42.0442 33.9914C42.2739 36.3863 43.0397 39.3219 45.7202 39.9399C47.0221 40.2489 48.2474 40.3262 49.5493 40.2489C52.0766 40.0944 55.0633 40.0172 57.2076 38.5494C59.6583 36.927 59.888 34.6867 59.888 32.1373C59.8115 32.3691 59.7349 32.6009 59.6583 32.8326C58.2798 36.1545 55.2165 36.3863 51.9234 37.0043C49.3962 37.4678 46.1797 37.3133 45.1841 34.2232C44.1885 31.0558 44.1885 28.1202 43.9587 24.7983C43.9587 24.8755 43.9587 24.8755 43.9587 24.9528C43.3461 25.2618 42.6568 25.6481 41.9676 26.1116Z" fill="#F9A63B"/>
<path fill-rule="evenodd" clip-rule="evenodd" d="M55.5994 73.3133C49.7791 74.0086 42.5037 72.8498 39.8998 66.7468C37.5257 61.1845 37.9087 56.3949 38.0618 50.4464C38.215 43.4163 37.296 34.8412 39.9764 27.9657C37.1428 31.2103 35.2282 35.4592 33.9263 40.1717C33.5434 41.5622 33.3137 42.9528 33.0839 44.4206C32.6244 47.3562 32.0883 50.3691 31.9352 53.5365C31.782 56.9356 31.782 60.4893 32.1649 63.3476C32.8542 68.2918 34.7687 71.8455 37.9852 74.0858C38.7511 74.6266 39.5935 75.0901 40.5125 75.4764C42.8866 76.4034 45.7967 76.9442 48.9366 77.176C50.5449 77.3305 52.2297 77.176 53.7614 77.0987C55.293 76.9442 56.8247 76.7124 58.1266 76.4034C59.5051 76.0944 60.807 75.7082 61.9558 75.1674C63.1045 74.6266 64.1001 73.9313 65.0191 73.0815C67.0103 71.3047 68.5419 69.2189 69.5375 66.515C66.0913 70.9957 61.1134 72.618 55.5994 73.3133Z" fill="#F9A63B"/>
<path fill-rule="evenodd" clip-rule="evenodd" d="M58.7393 55.1588C59.5817 56.6266 60.1944 58.0944 59.888 60.0258C59.6583 61.4936 58.8924 63.1931 57.8969 64.1974C57.4374 64.6609 56.8247 65.0472 56.1355 65.4335C55.8291 65.588 55.5228 65.8197 55.2165 66.0515C54.6038 66.3605 53.838 66.5923 53.5316 67.2103C53.3019 67.5193 53.3019 68.2146 52.8424 68.2918C52.3829 68.3691 51.7702 67.2876 51.3107 66.9785C50.5449 66.515 49.7025 66.4378 48.9366 66.1288C46.7923 65.279 44.9543 63.6567 44.7246 60.8755C44.5714 59.0987 45.1075 58.1717 45.7967 56.8584C45.7201 56.7039 45.4138 56.5494 45.4138 56.3176C45.3372 55.9313 46.0265 55.0815 46.2562 54.6953C46.9455 53.6137 47.4816 52.764 48.324 51.9914C48.7835 51.6052 49.243 51.1416 49.779 51.0644C50.7746 50.9099 51.3873 51.3734 51.8468 51.9914C52.3829 51.2961 52.536 51.0644 53.3785 50.7554C53.5316 50.6781 54.0677 50.6781 54.374 50.6781C55.3696 50.8326 56.2886 51.6824 57.0545 52.5322C57.4374 52.9185 57.7437 53.2275 58.2032 53.6137C58.5095 53.9227 59.2754 54.4635 59.2754 54.7725C59.2754 54.927 58.8159 55.0043 58.7393 55.1588Z" fill="white"/>
<path fill-rule="evenodd" clip-rule="evenodd" d="M48.9366 0.0772541C50.0854 -0.309012 50.3917 1.31331 50.3917 2.4721C50.3917 3.4764 50.3151 4.55794 50.2385 5.40773C50.1619 6.18026 50.1619 7.80258 49.5493 7.80258C49.0898 7.80258 48.86 6.25751 48.7835 5.71674C48.5537 4.55794 48.324 3.4764 48.324 2.16309C48.2474 1.39056 48.4771 0.46352 48.9366 0.0772541ZM68.6951 20.9356C68.4653 20.6266 68.7717 20.2403 68.9248 20.0086C70.5331 16.8412 72.2945 13.4421 74.2091 10.4292C74.9749 9.19313 75.8939 7.64807 77.2724 7.18455C77.5787 7.1073 78.1148 7.18455 78.268 7.41631C78.7275 8.03434 78.0382 9.03863 77.7319 9.5794C76.5832 11.4335 75.3578 13.0558 74.0559 14.6781C72.754 16.3777 71.5287 18 70.3033 19.6996C70.1502 19.9313 69.9204 20.2403 69.6907 20.5494C69.3843 20.7811 69.078 21.1674 68.6951 20.9356ZM17.8438 11.0472C18.6097 10.7382 19.6053 11.7425 20.0648 12.206C21.5964 13.6738 22.8217 15.2189 24.1237 16.9185C25.2724 18.3863 26.6509 20.1631 27.9528 21.8627C28.2592 22.2489 28.1826 22.0944 28.5655 22.7124C28.6421 22.7897 29.1016 23.4077 28.7952 23.6395C28.4889 23.9485 28.0294 23.485 27.7997 23.3305C25.8085 21.7082 24.2768 20.1631 22.4388 18.309C20.9072 16.764 19.6053 15.3734 18.2268 13.5193C17.997 13.133 16.7717 11.4335 17.8438 11.0472ZM100.401 36.1545C101.09 36.0773 102.009 36 102.085 36.7725C102.162 37.6996 100.477 38.2403 99.8644 38.4721C97.5669 39.4764 95.0397 40.0172 92.2827 40.867C91.7466 41.0215 90.9042 41.2532 90.751 40.9442C90.5213 40.4807 92.3593 39.6309 92.7422 39.3991C94.5036 38.3948 95.6524 37.6996 97.567 37.0043C98.4094 36.5408 99.3284 36.2318 100.401 36.1545ZM90.215 71.382C90.4447 71.2275 91.4403 71.3047 91.8998 71.3047C94.9631 71.4592 98.7923 71.9227 101.779 72.618C102.775 72.8498 104.077 73.3133 104 74.0858C103.923 75.0129 102.162 74.7811 101.166 74.6266C99.2518 74.3948 97.9499 74.0086 96.1885 73.5451C94.5802 73.1588 92.972 72.7725 91.2871 72.309C90.6745 72.2318 89.296 71.8455 90.215 71.382ZM9.26652 72.6953C9.72602 72.618 11.1045 72.2318 11.2577 72.7725C11.4874 73.3906 9.72602 73.9313 9.11335 74.2403C7.27535 75.0901 5.89686 75.6309 3.90569 76.3262C3.52278 76.4807 2.9867 76.6352 2.5272 76.7897C1.68478 77.0215 0.2297 77.2532 -4.96916e-05 76.4807C-0.382966 75.0901 2.68036 74.2403 3.75253 73.9313C4.51836 73.6996 5.43736 73.3906 6.35636 73.2361C7.27535 73.0043 8.34752 72.8498 9.26652 72.6953ZM1.22528 40.7897C2.14428 40.6352 3.21645 41.0215 4.05886 41.176C5.66711 41.5622 7.19877 42.0257 8.96019 42.6438C9.64943 42.8755 11.1045 43.2618 11.1045 43.6481C11.1045 44.2661 10.1855 44.0343 9.72602 43.9571C8.34752 43.8026 6.96902 43.8026 5.51394 43.4936C4.82469 43.3391 4.21203 43.1845 3.59936 43.1073C2.9867 42.9528 2.29745 42.8755 1.76136 42.6438C1.30186 42.4893 0.382866 41.9485 0.382866 41.4077C0.382866 41.0215 0.842366 40.867 1.22528 40.7897Z" fill="#FFD15F"/>
<path fill-rule="evenodd" clip-rule="evenodd" d="M60.271 36.927C62.3387 33.5279 60.1944 27.5021 59.5052 23.9485C59.352 23.0987 58.0501 23.485 58.2033 24.3348C58.8159 27.2704 59.5052 30.1288 59.5818 33.1416C59.6583 37.2361 56.9779 38.3948 53.5317 39.0129C50.6215 39.5536 44.7246 40.867 43.3461 37.236C42.1974 34.1459 42.1974 29.8197 42.7335 26.5751C42.8866 25.7253 41.6613 25.4163 41.4315 26.1888C40.8955 28.3519 40.8955 30.4378 41.1252 32.6009C41.2784 34.3777 41.355 36.8498 42.274 38.4721C42.81 39.3219 43.4993 39.9399 44.3417 40.3262C44.0354 42.103 43.4993 43.9571 43.9588 45.7339C44.0354 46.0429 44.3417 46.2747 44.5714 46.1974C45.4139 46.1974 46.1797 46.2747 46.9455 46.1974C47.1753 46.1974 47.405 45.9657 47.405 45.7339C47.6348 44.1888 47.7114 42.5665 47.9411 41.0215C49.3196 41.0215 50.6981 40.7897 51.8469 40.6352C52.9956 40.4807 54.1443 40.3262 55.2931 40.0172C55.5228 41.794 55.676 43.6481 56.5184 45.2704C56.6716 45.5021 56.9779 45.6567 57.2843 45.5794C58.1267 45.2704 58.9691 45.1159 59.7349 44.7296C60.0413 44.5751 60.1178 44.2661 60.0413 43.9571C59.6583 42.103 59.2754 40.2489 58.8159 38.3176C59.4286 38.0086 59.8881 37.5451 60.271 36.927ZM46.2563 44.9614C45.8734 44.9614 45.567 44.9614 45.1841 44.8841C45.0309 43.5708 45.4139 42.103 45.6436 40.7897C45.9499 40.8669 46.3329 40.9442 46.6392 40.9442C46.486 42.3348 46.4094 43.6481 46.2563 44.9614ZM58.7393 43.8026C58.3564 43.9571 57.9735 44.0343 57.5906 44.1888C56.9779 42.7983 56.9779 41.2532 56.6716 39.7082C57.0545 39.5536 57.4374 39.3991 57.7438 39.2446C58.0501 40.7124 58.433 42.2575 58.7393 43.8026Z" fill="#CE6F2E"/>
<path fill-rule="evenodd" clip-rule="evenodd" d="M46.869 23.0215C45.7968 23.176 44.6481 23.5622 43.7291 24.103C42.9632 24.5665 43.6525 25.7253 44.4183 25.2618C45.3373 24.721 46.3329 24.6438 47.2519 24.3348C48.0177 24.0258 47.7114 22.867 46.869 23.0215Z" fill="#CE6F2E"/>
<path fill-rule="evenodd" clip-rule="evenodd" d="M55.5229 22.0944C54.2975 22.0944 53.0722 21.8627 51.9234 22.4034C51.2342 22.7124 51.7703 23.7167 52.3829 23.5622C53.3785 23.2532 54.4507 23.485 55.4463 23.485C56.3653 23.485 56.3653 22.0944 55.5229 22.0944Z" fill="#CE6F2E"/>
<path fill-rule="evenodd" clip-rule="evenodd" d="M32.9308 63.5021C32.2415 61.03 32.3947 58.5579 32.3947 56.0086C32.3947 55.1588 31.0928 55.1588 31.0928 56.0086C31.0162 58.6352 30.863 61.2618 31.6289 63.8112C31.8586 64.6609 33.1605 64.2747 32.9308 63.5021Z" fill="#CE6F2E"/>
<path fill-rule="evenodd" clip-rule="evenodd" d="M71.0692 53.8455C70.8395 53.073 69.7673 53.382 69.8439 54.1545C70.3034 56.7039 70.3034 59.0987 70.1502 61.7253C70.0736 62.6524 71.5287 62.6524 71.5287 61.7253C71.6819 59.0987 71.9116 56.3176 71.0692 53.8455Z" fill="#CE6F2E"/>
<path fill-rule="evenodd" clip-rule="evenodd" d="M42.5036 75.4764C40.8188 75.0901 39.2106 74.3176 37.8321 73.1588C37.1428 72.618 36.2238 73.5451 36.9131 74.0858C38.4447 75.3991 40.2061 76.2489 42.1973 76.7124C42.9631 76.9442 43.346 75.6309 42.5036 75.4764Z" fill="#CE6F2E"/>
<path fill-rule="evenodd" clip-rule="evenodd" d="M64.866 72.5408C63.5641 73.4678 62.2622 74.4721 60.654 74.7811C59.8115 74.9356 60.1945 76.2489 61.0369 76.0944C62.7217 75.7854 64.1768 74.7811 65.5553 73.6996C66.1679 73.2361 65.5553 72.0773 64.866 72.5408Z" fill="#CE6F2E"/>
<path fill-rule="evenodd" clip-rule="evenodd" d="M52.6127 83.588C52.5361 82.7382 51.4639 82.8154 51.3874 83.588C51.3108 84.2833 51.2342 84.9785 51.3108 85.6738C51.3874 86.5236 52.6127 86.5236 52.6127 85.6738C52.6127 84.9785 52.6893 84.2833 52.6127 83.588Z" fill="#CE6F2E"/>
<path fill-rule="evenodd" clip-rule="evenodd" d="M51.5404 14.6009C51.1575 14.5236 50.8512 14.6009 50.4682 14.6009C49.6258 14.6781 49.6258 15.8369 50.4682 15.9142C50.8512 15.9142 51.2341 15.9914 51.5404 15.9142C52.1531 15.9142 52.1531 14.7554 51.5404 14.6009Z" fill="white"/>
<path fill-rule="evenodd" clip-rule="evenodd" d="M54.0676 24.4893C52.7657 23.9485 50.9277 24.2575 49.6258 24.6438C48.86 24.8755 49.0131 26.1116 49.779 26.0343C50.4682 25.9571 51.1575 25.8798 51.8467 25.8798C52.536 25.8798 53.2252 25.9571 53.9145 26.0343C54.7569 25.9571 54.7569 24.721 54.0676 24.4893Z" fill="white"/>
<path fill-rule="evenodd" clip-rule="evenodd" d="M56.5183 24.3348C55.9822 24.3348 55.7525 24.7983 55.8291 25.2618V25.3391C55.9822 26.0343 57.0544 26.0343 57.2076 25.3391V25.2618C57.3607 24.7983 57.0544 24.3348 56.5183 24.3348Z" fill="white"/>
<path fill-rule="evenodd" clip-rule="evenodd" d="M66.7039 41.0215C65.7083 37.0043 65.0956 32.5236 63.1045 28.8154C62.7981 28.1974 61.726 28.5837 61.9557 29.3562C63.181 33.3734 63.8703 37.5451 65.1722 41.485C65.4785 42.412 66.9336 42.0257 66.7039 41.0215Z" fill="white"/>
<path fill-rule="evenodd" clip-rule="evenodd" d="M69.3078 63.3476C69.1546 62.4979 67.9293 62.7296 67.8527 63.5021C67.8527 64.1974 67.5464 64.7382 67.3166 65.3562C66.8571 66.2833 68.0825 66.9785 68.6951 66.1288C69.2312 65.3562 69.5376 64.4292 69.3078 63.3476Z" fill="white"/>
<path fill-rule="evenodd" clip-rule="evenodd" d="M50.1619 82.1202C50.0088 81.8112 49.779 81.6567 49.4727 81.5021C48.5537 81.0386 47.7113 82.4292 48.6303 82.8927C48.86 82.97 48.7834 83.0472 49.0132 83.2017C49.779 83.588 50.6214 82.8155 50.1619 82.1202Z" fill="white"/>
<path fill-rule="evenodd" clip-rule="evenodd" d="M65.5552 78.412C65.0957 78.412 64.7894 78.7983 64.7128 79.2618C64.7128 79.3391 64.7128 79.3391 64.7128 79.3391C64.7128 79.3391 64.7128 79.3391 64.7128 79.4163L64.6362 79.5708C64.5596 79.7253 64.483 79.8798 64.3299 80.1116C63.947 80.7296 64.7128 81.5794 65.402 81.1931C66.0147 80.7296 66.321 80.0343 66.321 79.2618C66.3976 78.7983 66.0147 78.412 65.5552 78.412Z" fill="white"/>
<path fill-rule="evenodd" clip-rule="evenodd" d="M22.9749 63.1931C22.8217 62.9614 22.6685 62.7296 22.5154 62.4206C22.1324 61.5708 20.9071 62.1116 21.2134 62.9614C21.3666 63.3476 21.5964 63.7339 21.8261 64.0429C22.4388 64.7382 23.5109 63.9657 22.9749 63.1931Z" fill="white"/>
<path fill-rule="evenodd" clip-rule="evenodd" d="M53.3019 54.618C53.1487 55.3906 52.6892 56.2403 51.9234 56.5494C51.0044 56.8584 50.8512 55.4678 50.5449 54.927C50.2385 54.3863 49.3195 54.618 49.3961 55.2361C49.4727 56.7039 50.3151 58.0944 51.9234 58.0172C53.455 57.9399 54.4506 56.3176 54.6804 55.0043C54.9101 54.1545 53.5316 53.691 53.3019 54.618Z" fill="#7F1D3E"/>
<path fill-rule="evenodd" clip-rule="evenodd" d="M58.6626 54.6953C56.1354 55.6223 53.455 54.0773 52.7657 51.5279C52.6126 50.9871 51.9999 50.9099 51.6936 51.2189C51.5404 51.2189 51.3872 51.2961 51.2341 51.5279C50.3151 53.5365 49.0131 56.7811 46.1796 56.0086C45.3372 55.7768 45.0308 57.0901 45.8732 57.2446C47.2517 57.6309 48.6302 57.0901 49.779 56.3176C50.9277 55.5451 51.4638 54.309 51.9999 53.073C53.3018 55.5451 56.2886 57.0129 59.0455 55.9313C59.8114 55.6223 59.4285 54.3863 58.6626 54.6953Z" fill="#D6C4CB"/>
<path fill-rule="evenodd" clip-rule="evenodd" d="M66.321 47.9742C66.1678 47.1245 64.9425 47.5107 65.0191 48.3605C65.3254 49.9056 65.0191 53.073 63.0279 53.2275C61.1899 53.382 60.7304 50.1373 60.5006 48.9013C60.3475 48.1288 59.1987 48.3605 59.1987 49.0558C59.2753 51.2961 60.5006 54.8498 63.2576 54.618C66.321 54.3863 66.7805 50.2918 66.321 47.9742Z" fill="#7F1D3E"/>
<path fill-rule="evenodd" clip-rule="evenodd" d="M43.4226 50.2918C43.346 51.6824 43.0397 55.6223 40.8188 55.1588C39.2105 54.7725 38.9808 51.6052 38.5213 50.3691C38.2915 49.7511 37.1428 49.7511 37.2194 50.5236C37.5257 52.5322 38.2915 56.3949 40.8188 56.6266C44.1118 56.9356 44.5713 52.6867 44.6479 50.2918C44.7245 49.4421 43.4226 49.4421 43.4226 50.2918Z" fill="#7F1D3E"/>
<path fill-rule="evenodd" clip-rule="evenodd" d="M84.3947 55.5451C84.3947 56.1631 84.3947 56.7811 84.1649 57.3991C84.0117 57.7854 84.3181 58.2489 84.701 58.4034C85.1605 58.5579 85.4668 58.2489 85.62 57.8627C85.9263 57.1674 85.9263 56.3176 85.8497 55.6223C85.8497 54.5408 84.3947 54.5408 84.3947 55.5451Z" fill="white"/>
</g>
<defs>
<clipPath id="clip0_346_662">
<rect width="104" height="108" fill="white"/>
</clipPath>
</defs>
</svg>
