<svg width="223" height="187" viewBox="0 0 223 187" fill="none" xmlns="http://www.w3.org/2000/svg">
<g clip-path="url(#clip0_335_9492)">
<path d="M86.7265 66.5421C87.029 66.3908 87.4827 66.1387 87.7852 65.5841C88.1381 65.0296 88.239 64.475 88.239 63.9204C88.239 62.7608 87.8861 61.8533 87.0794 61.0971C86.1215 60.24 84.9619 59.9879 83.0965 59.9879H80.979V74.1549H84.5586C85.6677 74.1549 87.4323 73.9533 88.5919 72.7937C89.2977 72.0879 89.5498 71.2812 89.5498 70.2225C89.5498 69.3654 89.3986 68.357 88.5919 67.5504C87.8861 66.8446 86.9786 66.5925 86.7265 66.5421ZM83.1469 62.0046H83.9032C84.5082 62.0046 85.1636 62.055 85.6677 62.5592C86.1215 62.9625 86.1719 63.5171 86.1719 63.9204C86.1719 64.4246 86.1215 65.08 85.6173 65.5337C85.1132 66.0379 84.3569 66.0883 83.8527 66.0883H83.1973V62.0046H83.1469ZM86.6761 71.5837C86.1215 72.0375 85.1132 72.1383 84.5082 72.1383H83.1973V67.9033H84.5586C85.3148 67.9033 86.2223 67.9537 86.8273 68.5587C87.1802 68.9116 87.4323 69.4662 87.4323 70.0712C87.3819 70.6258 87.0794 71.2308 86.6761 71.5837Z" fill="#007EA7"/>
<path d="M98.5238 66.2394C97.6667 65.1302 96.5071 64.9789 95.8517 64.9789C93.4821 64.9789 91.415 66.7435 91.415 69.6677C91.415 72.1381 93.0284 74.4068 95.8013 74.4068C96.4567 74.4068 97.5659 74.2556 98.5238 73.1968V74.1547H100.641V65.231H98.5238V66.2394ZM96.1038 72.5918C94.5913 72.5918 93.5829 71.281 93.5829 69.7181C93.5829 68.1048 94.5913 66.8444 96.1038 66.8444C97.4146 66.8444 98.675 67.8023 98.675 69.7181C98.675 71.6339 97.4146 72.5918 96.1038 72.5918Z" fill="#007EA7"/>
<path d="M109.162 68.5081H105.431V65.231H103.314V74.1547H105.431V70.4239H109.162V74.1547H111.279V65.231H109.162V68.5081Z" fill="#007EA7"/>
<path d="M121.514 65.231H114.707V68.7602C114.707 69.8693 114.606 70.5752 114.354 71.1297C114.052 71.6843 113.497 72.2389 112.691 72.2893V76.7764H114.606V74.2052H120.959V76.7764H122.875V72.2893H121.514V65.231ZM119.396 72.2389H115.665C116.22 71.8356 116.724 71.0289 116.724 69.5164V67.1468H119.396V72.2389Z" fill="#007EA7"/>
<path d="M129.227 64.9789C128.32 64.9789 127.312 65.2814 126.555 66.1889V65.231H124.438V79.0451H126.555V73.096C127.513 74.2556 128.774 74.4068 129.278 74.4068C131.446 74.4068 133.664 72.6422 133.664 69.6173C133.614 66.7939 131.597 64.9789 129.227 64.9789ZM128.925 72.5918C127.614 72.5918 126.354 71.6339 126.354 69.7685C126.354 67.8023 127.564 66.8948 128.925 66.8948C130.437 66.8948 131.446 68.1552 131.446 69.7685C131.446 71.281 130.488 72.5918 128.925 72.5918Z" fill="#007EA7"/>
<path d="M139.664 64.9789C136.941 64.9789 134.824 66.9452 134.824 69.7181C134.824 72.4406 136.941 74.4572 139.664 74.4572C142.386 74.4572 144.504 72.4406 144.504 69.7181C144.504 66.9452 142.437 64.9789 139.664 64.9789ZM139.664 72.5918C138 72.5918 136.992 71.4827 136.992 69.7181C136.992 67.7014 138.353 66.8444 139.664 66.8444C140.975 66.8444 142.336 67.651 142.336 69.7181C142.386 71.4323 141.328 72.5918 139.664 72.5918Z" fill="#007EA7"/>
<path d="M149.898 70.4239L147.277 65.231H144.756L148.638 72.7431L145.31 79.0451H147.68L154.889 65.231H152.52L149.898 70.4239Z" fill="#007EA7"/>
<path d="M164.267 65.231H161.444L158.469 68.4073V65.231H156.352V74.1547H158.469V70.8272L158.772 70.4743L161.797 74.1547H164.469L160.284 69.1131L164.267 65.231Z" fill="#007EA7"/>
<path d="M167.947 65.231H165.83V74.2052H167.947V65.231Z" fill="#007EA7"/>
<path d="M166.889 62.8613C167.645 62.8613 168.25 62.3067 168.25 61.5C168.25 60.7438 167.645 60.1388 166.889 60.1388C166.132 60.1388 165.527 60.6934 165.527 61.5C165.578 62.2563 166.132 62.8613 166.889 62.8613Z" fill="#007EA7"/>
<path d="M154.839 60.9456H144.806V62.8614H154.839V60.9456Z" fill="#007EA7"/>
<path d="M70.9965 78.7931L67.9715 74.5077C67.8707 74.4068 67.7698 74.2556 67.669 74.1043H72.9123V59.4331C72.9123 55.6015 70.8956 53.1815 67.5177 52.9294V52.4253C67.5177 50.6103 66.2573 49.3499 64.4423 49.3499H61.9719C60.1569 49.3499 58.8965 50.6103 58.8965 52.4253V52.9294C55.4682 53.1815 53.4515 55.5511 53.4515 59.4331V74.1548H60.409C60.1065 74.6085 59.7536 74.9614 59.4511 75.1127L53.2499 78.7931L55.0649 81.6164L56.6782 80.6081L55.922 79.4485L60.409 76.7764C61.1148 76.3227 61.9719 75.5664 62.5265 74.1548C64.8457 74.1043 65.9548 75.0623 66.3582 75.6673L70.5427 81.566L73.2148 79.5493L72.0552 78.0368L70.9965 78.7931ZM60.7619 52.4253C60.7619 51.669 61.1653 51.2657 61.9215 51.2657H64.3919C65.3498 51.2657 65.5515 51.9211 65.5515 52.4253V52.9294H60.7619V52.4253ZM58.9469 54.8452C59.0982 54.8452 59.2494 54.8452 59.4511 54.8452H66.9127C67.064 54.8452 67.2657 54.8452 67.4169 54.8452V58.9794C67.4169 60.2902 66.6102 61.0969 65.249 61.0969H61.1148C59.7536 61.0969 58.9469 60.3406 58.9469 58.9794V54.8452ZM55.3674 72.2389V59.4331C55.3674 57.9711 55.7203 56.3577 57.0311 55.4502V58.9794C57.0311 60.5423 57.6865 61.7523 58.8461 62.4077V64.5252H60.7619V62.9623C60.8628 62.9623 61.014 62.9623 61.1148 62.9623H65.249C65.3498 62.9623 65.5011 62.9623 65.6019 62.9623V64.5252H67.5177V62.3573C68.6269 61.6515 69.3327 60.4415 69.3327 58.929V55.3998C70.4419 56.1057 70.9965 57.4165 70.9965 59.3827V72.1885H55.3674V72.2389Z" fill="#007EA7"/>
</g>
<rect x="32.7499" y="37.8499" width="156" height="56" rx="8.5" stroke="#007EA7" stroke-width="3"/>
<path d="M104.777 111.295V109.69H115.676V111.295H104.777ZM104.777 116.088V114.483H115.676V116.088H104.777Z" fill="black"/>
<rect x="32.7499" y="128.85" width="156" height="56" rx="8.5" stroke="#007EA7" stroke-width="3"/>
<path d="M70.6298 161.35H68.5175V153.119H64.8397V161.35H62.7206V151.356H70.6298V161.35ZM71.8944 153.707H74.1776L75.62 158.007C75.743 158.381 75.8274 158.823 75.8729 159.333H75.9139C75.9641 158.864 76.0621 158.422 76.2079 158.007L77.6229 153.707H79.8583L76.6249 162.327C76.3287 163.125 75.9048 163.722 75.3534 164.118C74.8065 164.515 74.1662 164.713 73.4325 164.713C73.0725 164.713 72.7193 164.674 72.3729 164.597V162.943C72.6236 163.002 72.897 163.031 73.1932 163.031C73.5624 163.031 73.8837 162.918 74.1571 162.69C74.4351 162.466 74.6516 162.127 74.8065 161.671L74.9296 161.295L71.8944 153.707ZM87.2821 153.707V155.273H84.7802V161.35H82.6952V155.273H80.1864V153.707H87.2821ZM91.8759 155.047C91.4338 155.047 91.0874 155.188 90.8368 155.471C90.5861 155.749 90.4426 156.145 90.4061 156.66H93.3319C93.3228 156.145 93.1884 155.749 92.9286 155.471C92.6688 155.188 92.3179 155.047 91.8759 155.047ZM92.1698 161.487C90.9393 161.487 89.9777 161.147 89.285 160.468C88.5923 159.789 88.246 158.827 88.246 157.583C88.246 156.303 88.565 155.314 89.203 154.616C89.8456 153.915 90.732 153.564 91.8622 153.564C92.9423 153.564 93.7831 153.871 94.3846 154.487C94.9862 155.102 95.287 155.952 95.287 157.036V158.048H90.3583C90.3811 158.641 90.5565 159.103 90.8846 159.436C91.2128 159.768 91.6731 159.935 92.2655 159.935C92.7258 159.935 93.161 159.887 93.5712 159.791C93.9813 159.696 94.4097 159.543 94.8563 159.333V160.947C94.4917 161.129 94.1021 161.263 93.6874 161.35C93.2727 161.441 92.7668 161.487 92.1698 161.487ZM108.364 161.35H96.9823V153.707H99.0673V159.784H101.631V153.707H103.716V159.784H106.279V153.707H108.364V161.35ZM113.724 155.047C113.281 155.047 112.935 155.188 112.684 155.471C112.434 155.749 112.29 156.145 112.254 156.66H115.18C115.17 156.145 115.036 155.749 114.776 155.471C114.516 155.188 114.166 155.047 113.724 155.047ZM114.017 161.487C112.787 161.487 111.825 161.147 111.133 160.468C110.44 159.789 110.094 158.827 110.094 157.583C110.094 156.303 110.413 155.314 111.051 154.616C111.693 153.915 112.58 153.564 113.71 153.564C114.79 153.564 115.631 153.871 116.232 154.487C116.834 155.102 117.135 155.952 117.135 157.036V158.048H112.206C112.229 158.641 112.404 159.103 112.732 159.436C113.06 159.768 113.521 159.935 114.113 159.935C114.573 159.935 115.009 159.887 115.419 159.791C115.829 159.696 116.257 159.543 116.704 159.333V160.947C116.339 161.129 115.95 161.263 115.535 161.35C115.12 161.441 114.614 161.487 114.017 161.487ZM121.933 161.487C119.555 161.487 118.365 160.181 118.365 157.57C118.365 156.271 118.689 155.28 119.336 154.596C119.983 153.908 120.91 153.564 122.118 153.564C123.002 153.564 123.795 153.737 124.497 154.083L123.882 155.697C123.554 155.564 123.248 155.457 122.966 155.375C122.683 155.289 122.401 155.245 122.118 155.245C121.033 155.245 120.491 156.016 120.491 157.556C120.491 159.051 121.033 159.798 122.118 159.798C122.519 159.798 122.891 159.746 123.232 159.641C123.574 159.531 123.916 159.363 124.258 159.135V160.919C123.92 161.133 123.579 161.281 123.232 161.364C122.891 161.446 122.458 161.487 121.933 161.487ZM132.358 153.707V155.273H129.856V161.35H127.771V155.273H125.263V153.707H132.358ZM140.842 155.71C140.842 156.12 140.712 156.471 140.452 156.763C140.197 157.05 139.819 157.235 139.317 157.317V157.371C139.86 157.435 140.288 157.622 140.602 157.932C140.921 158.237 141.081 158.615 141.081 159.067C141.081 159.809 140.789 160.377 140.206 160.769C139.623 161.156 138.789 161.35 137.704 161.35H133.787V153.707H137.704C138.752 153.707 139.536 153.878 140.056 154.22C140.58 154.557 140.842 155.054 140.842 155.71ZM138.921 158.957C138.921 158.656 138.805 158.44 138.572 158.308C138.34 158.171 137.991 158.103 137.526 158.103H135.872V159.907H137.567C138.009 159.907 138.344 159.825 138.572 159.661C138.805 159.493 138.921 159.258 138.921 158.957ZM138.729 155.874C138.729 155.409 138.36 155.177 137.622 155.177H135.872V156.688H137.383C137.825 156.688 138.16 156.624 138.388 156.496C138.615 156.369 138.729 156.161 138.729 155.874ZM144.759 153.707V156.729C144.759 157.048 144.706 157.827 144.601 159.067L148.129 153.707H150.638V161.35H148.621V158.301C148.621 157.759 148.667 156.993 148.758 156.004L145.244 161.35H142.742V153.707H144.759ZM153.994 161.35H151.738L153.796 158.328C153.304 158.123 152.93 157.827 152.675 157.44C152.424 157.052 152.299 156.597 152.299 156.073C152.299 155.334 152.574 154.755 153.126 154.336C153.682 153.917 154.438 153.707 155.395 153.707H158.95V161.35H156.865V158.506H155.717L153.994 161.35ZM154.343 156.086C154.343 156.405 154.468 156.656 154.719 156.838C154.969 157.016 155.297 157.105 155.703 157.105H156.865V155.177H155.436C155.095 155.177 154.826 155.261 154.63 155.43C154.438 155.594 154.343 155.813 154.343 156.086Z" fill="#007EA7"/>
<g clip-path="url(#clip1_335_9492)">
<path d="M21.2499 4.34985H11.2499L10.2499 1.34985H3.24988C2.14988 1.34985 1.24988 2.24985 1.24988 3.34985V18.3499C1.24988 19.4499 2.14988 20.3499 3.24988 20.3499H11.2499L12.2499 23.3499H21.2499C22.3499 23.3499 23.2499 22.4499 23.2499 21.3499V6.34985C23.2499 5.24985 22.3499 4.34985 21.2499 4.34985ZM7.24988 16.3499C4.48988 16.3499 2.24988 14.1099 2.24988 11.3499C2.24988 8.58985 4.48988 6.34985 7.24988 6.34985C8.59988 6.34985 9.72988 6.84985 10.5999 7.64985L9.27988 8.91985C8.89988 8.55985 8.23988 8.13985 7.24988 8.13985C5.50988 8.13985 4.09988 9.57985 4.09988 11.3499C4.09988 13.1199 5.50988 14.5599 7.24988 14.5599C9.25988 14.5599 10.0899 13.1199 10.1699 12.1499H7.24988V10.4399H11.9299C11.9999 10.7499 12.0499 11.0499 12.0499 11.4599C12.0499 14.3199 10.1399 16.3499 7.24988 16.3499ZM13.4199 10.9299H17.1199C16.6899 12.1799 16.0099 13.3599 15.0699 14.3999C14.7599 14.0499 14.4699 13.6799 14.2099 13.2999L13.4199 10.9299ZM21.7499 20.8499C21.7499 21.3999 21.2999 21.8499 20.7499 21.8499H14.2499L16.2499 19.3499L15.2099 16.2499L18.3099 19.3499L19.2299 18.4299L15.9299 15.1799L15.9499 15.1599C17.0799 13.9099 17.8799 12.4699 18.3499 10.9399H20.2499V9.63985H15.7199V8.34985H14.4299V9.63985H12.9899L11.7099 5.84985H20.7499C21.2999 5.84985 21.7499 6.29985 21.7499 6.84985V20.8499Z" fill="black"/>
</g>
<path d="M43.1483 14.4377C43.1483 15.4312 42.8521 16.165 42.2596 16.6389C41.6718 17.1129 40.7831 17.3499 39.5936 17.3499H36.6678V7.35571H42.5604V8.38794H37.83V11.6213H39.3817C40.2613 11.6213 40.9768 11.7239 41.5282 11.929C42.0796 12.1295 42.4875 12.428 42.7518 12.8245C43.0162 13.2209 43.1483 13.7587 43.1483 14.4377ZM37.83 16.345H39.4637C40.3296 16.345 40.9585 16.1969 41.3505 15.9006C41.7469 15.6044 41.9452 15.1168 41.9452 14.4377C41.9452 13.7906 41.7447 13.3303 41.3436 13.0569C40.9426 12.7834 40.243 12.6467 39.245 12.6467H37.83V16.345ZM48.2479 17.4866C47.1405 17.4866 46.2655 17.1493 45.6229 16.4749C44.9849 15.8004 44.6659 14.8639 44.6659 13.6653C44.6659 12.4576 44.9621 11.4983 45.5546 10.7874C46.1516 10.0764 46.9514 9.72095 47.954 9.72095C48.8928 9.72095 49.6356 10.0308 50.1825 10.6506C50.7294 11.2659 51.0028 12.0793 51.0028 13.0911V13.8088H45.8417C45.8645 14.6884 46.0855 15.356 46.5048 15.8118C46.9286 16.2675 47.5233 16.4954 48.2889 16.4954C49.0956 16.4954 49.8931 16.3267 50.6815 15.9895V17.0012C50.2805 17.1744 49.8999 17.2974 49.5399 17.3704C49.1844 17.4478 48.7538 17.4866 48.2479 17.4866ZM47.9403 10.6711C47.3387 10.6711 46.858 10.8671 46.4979 11.259C46.1425 11.651 45.9328 12.1933 45.869 12.886H49.786C49.786 12.1705 49.6265 11.6236 49.3075 11.2454C48.9885 10.8625 48.5328 10.6711 47.9403 10.6711ZM58.5292 17.3499H57.3807V10.8284H55.1317C55.0087 12.4508 54.8378 13.7382 54.619 14.6907C54.4003 15.6431 54.1154 16.3404 53.7645 16.7825C53.4182 17.2245 52.9761 17.4456 52.4384 17.4456C52.1923 17.4456 51.9963 17.4182 51.8505 17.3635V16.5227C51.9507 16.55 52.0647 16.5637 52.1923 16.5637C52.7163 16.5637 53.1333 16.01 53.4432 14.9026C53.7531 13.7952 53.9878 12.1135 54.1473 9.85767H58.5292V17.3499ZM67.4091 13.5969C67.4091 14.8183 67.1014 15.773 66.4862 16.4612C65.871 17.1448 65.021 17.4866 63.9364 17.4866C63.2665 17.4866 62.6718 17.3293 62.1522 17.0149C61.6327 16.7004 61.2316 16.2493 60.9491 15.6614C60.6665 15.0735 60.5253 14.3853 60.5253 13.5969C60.5253 12.3756 60.8306 11.4254 61.4413 10.7463C62.052 10.0627 62.8996 9.72095 63.9843 9.72095C65.0324 9.72095 65.8641 10.0696 66.4794 10.7668C67.0992 11.4641 67.4091 12.4075 67.4091 13.5969ZM61.701 13.5969C61.701 14.554 61.8925 15.2831 62.2753 15.7844C62.6581 16.2857 63.2209 16.5364 63.9637 16.5364C64.7066 16.5364 65.2694 16.288 65.6522 15.7913C66.0396 15.29 66.2333 14.5585 66.2333 13.5969C66.2333 12.6444 66.0396 11.9221 65.6522 11.4299C65.2694 10.9332 64.702 10.6848 63.9501 10.6848C63.2072 10.6848 62.6467 10.9286 62.2684 11.4163C61.8902 11.9039 61.701 12.6308 61.701 13.5969ZM72.8915 17.4866C72.4038 17.4866 71.9572 17.3977 71.5516 17.22C71.1506 17.0377 70.8134 16.7597 70.5399 16.386H70.4579C70.5126 16.8235 70.5399 17.2382 70.5399 17.6301V20.7131H69.4052V9.85767H70.328L70.4852 10.8831H70.5399C70.8316 10.4729 71.1711 10.1767 71.5585 9.99438C71.9458 9.81209 72.3902 9.72095 72.8915 9.72095C73.885 9.72095 74.6506 10.0605 75.1884 10.7395C75.7307 11.4185 76.0018 12.371 76.0018 13.5969C76.0018 14.8274 75.7261 15.7844 75.1747 16.468C74.6278 17.1471 73.8667 17.4866 72.8915 17.4866ZM72.7274 10.6848C71.9618 10.6848 71.4081 10.8967 71.0663 11.3206C70.7245 11.7444 70.549 12.4189 70.5399 13.344V13.5969C70.5399 14.6497 70.7154 15.4039 71.0663 15.8596C71.4172 16.3108 71.98 16.5364 72.7548 16.5364C73.4019 16.5364 73.9078 16.2743 74.2723 15.7502C74.6415 15.2262 74.826 14.5038 74.826 13.5833C74.826 12.649 74.6415 11.9335 74.2723 11.4368C73.9078 10.9355 73.3928 10.6848 72.7274 10.6848ZM76.8016 9.85767H78.0184L79.6591 14.1301C80.0191 15.1054 80.2424 15.8095 80.329 16.2424H80.3837C80.4429 16.01 80.566 15.6135 80.7528 15.053C80.9442 14.4879 81.564 12.7561 82.6122 9.85767H83.829L80.6093 18.3889C80.2902 19.232 79.9165 19.829 79.4882 20.1799C79.0643 20.5354 78.5425 20.7131 77.9227 20.7131C77.5764 20.7131 77.2346 20.6744 76.8973 20.5969V19.6877C77.148 19.7424 77.4283 19.7698 77.7382 19.7698C78.5175 19.7698 79.0734 19.3323 79.4061 18.4573L79.8231 17.3909L76.8016 9.85767ZM88.0399 17.4866C86.9553 17.4866 86.1145 17.1539 85.5175 16.4885C84.925 15.8186 84.6288 14.873 84.6288 13.6516C84.6288 12.3984 84.9296 11.4299 85.5311 10.7463C86.1372 10.0627 86.9986 9.72095 88.1151 9.72095C88.4751 9.72095 88.8352 9.75968 89.1952 9.83716C89.5552 9.91463 89.8378 10.0058 90.0428 10.1106L89.6942 11.0745C89.4436 10.9742 89.1701 10.8922 88.8739 10.8284C88.5777 10.76 88.3156 10.7258 88.0878 10.7258C86.5656 10.7258 85.8046 11.6965 85.8046 13.6379C85.8046 14.5585 85.9891 15.2649 86.3583 15.7571C86.732 16.2493 87.2834 16.4954 88.0126 16.4954C88.6369 16.4954 89.2772 16.3609 89.9335 16.092V17.0969C89.4322 17.3567 88.801 17.4866 88.0399 17.4866ZM94.7118 17.4866C93.6272 17.4866 92.7863 17.1539 92.1893 16.4885C91.5969 15.8186 91.3007 14.873 91.3007 13.6516C91.3007 12.3984 91.6014 11.4299 92.203 10.7463C92.8091 10.0627 93.6705 9.72095 94.787 9.72095C95.147 9.72095 95.507 9.75968 95.8671 9.83716C96.2271 9.91463 96.5096 10.0058 96.7147 10.1106L96.3661 11.0745C96.1154 10.9742 95.842 10.8922 95.5458 10.8284C95.2496 10.76 94.9875 10.7258 94.7596 10.7258C93.2375 10.7258 92.4764 11.6965 92.4764 13.6379C92.4764 14.5585 92.661 15.2649 93.0302 15.7571C93.4038 16.2493 93.9553 16.4954 94.6844 16.4954C95.3088 16.4954 95.9491 16.3609 96.6053 16.092V17.0969C96.104 17.3567 95.4729 17.4866 94.7118 17.4866ZM102.758 9.85767H104.002L100.768 13.4739L104.268 17.3499H102.942L99.5243 13.5559V17.3499H98.3895V9.85767H99.5243V13.5012L102.758 9.85767ZM106.729 9.85767V14.6086L106.682 15.8528L106.661 16.2424L110.715 9.85767H112.13V17.3499H111.07V12.7698L111.091 11.8674L111.125 10.9788L107.078 17.3499H105.663V9.85767H106.729ZM115.602 9.85767V14.6086L115.555 15.8528L115.534 16.2424L119.588 9.85767H121.003V17.3499H119.943V12.7698L119.964 11.8674L119.998 10.9788L115.951 17.3499H114.536V9.85767H115.602ZM117.742 8.86646C116.899 8.86646 116.284 8.70467 115.896 8.3811C115.509 8.05298 115.293 7.51522 115.247 6.76782H116.313C116.354 7.24178 116.477 7.57218 116.682 7.75903C116.892 7.94588 117.254 8.03931 117.769 8.03931C118.239 8.03931 118.585 7.93905 118.808 7.73853C119.036 7.538 119.175 7.21444 119.225 6.76782H120.299C120.244 7.48787 120.014 8.0188 119.608 8.3606C119.203 8.69784 118.581 8.86646 117.742 8.86646Z" fill="black"/>
<g clip-path="url(#clip2_335_9492)">
<path d="M148.24 10.3499L155.25 10.3499L155.25 8.34985L148.24 8.34985L148.24 5.34985L144.25 9.34985L148.24 13.3499L148.24 10.3499ZM142.26 11.3499L142.26 14.3499L135.25 14.3499L135.25 16.3499L142.26 16.3499L142.26 19.3499L146.25 15.3499L142.26 11.3499Z" fill="black"/>
</g>
<path d="M176.034 10.2678C176.034 11.2795 175.688 12.0588 174.995 12.6057C174.307 13.148 173.32 13.4192 172.035 13.4192H170.859V17.3499H169.697V7.35571H172.288C174.785 7.35571 176.034 8.32642 176.034 10.2678ZM170.859 12.4211H171.905C172.935 12.4211 173.68 12.2548 174.141 11.9221C174.601 11.5894 174.831 11.0562 174.831 10.3225C174.831 9.6617 174.614 9.16951 174.182 8.84595C173.749 8.52238 173.074 8.3606 172.158 8.3606H170.859V12.4211ZM176.772 9.85767H177.989L179.63 14.1301C179.99 15.1054 180.213 15.8095 180.3 16.2424H180.354C180.414 16.01 180.537 15.6135 180.724 15.053C180.915 14.4879 181.535 12.7561 182.583 9.85767H183.8L180.58 18.3889C180.261 19.232 179.887 19.829 179.459 20.1799C179.035 20.5354 178.513 20.7131 177.893 20.7131C177.547 20.7131 177.205 20.6744 176.868 20.5969V19.6877C177.119 19.7424 177.399 19.7698 177.709 19.7698C178.488 19.7698 179.044 19.3323 179.377 18.4573L179.794 17.3909L176.772 9.85767ZM188.011 17.4866C186.926 17.4866 186.085 17.1539 185.488 16.4885C184.896 15.8186 184.599 14.873 184.599 13.6516C184.599 12.3984 184.9 11.4299 185.502 10.7463C186.108 10.0627 186.969 9.72095 188.086 9.72095C188.446 9.72095 188.806 9.75968 189.166 9.83716C189.526 9.91463 189.808 10.0058 190.014 10.1106L189.665 11.0745C189.414 10.9742 189.141 10.8922 188.845 10.8284C188.548 10.76 188.286 10.7258 188.058 10.7258C186.536 10.7258 185.775 11.6965 185.775 13.6379C185.775 14.5585 185.96 15.2649 186.329 15.7571C186.703 16.2493 187.254 16.4954 187.983 16.4954C188.608 16.4954 189.248 16.3609 189.904 16.092V17.0969C189.403 17.3567 188.772 17.4866 188.011 17.4866ZM194.682 17.4866C193.598 17.4866 192.757 17.1539 192.16 16.4885C191.568 15.8186 191.271 14.873 191.271 13.6516C191.271 12.3984 191.572 11.4299 192.174 10.7463C192.78 10.0627 193.641 9.72095 194.758 9.72095C195.118 9.72095 195.478 9.75968 195.838 9.83716C196.198 9.91463 196.48 10.0058 196.685 10.1106L196.337 11.0745C196.086 10.9742 195.813 10.8922 195.516 10.8284C195.22 10.76 194.958 10.7258 194.73 10.7258C193.208 10.7258 192.447 11.6965 192.447 13.6379C192.447 14.5585 192.632 15.2649 193.001 15.7571C193.375 16.2493 193.926 16.4954 194.655 16.4954C195.28 16.4954 195.92 16.3609 196.576 16.092V17.0969C196.075 17.3567 195.444 17.4866 194.682 17.4866ZM202.728 9.85767H203.973L200.739 13.4739L204.239 17.3499H202.913L199.495 13.5559V17.3499H198.36V9.85767H199.495V13.5012L202.728 9.85767ZM206.7 9.85767V14.6086L206.652 15.8528L206.632 16.2424L210.685 9.85767H212.1V17.3499H211.041V12.7698L211.061 11.8674L211.096 10.9788L207.049 17.3499H205.634V9.85767H206.7ZM215.573 9.85767V14.6086L215.525 15.8528L215.505 16.2424L219.558 9.85767H220.974V17.3499H219.914V12.7698L219.934 11.8674L219.969 10.9788L215.922 17.3499H214.507V9.85767H215.573ZM217.713 8.86646C216.87 8.86646 216.254 8.70467 215.867 8.3811C215.48 8.05298 215.263 7.51522 215.218 6.76782H216.284C216.325 7.24178 216.448 7.57218 216.653 7.75903C216.863 7.94588 217.225 8.03931 217.74 8.03931C218.21 8.03931 218.556 7.93905 218.779 7.73853C219.007 7.538 219.146 7.21444 219.196 6.76782H220.269C220.215 7.48787 219.985 8.0188 219.579 8.3606C219.173 8.69784 218.551 8.86646 217.713 8.86646Z" fill="black"/>
<defs>
<clipPath id="clip0_335_9492">
<rect width="115" height="32.2665" fill="white" transform="translate(53.2499 49.3499)"/>
</clipPath>
<clipPath id="clip1_335_9492">
<rect width="24" height="24" fill="white" transform="translate(0.249878 0.349854)"/>
</clipPath>
<clipPath id="clip2_335_9492">
<rect width="24" height="24" fill="white" transform="translate(157.25 24.3499) rotate(-180)"/>
</clipPath>
</defs>
</svg>
