<svg width="133" height="118" viewBox="0 0 133 118" fill="none" xmlns="http://www.w3.org/2000/svg">
<path fill-rule="evenodd" clip-rule="evenodd" d="M63.399 60.1932C63.2343 53.4887 63.0938 46.7377 62.5921 40.047C62.2224 35.127 61.5042 30.1266 58.7581 25.9487C56.4978 22.5098 52.6015 20.4906 47.8687 19.9029C43.3576 19.3468 35.2735 20.2306 33.3966 14.8571C32.8326 13.6107 31.4468 13.7418 31.1395 14.7429C29.4675 20.2042 22.1217 19.4345 16.6991 20.2147C11.735 20.9283 7.93899 22.7022 4.9848 26.8188C2.06757 30.8878 1.44441 36.3628 1.08108 41.2183C0.578327 47.9376 0.546641 54.7425 0.210769 61.4808C-0.174744 69.198 -0.0691244 76.8772 0.843433 84.5648C1.38632 89.1529 2.40767 94.3837 5.37665 98.1006C8.31077 101.77 12.0603 103.153 16.6463 103.381C22.9487 103.695 30.4625 101.754 33.3575 109.022C33.6828 109.834 35.9589 109.908 36.0371 108.35C36.3233 102.644 45.8703 102.45 49.7001 102.152C54.0876 101.81 57.873 100.167 60.4892 96.5868C63.173 92.91 63.305 87.5967 63.4402 83.2338C63.6779 75.561 63.5849 67.866 63.399 60.1932Z" fill="#00A7A4"/>
<path fill-rule="evenodd" clip-rule="evenodd" d="M25.8232 29.7498C25.7159 28.6896 24.1489 28.6715 24.1089 29.7498C24.0132 32.3749 23.9428 35.0191 23.9144 37.6675C23.8166 37.6325 23.7167 37.5964 23.5947 37.5825C21.8236 37.4189 20.0147 37.4625 18.2395 37.4296C16.8123 37.4062 15.2369 37.2787 13.8571 37.676C13.8465 35.1487 13.774 32.6352 13.5784 30.1493C13.4869 28.9828 11.781 28.9892 11.7158 30.1493C11.332 37.1682 11.2352 44.3603 11.6054 51.3942C11.6717 52.6424 13.5794 52.6424 13.6015 51.3942C13.6741 47.4146 13.8297 43.3554 13.855 39.3131C15.3063 39.5065 16.8092 39.3652 18.2721 39.3864C20.0473 39.4119 21.8583 39.5904 23.6273 39.447C23.7324 39.4364 23.8166 39.4013 23.9018 39.3726C23.8828 43.5243 23.967 47.6781 24.2141 51.7936C24.2909 53.0376 26.1724 53.0376 26.205 51.7936C26.3922 44.5633 26.5541 36.9611 25.8232 29.7498Z" fill="#FFFFFE"/>
<path fill-rule="evenodd" clip-rule="evenodd" d="M38.4592 29.0409C36.3382 28.8046 34.0326 29.0707 31.9168 29.2623C31.3401 29.3144 31.0641 29.7849 31.0856 30.2266C30.0339 37.376 30.6741 44.6351 30.8886 51.8441C30.9091 52.5061 31.5289 52.7605 32.0255 52.636C33.8766 52.9447 35.8149 52.3795 37.6475 52.2134C38.805 52.1102 38.7886 50.3178 37.6168 50.42C35.9463 50.5636 34.2829 50.7978 32.6166 50.9798C32.5427 47.4567 32.3652 43.9453 32.32 40.4361C33.9956 40.2924 35.8529 40.401 37.4023 39.7762C38.4202 39.3664 38.0303 37.8954 36.9128 38.1221C35.386 38.434 33.8448 38.4947 32.3077 38.698C32.3139 36.1275 32.4134 33.557 32.7079 30.9865C34.6298 30.9386 36.604 30.9227 38.4879 30.7002C39.5664 30.5704 39.5489 29.1601 38.4592 29.0409Z" fill="#FFFFFE"/>
<path fill-rule="evenodd" clip-rule="evenodd" d="M50.832 29.4809C48.2692 29.3941 45.7338 29.698 43.166 29.5444C42.2531 29.4904 42.0846 30.9411 42.9771 31.1338C43.9508 31.3467 44.9368 31.4007 45.9298 31.3869C45.7125 38.3429 46.0963 45.3614 46.0364 52.3248C46.0262 53.5521 47.923 53.5479 47.9331 52.3248C47.991 45.3434 48.0814 38.3048 47.6001 31.3234C48.6926 31.2652 49.7821 31.1921 50.8624 31.2302C51.9905 31.2694 51.958 29.5169 50.832 29.4809Z" fill="#FFFFFE"/>
<path fill-rule="evenodd" clip-rule="evenodd" d="M18.4658 57.6027C15.9861 57.0674 13.1568 57.6463 10.6473 57.7594C9.72089 57.8009 9.47122 59.1298 10.4338 59.3808C11.4049 59.6319 12.4195 59.6547 13.449 59.5997C12.9879 62.466 12.9379 65.4464 13.0601 68.3376C13.1132 69.5607 15.0405 69.5898 15.0129 68.3574C14.947 65.3634 15.1892 62.4266 15.3571 59.4524C16.3303 59.3663 17.2971 59.2937 18.2352 59.3601C19.2669 59.4358 19.4793 57.8237 18.4658 57.6027Z" fill="#FFFFFE"/>
<path fill-rule="evenodd" clip-rule="evenodd" d="M21.5582 63.1163C21.772 62.132 22.02 61.1622 22.3912 60.2391C22.7572 61.1695 23.0073 62.1434 23.206 63.1308C22.6574 63.0976 22.1078 63.108 21.5582 63.1163ZM25.8299 68.2452C25.1875 64.688 25.0443 60.9647 23.1353 57.7688C22.7631 57.1448 21.9553 57.3452 21.6226 57.8426C19.5885 60.891 19.5885 64.8573 18.6365 68.3023C18.3964 69.1683 19.8073 69.6791 20.1421 68.8422C20.6514 67.5683 20.9358 66.2081 21.204 64.8469C21.9705 64.9206 22.745 64.9476 23.5134 64.9258C23.6869 66.0731 23.8331 67.2225 24.0368 68.3387C24.2395 69.4569 26.0346 69.379 25.8299 68.2452Z" fill="#FFFFFE"/>
<path fill-rule="evenodd" clip-rule="evenodd" d="M34.5145 67.9892C33.2424 65.8169 32.4306 63.4593 31.2382 61.2551C31.9524 60.47 32.6351 59.6601 33.2361 58.8112C33.7982 58.0198 32.3677 57.07 31.7678 57.8336C30.8145 59.052 29.7227 60.1685 28.7232 61.3457C28.6509 60.2817 28.6204 59.2187 28.6844 58.1495C28.741 57.2357 27.0473 57.0762 26.9592 57.989C26.6246 61.4774 27.4469 64.865 27.6849 68.3401C27.7531 69.3712 29.4636 69.3187 29.3976 68.2835C29.2958 66.7101 29.0913 65.1367 28.9214 63.5643C29.019 63.5262 29.1102 63.4696 29.192 63.3883C29.4532 63.1228 29.7154 62.8543 29.9765 62.5877C30.8973 64.7189 31.8003 66.8737 33.0316 68.8711C33.6084 69.8044 35.0578 68.9215 34.5145 67.9892Z" fill="#FFFFFE"/>
<path fill-rule="evenodd" clip-rule="evenodd" d="M42.5491 58.2747C42.5449 57.4634 41.234 57.0382 40.8262 57.8226C39.5197 60.345 38.6785 63.0481 37.5171 65.6221C37.0848 63.176 37.0165 60.697 37.0229 58.2158C37.025 57.1084 35.2178 57.0991 35.1783 58.1942C35.0545 61.6083 35.3416 65.073 36.3643 68.3819C36.5724 69.0548 37.5918 69.2034 37.9676 68.5935C39.1973 66.5892 40.0374 64.4342 40.8967 62.2833C41.0515 64.4094 41.2874 66.5314 41.6418 68.642C41.8254 69.7298 43.5814 69.2819 43.4106 68.2075C42.8886 64.913 42.5715 61.5949 42.5491 58.2747Z" fill="#FFFFFE"/>
<path fill-rule="evenodd" clip-rule="evenodd" d="M52.0481 67.8208C51.0628 66.4033 50.1784 64.9395 49.3237 63.4572C50.1943 61.8505 51.0341 60.2283 51.8782 58.6472C52.3963 57.6824 51.066 56.8882 50.3982 57.7431C49.5371 58.8406 48.7844 60.039 48.0805 61.2775C47.4488 60.1501 46.816 59.0227 46.1631 57.9025C45.6184 56.9695 44.2605 57.7173 44.6958 58.6699C45.4018 60.2129 46.1896 61.7312 47.0273 63.2268C46.197 64.8223 45.4093 66.4404 44.5716 67.9731C44.0482 68.9297 45.439 69.7907 46.0643 68.8855C46.8489 67.7478 47.5677 66.5494 48.2652 65.3325C48.9575 66.4681 49.6709 67.5863 50.4237 68.6705C51.0925 69.6333 52.7275 68.7929 52.0481 67.8208Z" fill="#FFFFFE"/>
<path fill-rule="evenodd" clip-rule="evenodd" d="M26.0143 91.4099C25.194 91.3388 24.3757 91.3227 23.5574 91.3227C23.5553 85.9821 23.9764 80.6663 24.0075 75.3343C24.0137 74.3777 22.5348 74.141 22.375 75.1051C21.5007 80.3887 21.6107 85.9757 21.7279 91.3464C19.3798 91.4056 17.038 91.5046 14.693 91.0612C13.8592 85.8196 14.5499 80.5738 14.8755 75.3343C14.9388 74.3153 13.2607 74.0721 13.1415 75.0922C12.4922 80.6792 11.9519 86.3824 12.9828 91.9823C13.073 92.4773 13.4173 92.6721 13.7793 92.6656C17.2526 94.1679 21.4032 93.2188 25.1162 93.1649C25.0529 94.0409 25.0083 94.9168 24.9419 95.7938C24.8527 96.9624 26.6076 96.9506 26.6947 95.7938C26.7849 94.6273 26.8181 93.4598 26.8793 92.2912C26.9042 91.7833 26.451 91.4465 26.0143 91.4099Z" fill="#FFFFFE"/>
<path fill-rule="evenodd" clip-rule="evenodd" d="M35.8711 90.8255C34.1775 90.657 32.5373 90.5219 30.8783 90.6769C30.8258 88.0484 30.8521 85.4283 30.957 82.8155C31.9938 83.0835 33.1669 83.2018 34.1943 82.9851C35.0432 82.8061 35.019 81.4526 34.1638 81.2726C33.1732 81.0653 32.1575 81.1993 31.1637 80.9617C31.1238 80.9512 31.0871 80.9491 31.0504 80.9428C31.1375 79.4124 31.2445 77.8821 31.3998 76.3538C32.85 76.3077 34.3013 76.2397 35.7515 76.1884C36.8785 76.1496 36.8554 74.4455 35.7211 74.4392C33.9896 74.4266 32.2603 74.5072 30.5299 74.5177C30.1458 74.5198 29.6999 74.7993 29.64 75.2012C28.8236 80.6487 28.8394 86.1611 29.1301 91.6703C29.1636 92.2941 29.6873 92.5998 30.2592 92.5171C32.1407 92.2428 34.0075 92.3967 35.9005 92.5171C37.0044 92.5872 36.9436 90.927 35.8711 90.8255Z" fill="#FFFFFE"/>
<path fill-rule="evenodd" clip-rule="evenodd" d="M51.5111 74.2527C51.4452 73.1172 49.8244 73.1248 49.784 74.2527C49.7054 76.5432 49.6108 78.8565 49.5449 81.174C47.0526 81.0745 44.5358 81.0086 42.0456 81.068C42.1158 79.129 42.1455 77.1878 42.0063 75.239C41.9245 74.0721 40.2463 74.0635 40.2229 75.239C40.1007 81.0615 39.3014 87.0063 40.2952 92.7996C40.4652 93.7891 42.1158 93.5577 42.0116 92.5595C41.6673 89.3336 41.8309 86.1346 41.9723 82.9325C44.472 83.0233 46.9994 83.1477 49.5013 83.0947C49.4386 86.3098 49.4546 89.5228 49.6692 92.7012C49.7468 93.8518 51.3889 93.8518 51.4282 92.7012C51.6301 86.6018 51.8629 80.3564 51.5111 74.2527Z" fill="#FFFFFE"/>
<path fill-rule="evenodd" clip-rule="evenodd" d="M108.585 115.647C107.896 114.899 107.339 114.532 106.579 114.364C107.975 106.498 110.126 98.8416 110.622 90.7967C110.659 90.1838 110.067 89.869 109.583 89.9616C109.445 89.9543 109.298 89.9827 109.141 90.0669C107.148 91.1368 105.177 91.8244 102.914 91.8644C102.753 91.8697 102.617 91.9097 102.5 91.976C102.09 91.8581 101.598 92.0877 101.568 92.691C101.238 99.4134 100.522 106.172 100.291 112.88C100.108 118.197 104.066 117.977 107.983 117.786C108.631 117.756 108.885 117.109 108.751 116.611C108.884 116.317 108.868 115.954 108.585 115.647Z" fill="#FACD61"/>
<path fill-rule="evenodd" clip-rule="evenodd" d="M96.2025 91.3555C96.1282 91.2929 96.0457 91.2324 95.9435 91.1985C93.8801 90.4746 91.6732 90.1752 89.587 89.4694C89.2538 89.3569 88.9618 89.4906 88.772 89.7199C88.4408 89.7486 88.1199 89.9778 88.0694 90.447C87.2202 98.3354 86.141 106.075 84.383 113.84C82.9262 113.814 82.0832 113.816 80.8968 114.761C80.6192 114.979 80.5924 115.315 80.7007 115.605C80.6079 115.947 80.7007 116.324 81.0928 116.548C84.9783 118.766 89.6706 118.408 91.5494 113.643C94.1855 106.958 95.9992 99.5359 96.6523 92.3395C96.7029 91.8045 96.6317 91.3619 96.2025 91.3555Z" fill="#FACD61"/>
<path fill-rule="evenodd" clip-rule="evenodd" d="M108.761 116.578C107.264 116.763 105.66 116.603 104.646 115.952C102.407 114.51 102.342 111.908 102.843 109.417C103.943 103.928 104.184 98.1235 109.964 96.8504C110.264 94.8528 110.497 92.8363 110.622 90.7967C110.659 90.1838 110.067 89.869 109.583 89.9616C109.445 89.9543 109.298 89.9827 109.141 90.0669C107.148 91.1368 105.177 91.8244 102.914 91.8644C102.753 91.8697 102.617 91.9097 102.5 91.976C102.09 91.8581 101.598 92.0877 101.568 92.691C101.238 99.4134 100.522 106.172 100.291 112.88C100.108 118.197 104.066 117.977 107.983 117.786C108.631 117.756 108.885 117.109 108.751 116.611C108.756 116.603 108.756 116.59 108.761 116.578Z" fill="#F0A641"/>
<path fill-rule="evenodd" clip-rule="evenodd" d="M85.8099 117.859C87.2656 114.745 88.5976 111.621 89.4952 108.265C90.0534 106.184 90.3196 103.89 91.0882 101.876C91.8837 99.7924 93.5313 97.3505 95.7877 98.6468C96.1653 96.5404 96.4625 94.4319 96.6523 92.3403C96.7029 91.8052 96.6317 91.3624 96.2025 91.3561C96.1282 91.2934 96.0457 91.2329 95.9435 91.1989C93.8801 90.4749 91.6732 90.1755 89.587 89.4694C89.2538 89.3569 88.9618 89.4906 88.772 89.72C88.4408 89.7486 88.1199 89.978 88.0694 90.4473C87.2202 98.3379 86.141 106.08 84.383 113.846C82.9262 113.821 82.0832 113.823 80.8968 114.768C80.6192 114.987 80.5924 115.322 80.7007 115.612C80.6079 115.955 80.7007 116.332 81.0928 116.556C82.6167 117.425 84.2592 117.889 85.8099 117.859Z" fill="#F0A641"/>
<path fill-rule="evenodd" clip-rule="evenodd" d="M74.0152 0.301528C66.6644 2.35809 69.553 12.4909 71.4886 17.5756C72.4511 16.3073 74.4099 15.2598 75.917 14.6183C74.9872 12.1598 74.3307 9.62218 73.6173 7.08974C74.7793 6.16091 75.9803 5.29663 77.2309 4.49275C78.1787 5.57674 79.2309 6.57534 80.2092 7.63018C81.3269 8.83183 82.2978 10.1512 83.3659 11.3913C84.3484 10.7905 85.6445 10.4302 86.5679 10.1272C86.95 10.0002 87.4017 9.85647 87.8777 9.72526C84.9521 5.00923 80.3665 -1.47909 74.0152 0.301528Z" fill="#FACD61"/>
<path fill-rule="evenodd" clip-rule="evenodd" d="M86.5642 10.6007C86.9476 10.4729 87.401 10.3284 87.8787 10.1964C86.1596 7.42192 83.8759 4.0431 80.9916 2.06775C79.7354 3.35288 78.4558 4.05776 77.1933 4.93336C78.1444 6.02368 79.2005 7.02811 80.1824 8.0891C81.3041 9.29777 82.2786 10.6248 83.3505 11.8722C84.3366 11.2679 85.6374 10.9055 86.5642 10.6007ZM71.429 18.0925C70.5753 15.8437 69.5393 12.6241 69.2682 9.53646C71.071 8.82111 72.3452 8.20106 73.5654 7.54541C74.2815 10.0926 74.9403 12.6451 75.8735 15.1179C74.3609 15.7631 72.395 16.8168 71.429 18.0925Z" fill="#F0A641"/>
<path fill-rule="evenodd" clip-rule="evenodd" d="M125.878 54.0859C125.79 53.7809 125.616 53.5741 125.404 53.4432C121.791 36.4232 114.349 16.1696 96.422 10.1276C82.5869 5.46286 67.7132 13.3338 66.27 28.2272C65.7364 33.7173 67.3698 39.221 68.8965 44.4219C70.9947 51.5594 71.9118 58.5565 72.4316 65.9652C73.0919 75.3739 74.6154 84.0902 82.4865 90.1659C95.7226 100.384 117.1 95.6402 124.988 81.2227C129.755 72.5138 128.48 63.1579 125.878 54.0859Z" fill="#FACD61"/>
<path fill-rule="evenodd" clip-rule="evenodd" d="M83.6265 29.0793C89.2861 32.8494 98.1355 32.5142 101.999 26.3933C102.001 26.3336 101.996 26.2781 102.009 26.2142C102.833 22.4492 102.251 17.7027 99.415 14.7769C98.965 14.3118 98.5151 13.877 98.0882 13.4402C101.2 19.0824 102.968 25.8507 95.0634 27.6546C85.1889 29.91 81.5101 14.7549 71.5547 15.5605C70.4896 16.6803 69.5529 17.9342 68.7517 19.3013C75.0189 20.8779 78.3897 25.593 83.6265 29.0793Z" fill="#F0A641"/>
<path fill-rule="evenodd" clip-rule="evenodd" d="M118.753 82.6854C114.483 85.5893 106.367 86.936 101.176 86.3726C96.794 85.8979 81.4824 82.6379 80.6212 63.2581C79.7706 44.113 68.005 36.2419 67.8761 21.7111C67.0572 23.6667 66.494 25.7999 66.27 28.1171C65.7364 33.6161 67.37 39.1288 68.8968 44.3382C70.9953 51.4873 71.9124 58.4959 72.4323 65.9167C73.0927 75.3407 74.6164 84.0713 82.4883 90.157C95.7258 100.392 117.106 95.6401 124.995 81.1992C128.062 75.5849 128.62 69.7075 127.94 63.8046C126.633 71.2424 125.206 78.3027 118.753 82.6854Z" fill="#F0A641"/>
<path fill-rule="evenodd" clip-rule="evenodd" d="M100.881 28.7404C101.471 28.125 101.977 27.434 102.384 26.6758C103.043 28.5387 103.775 30.3838 104.432 32.2498C104.072 32.484 103.705 32.7129 103.34 32.9355C102.537 31.5284 101.73 30.1192 100.881 28.7404ZM90.2057 38.1628C89.1271 36.0196 88.1696 33.8395 87.2374 31.6311C88.137 31.8895 89.0576 32.0575 89.9929 32.1405C90.3163 34.0496 90.8198 35.9156 91.297 37.7869C90.9262 37.8993 90.5628 38.0253 90.2057 38.1628ZM106.448 32.3801C105.539 29.6855 104.602 26.9636 103.458 24.3572C103.414 24.2585 103.352 24.185 103.285 24.1199C104.241 19.0332 99.9243 13.7154 96.9402 10.1461C96.1418 9.19152 94.7967 10.5556 95.5782 11.5039C98.9468 15.594 104.025 22.1825 99.6757 27.2398C96.996 30.3586 91.8716 30.7178 88.1544 29.8871C80.7031 28.2216 77.1512 19.0783 69.127 18.5102C68.1052 18.4367 67.8766 20.1043 68.8868 20.2933C74.7086 21.3875 78.5058 26.2653 83.0868 29.6067C83.7209 30.0698 84.3855 30.4626 85.0639 30.7965C85.0639 30.8837 85.0607 30.9666 85.0881 31.0653C85.9223 34.1306 87.4865 37.0531 88.9401 39.8674C89.1877 40.3431 89.7944 40.4239 90.2378 40.2045C91.0142 39.8117 91.8336 39.5922 92.651 39.3203C93.1377 39.1607 93.4157 38.6965 93.2946 38.1956C92.8069 36.1972 92.2487 34.2167 91.8684 32.1963C93.0429 32.1648 94.2247 32.0167 95.3918 31.7595C96.9075 31.4224 98.3169 30.7892 99.5282 29.9123C100.38 31.519 101.317 33.0889 102.21 34.6746C102.463 35.1209 103.037 35.2385 103.473 35.0043C104.355 34.5286 105.177 33.9636 106.02 33.426C106.357 33.2107 106.583 32.7833 106.448 32.3801Z" fill="#D0692D"/>
<path fill-rule="evenodd" clip-rule="evenodd" d="M73.8689 11.9987C72.3113 12.7223 70.6128 14.0864 69.8796 15.651C69.4555 16.5604 70.564 17.5647 71.3536 16.7707C72.4892 15.6276 73.4469 14.5186 74.9318 13.7918C76.1553 13.1919 75.0837 11.4373 73.8689 11.9987Z" fill="#D0692D"/>
<path fill-rule="evenodd" clip-rule="evenodd" d="M86.4731 7.25481C84.6027 7.16148 82.746 7.42688 81.0884 8.27263C80.0698 8.78981 80.9737 10.2188 81.9964 9.71625C83.3778 9.04062 84.9343 8.89674 86.4731 8.97451C87.6605 9.03089 87.6553 7.31411 86.4731 7.25481Z" fill="#D0692D"/>
<path fill-rule="evenodd" clip-rule="evenodd" d="M95.8621 45.6937C95.5866 44.5917 93.7549 44.8098 93.833 45.9637C93.9343 47.4293 95.7777 51.8072 93.1689 52.1406C90.7038 52.4594 89.0367 49.3871 87.2757 48.1833C86.5114 47.6578 85.3944 48.713 85.9677 49.4692C87.8722 51.9848 90.7196 55.0415 94.2437 54.1046C97.942 53.1179 96.4629 48.122 95.8621 45.6937Z" fill="#7F1F38"/>
<path fill-rule="evenodd" clip-rule="evenodd" d="M115.954 38.7119C115.442 37.7624 113.768 38.424 114.149 39.4419C114.438 40.2178 116.511 45.0163 114.107 44.3772C112.362 43.9096 111.158 42.323 110.063 41.055C109.477 40.3781 108.356 41.104 108.585 41.882C109.253 44.1648 112.098 46.3762 114.562 46.5192C115.82 46.5937 116.693 45.7381 117.09 44.6845C117.807 42.7794 116.858 40.3852 115.954 38.7119Z" fill="#7F1F38"/>
<path fill-rule="evenodd" clip-rule="evenodd" d="M125.895 52.9692C125.388 51.7348 124.527 52.352 124.261 52.4547C119.19 54.394 116.497 58.7645 113.839 63.2901C111.696 66.9386 109.182 69.9432 104.578 69.0832C100.017 68.2286 95.1901 64.61 91.7873 61.8825C90.5709 60.9059 83.4884 65.071 84.9816 67.1911C92.3548 77.6681 100.658 79.9315 110.367 76.683C118.251 74.0485 129.697 62.2483 125.895 52.9692Z" fill="#FACD61"/>
<path fill-rule="evenodd" clip-rule="evenodd" d="M125.895 52.9692C125.388 51.7348 124.527 52.352 124.261 52.4547C123.89 52.5959 123.53 52.7563 123.183 52.9253C123.183 52.9457 123.19 52.9628 123.188 52.9852C122.074 62.4355 118.031 71.5359 107.665 74.0795C96.1046 76.9172 88.524 64.9074 84.9762 65.7781C84.7268 66.2904 84.6909 66.7792 84.9794 67.1911C92.3529 77.6681 100.656 79.9315 110.367 76.683C118.251 74.0485 129.697 62.2483 125.895 52.9692Z" fill="#F0A641"/>
<path fill-rule="evenodd" clip-rule="evenodd" d="M123.905 48.0745C124.284 49.5669 124.624 51.0424 124.939 52.4998C125.146 52.5857 125.351 52.7798 125.514 53.185C127.415 57.8776 125.423 63.2204 121.995 67.6776C127.876 68.0658 132.33 65.6728 132.82 59.1759C133.206 54.0484 130.004 48.258 123.905 48.0745Z" fill="#FACD61"/>
<path fill-rule="evenodd" clip-rule="evenodd" d="M111.571 66.0446C112.258 65.2046 112.881 64.2487 113.473 63.2401C114.531 61.4337 115.603 59.6568 116.826 58.0527C113.309 57.4362 109.867 58.7062 107.343 60.6791C104.1 63.2117 100.643 67.0227 100.807 71.4439C100.836 72.2058 101.552 72.5231 102.187 72.2469C102.377 72.1626 102.889 71.7347 103.416 71.2278C103.437 71.5008 103.464 71.7801 103.501 72.0709C103.596 72.7634 104.596 72.9436 105.016 72.4778C105.238 72.2364 105.431 71.9792 105.618 71.7221C105.661 71.8812 105.709 72.0372 105.767 72.2027C105.987 72.8277 106.795 73.1554 107.296 72.6116C109.092 70.6671 110.09 67.7931 111.571 66.0446Z" fill="#FACD61"/>
<path fill-rule="evenodd" clip-rule="evenodd" d="M128.927 65.5909C128.609 64.0761 128.855 62.5772 129.149 61.0741C129.482 59.3695 128.737 57.7264 128.346 56.0705C127.946 54.3839 127.158 51.0425 128.397 49.4853C127.144 48.6547 125.645 48.1286 123.897 48.0745C124.275 49.567 124.613 51.0425 124.926 52.5C125.133 52.5859 125.337 52.78 125.5 53.1852C127.392 57.8781 125.409 63.2211 121.995 67.6785C124.779 67.862 127.236 67.409 129.104 66.1955C129.036 66.0184 128.976 65.82 128.927 65.5909Z" fill="#F0A641"/>
<path fill-rule="evenodd" clip-rule="evenodd" d="M113.621 57.994C110.01 60.391 109.314 71.0781 103.369 68.4343C102.493 68.0472 102.099 67.406 102.001 66.6626C101.216 68.1411 100.745 69.7461 100.807 71.443C100.836 72.2054 101.552 72.5228 102.187 72.2465C102.377 72.1622 102.889 71.734 103.416 71.2268C103.436 71.4999 103.463 71.7794 103.501 72.0704C103.595 72.7633 104.595 72.9436 105.016 72.4775C105.238 72.236 105.431 71.9787 105.618 71.7214C105.661 71.8806 105.708 72.0367 105.767 72.2023C105.987 72.8276 106.795 73.1556 107.296 72.6114C109.092 70.6657 110.09 67.7899 111.571 66.0404C112.258 65.1999 112.88 64.2434 113.473 63.2341C114.531 61.4266 115.603 59.6486 116.826 58.0435C115.741 57.8526 114.666 57.859 113.621 57.994Z" fill="#F0A641"/>
<path fill-rule="evenodd" clip-rule="evenodd" d="M116.131 56.9322C109.625 56.235 102.757 60.8471 100.351 66.7043C99.9354 67.7178 101.595 68.1488 102.009 67.1557C104.16 61.961 110.199 57.9324 115.889 58.4822C116.974 58.5866 117.198 57.0438 116.131 56.9322Z" fill="#F0A641"/>
<path fill-rule="evenodd" clip-rule="evenodd" d="M100.861 66.2722C96.9696 64.7538 94.8903 63.2923 92.0505 61.1816C91.1886 60.5427 90.6398 61.7075 91.2185 62.5497C93.0188 65.1697 95.9289 66.6301 100.006 67.6797C101.064 67.9546 101.859 66.6622 100.861 66.2722Z" fill="#F0A641"/>
<path fill-rule="evenodd" clip-rule="evenodd" d="M124.018 51.7359C120.948 52.6747 118.053 54.4373 116.007 56.9345C115.32 57.7707 116.43 58.9495 117.215 58.1431C119.274 56.0265 121.659 54.345 124.484 53.4288C125.556 53.0841 125.106 51.4045 124.018 51.7359Z" fill="#F0A641"/>
<path fill-rule="evenodd" clip-rule="evenodd" d="M126.882 67.0308C125.824 67.6281 124.331 67.7422 123.171 67.3913C126.387 61.9041 127.198 55.1649 124.581 48.6731C124.162 47.6332 122.486 48.0481 122.882 49.1509C126.657 59.6549 122.37 68.9452 113.079 74.507C108.46 77.2693 102.867 78.2291 97.6255 77.2266C91.8891 76.1238 88.0271 71.4024 84.9232 66.7663C84.2785 65.8043 82.7454 66.6863 83.3734 67.6857C86.4878 72.6588 90.3046 76.7659 95.8961 78.7176C101.456 80.6576 107.735 79.1644 112.874 76.736C116.763 74.8974 119.977 72.1255 122.27 68.8108C122.365 68.9217 122.485 69.0188 122.656 69.0732C124.26 69.5915 126.292 69.3878 127.766 68.5666C128.755 68.0152 127.871 66.4762 126.882 67.0308Z" fill="#D0692D"/>
<path fill-rule="evenodd" clip-rule="evenodd" d="M106.49 71.8553C106.49 71.8553 106.49 71.8553 106.491 71.8553C106.49 71.8533 106.49 71.8533 106.49 71.8533H106.488C106.488 71.8533 106.488 71.8533 106.49 71.8553Z" fill="#D0692D"/>
<path fill-rule="evenodd" clip-rule="evenodd" d="M116.611 56.9348C114.528 62.4303 110.555 66.8867 107.407 71.7961C107.266 71.8288 107.23 71.8288 107.06 71.8214C107.192 71.8288 107.065 71.8077 106.996 71.7961C107.004 71.8035 106.998 71.8035 107.01 71.814C107.002 71.8013 107.002 71.8035 106.995 71.7961C106.992 71.794 106.991 71.794 106.986 71.794V71.7918C106.989 71.7918 106.992 71.794 106.992 71.794C106.989 71.7897 106.983 71.7855 106.98 71.7834C106.98 71.7813 106.978 71.7792 106.978 71.7771C106.98 71.7813 106.989 71.7876 106.995 71.794C107.035 71.7992 106.991 71.7665 106.972 71.7644C106.953 71.7264 106.929 71.6831 106.921 71.6704C106.864 71.5025 106.859 71.4064 106.855 71.2258C106.827 70.3198 105.68 70.1603 105.253 70.7295C105.027 70.8393 104.846 71.0252 104.807 71.2733C104.755 71.6007 104.702 71.8193 104.542 72.0675C104.534 72.0791 104.531 72.0791 104.514 72.0991C104.502 72.115 104.504 72.1097 104.498 72.1213C104.481 72.1171 104.464 72.1192 104.457 72.1245C104.447 72.1097 104.44 72.1013 104.43 72.0928C104.311 71.9143 104.25 71.6683 104.24 71.3673C104.235 71.2079 104.186 71.0769 104.121 70.9618C104.023 70.2332 102.846 69.8667 102.446 70.6387C102.321 70.8805 102.203 71.1202 102.071 71.3547C101.999 71.191 101.945 71.022 101.896 70.8541C101.58 69.777 101.431 68.439 101.759 67.346C102.089 66.271 100.4 65.8285 100.054 66.8867C99.5099 68.5678 99.7848 70.6999 100.498 72.2945C100.813 72.9968 101.514 73.5976 102.34 73.417C102.587 73.3653 102.801 73.2523 102.994 73.0992C103.3 73.5438 103.752 73.8659 104.381 73.9155C105.032 73.9672 105.545 73.6536 105.918 73.1942C106.501 73.6293 107.244 73.6536 107.945 73.4984C108.281 73.4265 108.462 73.2206 108.542 72.982C108.67 72.9165 108.792 72.8288 108.887 72.681C112.159 67.6322 116.167 63.065 118.317 57.3952C118.715 56.3434 117.004 55.8967 116.611 56.9348Z" fill="#D0692D"/>
<path fill-rule="evenodd" clip-rule="evenodd" d="M107.808 48.7186C106.821 48.2903 105.495 49.0274 104.746 49.6925C104.022 50.3306 103.307 51.2959 103.393 52.3527C103.468 53.2674 104.5 53.5763 105 52.81C105.319 52.3226 105.593 51.8437 106.063 51.4918C106.683 51.0269 107.394 51.0247 108.052 50.6793C108.93 50.2176 108.537 49.036 107.808 48.7186Z" fill="#7F1F38"/>
<path fill-rule="evenodd" clip-rule="evenodd" d="M107.573 105.309C107.098 105.178 106.454 105.466 106.365 105.995C106.303 106.372 106.181 106.757 106.07 107.124C105.731 108.232 107.297 108.818 107.889 107.889C108.188 107.418 108.339 106.814 108.296 106.254C108.258 105.815 108.02 105.433 107.573 105.309ZM93.1378 105.883C92.584 105.729 92.1314 106.07 91.9384 106.563C91.7738 106.98 91.5892 107.39 91.5048 107.831C91.4194 108.272 91.5523 108.708 91.9553 108.943C92.393 109.199 93.0671 109.071 93.3045 108.589C93.5397 108.106 93.6747 107.597 93.8182 107.079C93.9585 106.568 93.6494 106.022 93.1378 105.883ZM92.6842 11.2444C92.6873 11.2465 92.6916 11.2465 92.6958 11.2486C92.2538 10.7649 91.5565 10.9767 91.2158 11.4393C91.2031 11.4562 91.1915 11.4762 91.1778 11.4931C90.9848 11.7597 91.0006 12.2213 91.1778 12.489C91.1852 12.5006 91.1915 12.5101 91.1989 12.5217C91.4426 12.8884 91.8804 13.1129 92.3266 12.978C92.3487 12.9717 92.3719 12.9654 92.393 12.958C92.8087 12.8326 93.1072 12.4616 93.1072 12.0232C93.1072 11.6712 92.9374 11.4204 92.6842 11.2444ZM88.8569 11.0949C86.532 10.039 82.2323 11.1898 80.5961 13.1131C80.0856 13.7128 80.5508 14.8531 81.4316 14.5464C82.5076 14.1723 83.5561 13.737 84.6595 13.443C85.9054 13.111 87.07 13.2291 88.3147 13.0963C89.2493 12.9951 89.9392 11.5871 88.8569 11.0949ZM112.99 26.002C112.488 24.0892 110.995 22.4651 109.67 21.0445C108.243 19.5143 106.707 18.004 105.068 16.7014C104.338 16.1229 103.112 16.8616 103.687 17.7669C104.659 19.3003 105.912 20.6229 107.062 22.0236C108.421 23.6792 109.423 25.6721 110.877 27.2298C111.761 28.1772 113.3 27.1908 112.99 26.002ZM120.338 57.7565C119.849 57.2675 119.122 57.4319 118.754 57.9589C118.654 58.1033 118.596 58.2655 118.521 58.412C117.993 59.3827 119.21 60.2806 120.013 59.565C120.142 59.4512 120.232 59.2994 120.338 59.1814C120.703 58.7714 120.742 58.1591 120.338 57.7565ZM123.179 71.6627C122.541 71.4899 122.019 71.8798 121.797 72.4489C121.501 73.2014 121.083 73.8833 121.133 74.7274C121.166 75.2544 121.47 75.7191 122 75.8656C122.494 76.0005 123.087 75.7866 123.334 75.3208C123.758 74.523 123.958 73.6472 124.005 72.7482C124.031 72.2529 123.643 71.7913 123.179 71.6627ZM107.994 61.48C108.148 61.2956 107.973 61.4758 107.868 61.5274C107.468 61.7182 107.296 62.2514 107.408 62.6572C107.538 63.1283 107.923 63.3327 108.374 63.3939C109.072 63.4792 109.676 62.8448 109.681 62.1777C109.687 61.3757 108.562 60.795 107.994 61.48ZM131.772 55.1167C131.656 54.7489 131.566 54.4033 131.409 54.0481C131.23 53.6497 130.685 53.4885 130.296 53.596C129.727 53.7499 129.534 54.2747 129.607 54.8059C129.665 55.2264 129.685 55.5267 129.873 55.9156C130.39 56.9811 132.115 56.2286 131.772 55.1167ZM76.8034 3.04121C76.3256 3.13289 75.8182 3.16978 75.3298 3.18453C74.3698 3.21721 74.1378 1.95044 74.8646 1.47513C75.4585 1.0852 76.1114 0.967162 76.8034 1.06833C77.8077 1.21377 77.7655 2.86099 76.8034 3.04121Z" fill="#FFFFFE"/>
<path fill-rule="evenodd" clip-rule="evenodd" d="M96.3495 94.2471C94.1956 94.3752 91.1982 94.7694 89.4127 93.2675C88.55 92.542 87.3035 93.7797 88.1714 94.5093C90.3303 96.3232 93.6881 96.3028 96.3495 95.9838C97.4315 95.8537 97.4873 94.179 96.3495 94.2471Z" fill="#D0692D"/>
<path fill-rule="evenodd" clip-rule="evenodd" d="M109.806 93.1753C107.442 94.4661 104.46 95.1629 101.724 94.8209C100.673 94.6914 100.427 96.4013 101.472 96.5456C104.53 96.9587 108.167 96.3024 110.726 94.641C111.674 94.0243 110.834 92.6178 109.806 93.1753Z" fill="#D0692D"/>
<path fill-rule="evenodd" clip-rule="evenodd" d="M59.6039 81.9418C59.482 87.4521 59.6061 94.0015 54.2784 96.9453C49.6561 99.5002 36.3842 96.7318 33.9033 104.045C29.7169 96.8206 20.7767 100.351 13.4381 98.5848C7.43689 97.1388 5.43014 90.2289 4.48298 84.9818C3.1805 77.776 3.27914 70.3028 3.55385 63.0241C3.77235 57.2653 4.13191 51.5235 4.28358 45.7595C4.4395 39.7556 4.49041 32.5307 8.488 27.7434C14.206 20.8949 28.9586 26.4845 31.9814 19.507C33.2224 21.7479 35.577 22.6781 38.2552 23.1506C43.2095 24.0237 48.7323 22.9213 52.5867 25.3323C57.6205 28.4802 58.3269 35.9693 58.8212 41.3866C59.4406 48.1495 59.448 55.035 59.6103 61.8169C59.7705 68.5227 59.7471 75.237 59.6039 81.9418ZM61.3402 60.3044C61.1864 54.0076 61.0527 47.6707 60.5807 41.3866C60.2307 36.7664 59.4543 31.2423 56.8653 27.3186C54.7323 24.0883 50.7167 22.5514 46.8655 22.1042C42.608 21.6064 34.8175 22.7776 33.0441 17.7355C32.7609 16.4703 32.8384 15.669 32.8882 14.8371C32.9561 13.6617 31.1169 13.6659 31.0533 14.8371C31.0045 15.7134 31.1975 16.7546 30.9165 17.6288C29.2778 22.7342 21.5424 21.766 16.429 22.4953C11.7473 23.1666 8.99919 24.3029 6.21392 28.1684C3.46153 31.9875 2.91211 37.927 2.56846 42.4849C2.09541 48.7965 2.06359 55.1873 1.74858 61.5115C1.3869 68.7638 1.48448 75.9717 2.3436 83.1913C2.85696 87.4976 3.82003 92.4107 6.61909 95.8989C9.38738 99.3449 12.9247 100.645 17.25 100.861C23.1928 101.152 30.5665 99.997 33.0081 106.155C33.5586 107.545 33.2138 108.948 33.5479 109.63C33.9149 110.389 35.1538 110.188 35.3277 109.399C35.4667 108.756 35.4401 106.731 35.5367 105.525C35.9588 100.178 44.8099 99.9854 48.4214 99.7042C52.559 99.384 55.9648 98.5013 58.4329 95.1379C60.9636 91.6835 61.2532 86.04 61.3805 81.9419C61.6043 74.7382 61.5173 67.5091 61.3402 60.3044Z" fill="#007977"/>
</svg>
