<svg width="110" height="122" viewBox="0 0 110 122" fill="none" xmlns="http://www.w3.org/2000/svg">
<path fill-rule="evenodd" clip-rule="evenodd" d="M27.49 72.2619C27.4259 72.084 27.3043 71.9541 27.1639 71.8544C26.9914 71.5786 26.6709 71.3912 26.2317 71.4656C17.7111 72.9227 12.3904 83.4218 11.282 91.1704C11.2179 91.6231 11.4111 91.9818 11.6976 92.1935C11.8522 92.5456 12.1689 92.8346 12.6176 92.8543C14.7939 92.9513 17.3303 92.6614 19.4095 91.8632C19.9223 91.882 20.4454 91.5507 20.4822 90.8654C20.6301 88.051 21.3804 84.2642 22.8602 81.8376C24.1788 79.6717 26.0196 78.8067 27.8246 78.0197C28.1847 77.8635 28.1432 77.4305 28.0291 77.1594C28.3129 75.6119 27.9877 73.687 27.49 72.2619Z" fill="#FACD61"/>
<path fill-rule="evenodd" clip-rule="evenodd" d="M94.9056 40.7072C94.8551 40.2597 94.7859 39.7275 94.5782 39.2958C94.8476 39.2716 95.5989 38.0733 97.2633 39.2586C97.8172 39.654 98.0885 40.1024 98.226 40.6392C97.762 42.4739 95.1713 43.0675 94.9056 40.7072ZM100.14 30.0538C99.5723 29.7458 99.0615 30.3487 98.9885 30.9274C98.9099 31.5275 99.8015 33.1835 99.9297 33.7659C99.838 33.6552 98.9202 32.4727 98.8229 32.3648C98.1718 31.654 96.5251 30.6585 95.8216 31.854C95.279 32.7732 96.12 34.1138 96.557 34.9074C96.7431 35.2452 97.4551 36.076 97.6703 36.3886C95.4745 34.8898 93.027 35.7643 92.5911 37.5738C92.4526 38.1451 92.7314 38.5916 93.071 38.894C90.6404 40.5072 92.5677 43.5709 93.9682 44.438C94.9347 45.0362 96.3249 45.0799 97.4186 44.8771C99.2074 50.6016 100.845 55.9353 99.2392 62.0049C97.3616 69.1054 90.6825 72.8101 83.6358 71.8471C83.0856 71.7699 82.6702 72.0816 82.471 72.4788C82.2623 72.5868 82.0846 72.7524 82.0032 72.9729C81.7169 73.746 81.6888 74.6391 81.614 75.456C81.5672 75.9705 81.4446 76.6096 81.5073 77.1706C81.3399 77.767 81.6645 78.5643 82.4841 78.6359C93.3255 79.5626 103.37 74.4084 107.208 63.9717C110.714 54.4467 105.578 33.017 100.14 30.0538Z" fill="#FACD61"/>
<path fill-rule="evenodd" clip-rule="evenodd" d="M27.49 72.262C27.4259 72.084 27.3043 71.9541 27.1639 71.8544C26.9914 71.5786 26.6709 71.3912 26.2317 71.4656C17.7111 72.9228 12.3904 83.4221 11.282 91.171C11.2179 91.6237 11.4111 91.9824 11.6976 92.1942C11.8522 92.5462 12.1689 92.8352 12.6176 92.855C13.5516 92.8973 14.5535 92.8616 15.5564 92.7533C15.6092 89.598 15.8703 86.0154 17.6272 83.4842C18.8157 81.7682 21.2126 81.4548 22.5463 82.4177C22.6491 82.2229 22.7481 82.0196 22.8602 81.8379C24.1788 79.6719 26.0196 78.8069 27.8246 78.0199C28.1847 77.8637 28.1432 77.4307 28.0291 77.1596C28.3129 75.6121 27.9877 73.6871 27.49 72.262Z" fill="#F0A641"/>
<path fill-rule="evenodd" clip-rule="evenodd" d="M94.9045 40.7379C94.854 40.2908 94.7848 39.759 94.5771 39.3277C94.8465 39.3035 95.5977 38.1062 97.262 39.2905C97.8158 39.6856 98.0871 40.1337 98.2246 40.6701C97.7606 42.5033 95.1702 43.0964 94.9045 40.7379ZM103.198 60.5927C104.599 54.2964 103.383 47.6719 101.287 41.8888C100.122 38.676 98.7904 35.5888 97.3067 32.5099C97.0981 32.0795 96.9391 31.6983 96.8222 31.3386C96.4293 31.3265 96.0672 31.4743 95.8203 31.8917C95.2777 32.8102 96.1187 34.1497 96.5556 34.9427C96.7417 35.2801 97.4536 36.1103 97.6688 36.4226C95.4732 34.925 93.026 35.7989 92.59 37.607C92.4516 38.1778 92.7304 38.624 93.0699 38.9261C90.6395 40.5381 92.5666 43.5993 93.9671 44.4657C94.9334 45.0634 96.3236 45.1071 97.4171 44.9045C99.2058 50.6244 100.843 55.9539 99.2376 62.0187C97.3601 69.1136 90.6816 72.8153 83.6356 71.8531C83.0855 71.776 82.6701 72.0874 82.4709 72.4844C82.2623 72.5922 82.0845 72.7577 82.0031 72.978C81.7169 73.7505 81.6888 74.6429 81.614 75.4591C81.5672 75.9732 81.4446 76.6119 81.5073 77.1724C81.3399 77.7683 81.6645 78.565 82.484 78.6366C88.109 79.1181 93.5105 77.9459 97.9513 75.2686C96.3797 71.2898 101.057 70.2207 103.198 60.5927Z" fill="#F0A641"/>
<path fill-rule="evenodd" clip-rule="evenodd" d="M57.119 0.811646C50.259 1.17131 47.227 10.0225 45.9114 15.6642C46.696 15.3274 47.5278 15.1384 48.4417 14.9678C49.5875 14.7558 50.5976 14.421 51.7104 14.5072C52.4913 11.6896 53.3117 8.89117 54.2171 6.10288C56.2777 6.06802 58.3365 6.19096 60.3981 6.21849C61.5298 9.1233 62.4342 12.107 63.53 15.0192C64.6646 15.01 65.9009 15.3091 66.9063 15.4853C67.4476 15.5825 68.1144 15.6504 68.7019 15.8403C67.508 9.82611 65.0871 0.399687 57.119 0.811646Z" fill="#FACD61"/>
<path fill-rule="evenodd" clip-rule="evenodd" d="M48.4383 14.5291C49.5843 14.3214 50.5946 13.9931 51.7076 14.0777C52.4886 11.3158 53.3092 8.57284 54.2147 5.83976C52.7744 5.86584 51.6217 5.73634 49.5013 5.88563C47.6799 8.81296 46.5764 12.4112 45.9114 15.2081C46.6933 14.8817 47.5253 14.6964 48.4383 14.5291ZM63.5293 14.5796C62.4333 11.7251 61.5287 8.80044 60.3968 5.95315C61.457 5.95675 63.5604 5.87221 65.6799 6.06826C67.2815 8.9974 68.1314 12.5687 68.702 15.3845C68.1144 15.1983 67.4475 15.1318 66.9061 15.0364C65.9006 14.8638 64.664 14.5706 63.5293 14.5796Z" fill="#F0A641"/>
<path fill-rule="evenodd" clip-rule="evenodd" d="M87.373 91.3963C87.3795 91.3452 87.3888 91.2922 87.3888 91.2374C87.387 80.9734 86.9541 70.7958 86.3179 60.5542C85.8271 52.6265 85.9643 44.6292 84.6993 36.7684C83.6227 30.0855 82.0386 22.8713 76.4235 18.7049C70.493 14.3063 61.9541 12.9111 54.6542 13.1266C48.2358 13.3133 40.9862 14.9297 36.0614 19.0793C30.9556 23.3794 29.2699 30.4496 27.6905 36.7275C25.9105 43.7912 25.3535 51.2284 24.8759 58.4715C24.1464 69.525 23.8497 80.7235 24.1464 91.7985C24.1585 92.2342 24.4244 92.4813 24.7388 92.5667C24.8946 92.7033 25.0998 92.7906 25.361 92.7971C29.8856 92.9086 34.4596 92.3475 39.0029 92.3233C44.4519 92.2946 49.9029 92.406 55.3511 92.5184C65.7212 92.7274 76.2043 93.217 86.5623 92.4803C87.1967 92.433 87.4635 91.87 87.373 91.3963Z" fill="#FACD61"/>
<path fill-rule="evenodd" clip-rule="evenodd" d="M41.5926 15.6036C40.3819 19.5087 38.9545 23.3818 39.0822 27.5332C39.3007 34.5765 44.2946 38.7307 51.0437 39.3022C56.5949 39.7721 64.2511 39.8943 68.9285 36.3538C72.1257 33.9327 74.2983 30.131 74.1659 25.9768C74.1252 24.7212 73.9771 23.4796 73.8049 22.2427C73.5957 25.9439 72.6765 29.5135 70.1457 31.569C66.4866 34.538 61.164 35.289 56.5819 34.8247C52.596 34.4215 47.7029 33.2542 45.3869 29.5436C42.9034 25.5651 42.8145 18.9081 44.8769 14.4729C43.755 14.7859 42.6581 15.1656 41.5926 15.6036Z" fill="#F0A641"/>
<path fill-rule="evenodd" clip-rule="evenodd" d="M87.3888 91.2359C87.387 87.25 87.3058 83.28 87.1892 79.3119C86.5623 85.9974 64.5924 83.8929 60.9895 83.9496C57.5826 83.9998 54.2008 83.6585 50.8004 83.6502C46.5193 83.6418 40.6578 83.9663 37.346 80.6185C34.3374 77.5747 33.9055 73.2355 33.995 69.1427C34.1182 63.5006 34.1331 57.88 34.1284 52.2369C34.121 40.9658 34.1713 28.5852 37.8582 17.6637C37.2322 18.0785 36.6295 18.5202 36.0614 18.9991C30.9556 23.3039 29.2699 30.3819 27.6905 36.6666C25.9105 43.738 25.3535 51.1833 24.8759 58.4342C24.1464 69.4998 23.8497 80.7105 24.1464 91.7976C24.1585 92.2337 24.4244 92.4811 24.7388 92.5667C24.8946 92.7034 25.0998 92.7908 25.361 92.7973C29.8856 92.9089 34.4596 92.3472 39.0029 92.323C44.4519 92.2942 49.9029 92.4058 55.3511 92.5183C65.7212 92.7275 76.2043 93.2176 86.5623 92.4802C87.1967 92.4327 87.4635 91.8692 87.373 91.3949C87.3795 91.3437 87.3888 91.2907 87.3888 91.2359Z" fill="#F0A641"/>
<path fill-rule="evenodd" clip-rule="evenodd" d="M37.9346 65.068C34.5367 65.068 31.7811 62.313 31.7811 58.9164C31.7811 55.5152 34.5367 52.7611 37.9346 52.7611C41.3316 52.7611 44.088 55.5152 44.088 58.9164C44.088 62.313 41.3316 65.068 37.9346 65.068Z" fill="#FFFFFE"/>
<path fill-rule="evenodd" clip-rule="evenodd" d="M38.1627 65.3512C34.7336 65.3512 31.9528 62.5711 31.9528 59.1437C31.9528 55.7117 34.7336 52.9326 38.1627 52.9326C41.5908 52.9326 44.3725 55.7117 44.3725 59.1437C44.3725 62.5711 41.5908 65.3512 38.1627 65.3512ZM38.1625 51.8494C34.1344 51.8494 30.8695 55.1154 30.8695 59.1437C30.8695 63.1711 34.1344 66.4353 38.1625 66.4353C42.1905 66.4353 45.4554 63.1711 45.4554 59.1437C45.4554 55.1154 42.1905 51.8494 38.1625 51.8494Z" fill="#7F1F38"/>
<path fill-rule="evenodd" clip-rule="evenodd" d="M38.7933 58.7641C38.2011 59.1083 38.0316 59.0923 38.1135 58.4208C38.2293 57.4476 38.7312 55.8859 38.8583 55.172C38.3979 55.0768 38.0514 55.0174 37.7501 55.0485C35.4951 55.2767 33.8521 57.2911 34.0819 59.5497C34.3078 61.8064 36.3208 63.451 38.5739 63.2238C40.828 62.9946 42.471 60.9803 42.2441 58.7235C42.1829 58.1209 41.9889 57.5711 41.7046 57.0808C40.8308 57.6513 39.7283 58.2152 38.7933 58.7641Z" fill="#7F1F38"/>
<path fill-rule="evenodd" clip-rule="evenodd" d="M73.0322 65.068C69.6352 65.068 66.8788 62.313 66.8788 58.9164C66.8788 55.5152 69.6352 52.7611 73.0322 52.7611C76.431 52.7611 79.1857 55.5152 79.1857 58.9164C79.1857 62.313 76.431 65.068 73.0322 65.068Z" fill="#FFFFFE"/>
<path fill-rule="evenodd" clip-rule="evenodd" d="M73.2602 65.3512C69.8321 65.3512 67.0504 62.5711 67.0504 59.1437C67.0504 55.7117 69.8321 52.9326 73.2602 52.9326C76.6902 52.9326 79.4701 55.7117 79.4701 59.1437C79.4701 62.5711 76.6902 65.3512 73.2602 65.3512ZM73.26 51.8494C69.2329 51.8494 65.967 55.1154 65.967 59.1437C65.967 63.1711 69.2329 66.4353 73.26 66.4353C77.2881 66.4353 80.553 63.1711 80.553 59.1437C80.553 55.1154 77.2881 51.8494 73.26 51.8494Z" fill="#7F1F38"/>
<path fill-rule="evenodd" clip-rule="evenodd" d="M73.8913 58.7641C73.299 59.1083 73.1296 59.0923 73.2105 58.4208C73.3263 57.4476 73.8282 55.8859 73.9553 55.172C73.4949 55.0768 73.1493 55.0174 72.8471 55.0485C70.5931 55.2767 68.9501 57.2911 69.1789 59.5497C69.4048 61.8064 71.4188 63.451 73.6728 63.2238C75.9259 62.9946 77.5689 60.9803 77.3411 58.7235C77.2808 58.1209 77.0869 57.5711 76.8025 57.0808C75.9288 57.6513 74.8262 58.2152 73.8913 58.7641Z" fill="#7F1F38"/>
<path fill-rule="evenodd" clip-rule="evenodd" d="M60.0289 58.7588C59.9341 57.4632 58.0892 57.431 58.1053 58.7588C58.1187 60.007 57.3627 62.7451 55.7369 62.5129C53.8777 62.2457 54.3224 59.7862 54.1059 58.429C53.9609 57.5315 52.7181 57.6509 52.5043 58.429C51.8136 60.9397 52.8121 64.1782 55.5294 64.5791C58.3549 64.9999 60.2132 61.3178 60.0289 58.7588Z" fill="#7F1F38"/>
<path fill-rule="evenodd" clip-rule="evenodd" d="M93.6983 40.3389C93.4762 40.2653 93.2866 40.16 93.0542 40.1162C92.6424 40.0361 92.4119 39.548 92.517 39.1697C92.6127 38.8195 92.9139 38.6294 93.2587 38.6024C93.6296 38.5745 94.0088 38.6527 94.3202 38.8623C95.0424 39.3533 94.6092 40.6454 93.6983 40.3389ZM24.6575 73.0233C24.6519 75.5582 24.4242 78.0762 24.4734 80.6167C24.4957 81.7681 22.739 81.7597 22.6972 80.6167C22.5977 78.0222 22.7269 75.3821 23.1015 72.8137C23.2335 71.9082 24.6593 72.1532 24.6575 73.0233ZM88.4245 78.4293C88.1243 79.5025 86.6873 79.1913 86.5869 78.1796C86.4986 77.2797 86.5609 76.3584 86.4754 75.4538C86.388 74.5343 86.1761 73.6028 86.2058 72.6786C86.23 71.9101 87.3491 71.4992 87.7311 72.2659C88.2182 73.2478 88.3093 74.3769 88.4152 75.4538C88.5054 76.3956 88.6838 77.4986 88.4245 78.4293ZM67.4918 15.0548C65.8708 14.5853 64.2349 14.4064 62.5693 14.1708C61.6928 14.0431 61.9632 12.7212 62.771 12.6858C64.4989 12.6076 66.2621 13.0696 67.8998 13.5755C68.8395 13.8652 68.4454 15.3334 67.4918 15.0548ZM51.3615 13.8744C49.6336 13.88 48.0618 14.0794 46.4185 14.615C45.555 14.8973 45.1507 13.6853 45.832 13.2177C47.3443 12.1817 49.6001 12.2004 51.3615 12.1939C52.4425 12.1892 52.4425 13.8707 51.3615 13.8744ZM67.1486 38.1255C68.0828 37.751 68.9881 37.315 69.8488 36.798C70.2038 39.5592 70.2076 42.3474 70.1118 45.1272C69.6517 45.1896 69.1926 45.2726 68.738 45.3694C68.2426 42.9436 67.974 40.4703 67.1486 38.1255ZM45.2457 45.7262C44.6155 45.6647 43.9834 45.6125 43.3505 45.565C43.0893 42.937 43.6367 40.3034 44.2604 37.7546C45.1053 38.158 46.006 38.4757 46.9318 38.7356C46.0859 40.9937 45.6918 43.3637 45.2457 45.7262ZM74.1806 17.6279C73.9501 16.5482 72.3049 17.0075 72.5345 18.0816C73.9054 24.5244 74.7708 31.8988 68.4791 35.6409C64.0093 38.3015 58.1126 38.4021 53.086 38.037C48.0622 37.6709 42.3514 36.4514 40.6449 31.0389C39.2126 26.4993 41.1171 21.1334 42.4211 16.7839C42.7251 15.7647 41.1821 15.3576 40.8485 16.3479C39.102 21.5275 37.3406 27.6014 39.4914 32.9217C40.2108 34.7019 41.4043 35.9931 42.8552 36.9535C42.0298 40.092 41.3968 43.2752 41.8607 46.5209C41.9136 46.8944 42.3105 47.078 42.6312 47.1124C43.7103 47.2214 44.7932 47.2773 45.8742 47.3351C46.1976 47.3528 46.5573 47.0882 46.6205 46.7659C47.1327 44.1901 47.6234 41.5891 48.538 39.1204C50.0773 39.4343 51.636 39.6216 53.086 39.7576C57.198 40.1461 61.6725 39.9495 65.7083 38.65C66.4891 41.2295 66.7819 43.8948 67.3721 46.519C67.4669 46.9429 67.941 47.1739 68.3416 47.0724C69.1893 46.8535 69.9998 46.6895 70.8753 46.5991C71.3196 46.5507 71.6394 46.2731 71.6626 45.811C71.8253 42.4536 71.8104 39.1241 71.3048 35.7937C76.6679 31.5858 75.467 23.6664 74.1806 17.6279Z" fill="#D0692D"/>
<mask id="mask0_333_7705" style="mask-type:luminance" maskUnits="userSpaceOnUse" x="0" y="1" width="110" height="121">
<path fill-rule="evenodd" clip-rule="evenodd" d="M0.274902 121.589H110V1.85596H0.274902V121.589Z" fill="white"/>
</mask>
<g mask="url(#mask0_333_7705)">
<path fill-rule="evenodd" clip-rule="evenodd" d="M20.6447 85.0113C20.6613 85.6438 20.3017 86.0963 19.6658 86.1606C19.003 86.2278 18.6258 85.4022 18.9048 84.8733C19.0929 83.8788 20.6159 83.9077 20.6447 85.0113ZM83.0545 75.0949C82.6568 74.2693 81.3508 74.4988 81.1468 75.3477C81.0273 75.8421 81.0143 76.3543 80.9642 76.8627C80.917 77.3571 80.6926 77.8161 80.6259 78.3068C80.4424 79.666 81.982 80.3862 82.8144 79.2369C83.581 78.1808 83.6042 76.2367 83.0545 75.0949ZM103.509 37.9141C103.295 37.0054 102.912 36.1183 102.517 35.2759C102.348 34.9121 101.862 34.7563 101.5 34.8579C101.005 34.9969 100.772 35.4904 100.871 35.9718C101.06 36.8953 101.314 37.8226 101.746 38.6622C102.266 39.6697 103.755 38.957 103.509 37.9141ZM77.8517 23.4473C77.3039 22.8521 76.3816 23.4762 76.5567 24.2057C77.0962 26.4624 77.9509 28.6238 78.4644 30.8926C78.9974 33.2453 79.1791 35.6661 79.7769 37.9992C80.0847 39.2054 82.035 38.9778 81.959 37.7035C81.6874 33.1921 81.032 26.8989 77.8517 23.4473ZM69.9941 17.0263C69.5807 16.3583 68.7316 15.9796 67.9678 16.2324C67.5535 16.3742 67.2513 16.7249 67.2513 17.1792C67.2513 17.6559 67.5599 17.9554 67.9678 18.1243C67.9956 18.1354 68.1754 18.2166 68.2199 18.2306C68.3404 18.3024 68.4498 18.392 68.5712 18.4573C69.4583 18.9498 70.5651 17.9451 69.9941 17.0263ZM64.693 15.571C63.5973 14.9039 62.3422 14.7276 61.0909 14.583C60.0851 14.4674 58.6029 14.1903 57.7261 14.8163C57.2524 15.1502 57.1838 15.7081 57.5536 16.1549C58.1812 16.9162 59.401 16.946 60.315 17.0524C61.4978 17.1914 62.65 17.4526 63.8216 17.6503C65.0433 17.8546 65.8507 16.2743 64.693 15.571ZM61.5783 4.48287C61.2872 4.77673 60.7533 4.88401 60.3946 4.6368C60.0127 4.36906 59.6734 3.90076 59.3434 3.68993C58.4452 3.11714 59.0125 1.54898 60.0896 1.90907C60.7579 2.13482 61.4327 2.62738 61.7312 3.29159C61.9157 3.69926 61.9138 4.14424 61.5783 4.48287Z" fill="#FFFFFE"/>
<path fill-rule="evenodd" clip-rule="evenodd" d="M109.91 119.113C109.95 118.982 109.967 118.84 109.944 118.685C109.235 113.724 107.926 108.35 105.087 104.14C107.046 99.5839 109.334 94.1769 108.853 89.1347C108.844 89.0554 108.818 88.9948 108.797 88.9258C108.814 88.4808 108.541 88.0218 107.967 88.0181C90.4026 87.8753 72.9038 87.2606 55.3308 87.3921C46.2524 87.4602 37.173 87.3725 28.0945 87.4733C19.2403 87.5703 10.3741 88.4295 1.51999 88.1421C1.06486 88.13 0.238951 88.1281 0.292713 89.3866C0.524449 94.7674 2.3255 99.9029 5.03124 104.401C2.57021 109.186 0.0201922 114.416 0.295494 119.922C0.300129 120.014 0.328864 120.084 0.352965 120.158C0.347403 120.639 0.654221 121.129 1.27064 121.131C9.91901 121.169 18.5405 121.711 27.1926 121.563C36.8254 121.396 46.447 120.822 56.0761 120.525C65.6765 120.227 105.74 121.129 109.425 120.209C110.003 120.064 110.104 119.524 109.91 119.113Z" fill="#C18698"/>
</g>
<path fill-rule="evenodd" clip-rule="evenodd" d="M24.6777 110.951C18.0597 117.637 18.8183 92.9966 24.9217 97.5352C25.7811 98.1744 26.5906 96.7174 25.7444 96.0903C16.733 89.3905 14.3621 121.042 25.9884 112.301C26.9543 111.574 25.5267 110.094 24.6777 110.951Z" fill="#FFFFFE"/>
<path fill-rule="evenodd" clip-rule="evenodd" d="M57.4955 110.951C50.8782 117.637 51.6368 92.9966 57.7396 97.5352C58.599 98.1744 59.4104 96.7174 58.5623 96.0903C49.5513 89.3905 47.1803 121.042 58.8073 112.301C59.7723 111.574 58.3446 110.094 57.4955 110.951Z" fill="#FFFFFE"/>
<path fill-rule="evenodd" clip-rule="evenodd" d="M43.8929 104.413C43.4336 104.468 42.9285 104.493 42.4444 104.568C42.9486 102.266 43.5904 100.013 44.6538 97.9263C45.4047 99.9546 45.7979 102.054 46.0601 104.182C45.3368 104.253 44.6144 104.33 43.8929 104.413ZM45.5082 95.5636C45.2194 94.9593 44.3467 95.0714 44.0295 95.5636C40.7108 100.718 40.4073 107.122 39.0964 112.946C38.8782 113.916 40.3386 114.322 40.6017 113.356C41.2343 111.045 41.6312 108.627 42.1015 106.228C42.6937 106.247 43.3126 106.123 43.8929 106.069C44.6749 105.987 45.4587 105.91 46.2416 105.833C46.4965 108.468 46.6358 111.122 47.0713 113.727C47.2198 114.614 48.6866 114.401 48.6454 113.516C48.3676 107.589 48.088 101.013 45.5082 95.5636Z" fill="#FFFFFE"/>
<path fill-rule="evenodd" clip-rule="evenodd" d="M88.5837 112.249C85.476 113.52 85.7986 104.617 86.2867 100.783C86.5289 99.7379 86.7227 98.6811 87.4475 97.8472C89.0434 96.0191 90.2097 98.3919 90.4793 99.1577C90.9537 100.509 91.057 102.003 91.1447 103.424C91.2928 105.836 91.3714 111.111 88.5837 112.249ZM92.0882 99.0934C91.6796 97.4434 90.4201 95.4828 88.4732 95.6134C86.8454 95.7234 85.5273 97.4331 85.0694 98.9852C84.0155 102.544 83.9378 106.908 84.7358 110.48C85.4789 113.809 88.8626 115.203 91.0718 112.138C93.5177 108.741 93.0342 102.903 92.0882 99.0934Z" fill="#FFFFFE"/>
<path fill-rule="evenodd" clip-rule="evenodd" d="M69.8898 96.0551C69.8852 95.0094 68.5568 94.9408 68.2226 95.8219C66.3266 100.815 64.3994 105.805 62.171 110.655C62.5134 109.846 62.4466 99.0943 62.4219 95.9385C62.4164 95.0395 60.9644 94.8336 60.9021 95.7259C60.5121 101.35 60.2036 107.368 60.9662 113.128C61.0156 113.5 61.4377 113.761 61.7719 113.761C61.8121 113.761 61.8533 113.761 61.8936 113.761C62.1765 113.761 62.4823 113.601 62.616 113.335C64.6384 109.314 66.745 104.931 68.2501 100.693C68.3462 104.844 67.9489 109.131 68.489 113.246C68.609 114.17 70.1425 113.953 70.0665 113.026C69.5996 107.414 69.9127 101.689 69.8898 96.0551Z" fill="#FFFFFE"/>
<path fill-rule="evenodd" clip-rule="evenodd" d="M37.2477 96.1527C37.2495 95.6508 36.8554 95.3081 36.3926 95.2762C33.888 95.1049 31.3926 95.1423 28.8797 95.1985C28.3729 95.2079 28.0549 95.5881 28.0238 96.0703C27.7039 101.349 27.4583 107.504 27.988 113.184C28.0852 114.228 29.5148 113.776 29.5111 112.756C29.4864 107.38 29.5487 102.165 29.6413 96.9534C31.6079 96.9646 33.5728 96.8316 35.5348 96.9693C35.5413 102.223 35.4899 107.713 35.4927 112.971C35.4927 114.129 37.2504 114.129 37.2504 112.971C37.2541 107.442 37.2385 101.68 37.2477 96.1527Z" fill="#FFFFFE"/>
<path fill-rule="evenodd" clip-rule="evenodd" d="M79.8051 110.861C78.8753 112.355 76.3788 112.175 74.6802 111.948C74.6792 109.141 74.7877 106.294 74.8364 103.457C77.5845 103.286 80.2831 103.557 80.5702 106.926C80.6843 108.291 80.5431 109.678 79.8051 110.861ZM74.8542 101.817C74.8654 100.057 74.8411 98.652 74.7289 96.916C76.7287 97.1115 77.3657 96.8857 79.3487 96.9358C80.5029 96.966 80.4992 95.2158 79.3487 95.1855C77.0991 95.1289 75.9112 95.1213 73.8103 95.3329C73.2622 95.3858 73.1088 95.9875 73.0892 96.2463C72.7 101.83 72.8095 107.061 72.8497 112.651C72.8506 112.837 72.9049 112.992 72.9844 113.118C73.0686 113.338 73.2585 113.514 73.5877 113.561C75.7026 113.863 78.4956 114.228 80.3093 112.819C82.0117 111.501 82.398 109.428 82.3756 107.407C82.3307 103.024 78.7949 101.145 74.8542 101.817Z" fill="#FFFFFE"/>
<path fill-rule="evenodd" clip-rule="evenodd" d="M55.8846 117.099C47.5178 117.329 39.1585 117.803 30.7908 118.002C22.6683 118.197 12.3361 117.696 4.22094 117.625C4.52267 112.911 6.55772 108.982 8.37182 104.672C8.63548 104.445 8.76732 104.073 8.54729 103.674C6.35997 99.7251 4.75755 95.7491 4.26736 91.2732C11.7549 91.475 21.491 90.7808 28.9767 90.6522C37.2831 90.5115 45.5914 90.5846 53.8987 90.5448C62.1308 90.506 70.35 90.207 78.5821 90.3829C86.6183 90.5587 96.8929 90.9234 104.932 90.9197C104.39 95.3659 103.014 99.3475 101.397 103.532C101.312 103.753 101.35 103.958 101.456 104.126C101.463 104.228 101.489 104.337 101.549 104.449C103.677 108.514 105.082 112.659 105.764 117.184C99.4015 117.718 63.8224 116.882 55.8846 117.099ZM107.363 117.52C107.4 117.404 107.413 117.277 107.394 117.135C106.744 112.642 105.549 107.771 102.953 103.959C104.744 99.8307 106.834 94.9328 106.396 90.3644C106.388 90.2913 106.364 90.2348 106.344 90.1747C106.361 89.7721 106.111 89.3565 105.586 89.3519C89.5216 89.2223 71.2757 88.6679 55.2033 88.7864C46.9006 88.8484 38.5979 88.7688 30.2952 88.8595C22.1968 88.9456 11.8451 89.7249 3.7476 89.4676C3.33168 89.4537 2.5741 89.45 2.62516 90.5921C2.83684 95.4668 4.48475 100.117 6.95894 104.195C4.70849 108.53 2.37635 113.268 2.62795 118.256C2.63259 118.338 2.65951 118.402 2.67901 118.472C2.67622 118.908 2.95567 119.346 3.52014 119.35C11.4292 119.385 21.5562 119.877 29.4699 119.742C38.2785 119.591 47.0788 119.073 55.8847 118.802C64.6665 118.531 103.55 119.35 106.922 118.515C107.449 118.385 107.541 117.894 107.363 117.52Z" fill="#9C265D"/>
</svg>
