<svg width="190" height="228" viewBox="0 0 190 228" fill="none" xmlns="http://www.w3.org/2000/svg">
<path fill-rule="evenodd" clip-rule="evenodd" d="M0 10C0 4.47715 4.47715 0 10 0H180C185.523 0 190 4.47715 190 10V30C190 35.5228 185.523 40 180 40H10C4.47715 40 0 35.5228 0 30V10Z" fill="#007EA7"/>
<path d="M166.354 23.8464C166.158 24.0417 165.842 24.0417 165.646 23.8464L162.154 20.3535C161.958 20.1583 161.642 20.1583 161.446 20.3535L160.754 21.0464C160.558 21.2417 160.558 21.5583 160.754 21.7535L165.646 26.6464C165.842 26.8417 166.158 26.8417 166.354 26.6464L177.646 15.3535C177.842 15.1583 177.842 14.8417 177.646 14.6464L176.954 13.9535C176.758 13.7583 176.442 13.7583 176.246 13.9535L166.354 23.8464Z" fill="black"/>
<mask id="mask0_333_7768" style="mask-type:luminance" maskUnits="userSpaceOnUse" x="160" y="13" width="18" height="14">
<path d="M166.354 23.8464C166.158 24.0417 165.842 24.0417 165.646 23.8464L162.154 20.3535C161.958 20.1583 161.642 20.1583 161.446 20.3535L160.754 21.0464C160.558 21.2417 160.558 21.5583 160.754 21.7535L165.646 26.6464C165.842 26.8417 166.158 26.8417 166.354 26.6464L177.646 15.3535C177.842 15.1583 177.842 14.8417 177.646 14.6464L176.954 13.9535C176.758 13.7583 176.442 13.7583 176.246 13.9535L166.354 23.8464Z" fill="white"/>
</mask>
<g mask="url(#mask0_333_7768)">
<rect x="157" y="8" width="24" height="24" fill="white"/>
</g>
<path fill-rule="evenodd" clip-rule="evenodd" d="M1 59C1 53.4772 5.47715 49 11 49H179C184.523 49 189 53.4772 189 59V79C189 84.5228 184.523 89 179 89H11C5.47715 89 1 84.5228 1 79V59Z" fill="white" fill-opacity="0.5"/>
<path d="M12.7622 67.9795V71.5786C12.7622 71.9976 12.7284 72.6133 12.6606 73.4258L16.1836 67.9795H18.0054V75H16.5708V71.4644C16.5708 71.2697 16.5814 70.9544 16.6025 70.5186C16.6279 70.0827 16.6491 69.7653 16.666 69.5664L13.1558 75H11.334V67.9795H12.7622ZM21.6807 70.7852C22.362 70.7852 22.8634 70.7111 23.1851 70.563C23.5067 70.4106 23.6675 70.1779 23.6675 69.8647C23.6675 69.2935 23.1597 69.0078 22.144 69.0078C21.467 69.0078 20.7751 69.1602 20.0684 69.4648L19.5859 68.354C20.4027 68.0197 21.304 67.8525 22.29 67.8525C23.1618 67.8525 23.8389 68.0133 24.3213 68.335C24.8037 68.6523 25.0449 69.1094 25.0449 69.7061C25.0449 70.4932 24.5942 71.0094 23.6929 71.2549V71.3057C24.2557 71.458 24.6577 71.6759 24.8989 71.9595C25.1444 72.243 25.2671 72.5942 25.2671 73.0132C25.2671 73.6564 24.9836 74.1706 24.4165 74.5557C23.8537 74.9365 23.0666 75.127 22.0552 75.127C20.9507 75.127 20.1064 74.981 19.5225 74.689V73.4004C20.2969 73.7643 21.0988 73.9463 21.9282 73.9463C22.5249 73.9463 22.984 73.8638 23.3057 73.6987C23.6315 73.5295 23.7944 73.2734 23.7944 72.9307C23.7944 72.5794 23.6315 72.3213 23.3057 72.1562C22.9798 71.9912 22.4762 71.9087 21.7949 71.9087H20.938V70.7852H21.6807ZM34.3696 66.8877C33.4979 66.8877 32.8123 67.1966 32.313 67.8145C31.8136 68.4323 31.564 69.285 31.564 70.3726C31.564 71.5109 31.8031 72.3721 32.2812 72.9561C32.7637 73.54 33.4598 73.832 34.3696 73.832C34.7632 73.832 35.144 73.7939 35.5122 73.7178C35.8804 73.6374 36.2633 73.5358 36.6611 73.4131V74.7144C35.9333 74.9894 35.1081 75.127 34.1855 75.127C32.8271 75.127 31.784 74.7165 31.0562 73.8955C30.3283 73.0703 29.9644 71.8918 29.9644 70.3599C29.9644 69.395 30.14 68.5508 30.4912 67.8271C30.8467 67.1035 31.3587 66.5492 32.0273 66.1641C32.696 65.779 33.481 65.5864 34.3823 65.5864C35.3302 65.5864 36.2062 65.7853 37.0103 66.1831L36.4644 67.4463C36.1512 67.2982 35.819 67.1691 35.4678 67.0591C35.1208 66.9448 34.7547 66.8877 34.3696 66.8877ZM45.7954 75H44.272V67.021H40.1777V75H38.6606V65.7197H45.7954V75ZM47.6807 70.7852C47.6807 69.2194 47.9451 68.0155 48.4741 67.1733C49.0073 66.3312 49.8537 65.7896 51.0132 65.5483C51.8892 65.3706 52.8984 65.1971 54.041 65.0278L54.2505 66.3418C52.8625 66.5534 51.8468 66.7184 51.2036 66.8369C50.5392 66.9596 50.0589 67.2326 49.7627 67.6558C49.4707 68.0789 49.3014 68.7158 49.2549 69.5664H49.3501C49.5913 69.2152 49.9066 68.9443 50.2959 68.7539C50.6852 68.5592 51.1021 68.4619 51.5464 68.4619C52.4097 68.4619 53.0825 68.7349 53.5649 69.2808C54.0474 69.8267 54.2886 70.5926 54.2886 71.5786C54.2886 72.7085 53.9945 73.5824 53.4062 74.2002C52.8223 74.818 52.0119 75.127 50.9751 75.127C49.9468 75.127 49.1406 74.7461 48.5566 73.9844C47.9727 73.2227 47.6807 72.1562 47.6807 70.7852ZM51.0767 73.9082C52.1854 73.9082 52.7397 73.1803 52.7397 71.7246C52.7397 70.3197 52.2383 69.6172 51.2354 69.6172C50.9603 69.6172 50.6937 69.6764 50.4355 69.7949C50.1774 69.9134 49.9383 70.07 49.7183 70.2646C49.5024 70.4593 49.3353 70.6603 49.2168 70.8677C49.2168 71.8664 49.3755 72.6239 49.6929 73.1401C50.0103 73.6522 50.4715 73.9082 51.0767 73.9082Z" fill="#222222"/>
<rect x="0.5" y="48.5" width="189" height="41" rx="10.5" stroke="#007EA7" stroke-opacity="0.5"/>
<path fill-rule="evenodd" clip-rule="evenodd" d="M1 111C1 105.477 5.47715 101 11 101H179C184.523 101 189 105.477 189 111V131C189 136.523 184.523 141 179 141H11C5.47715 141 1 136.523 1 131V111Z" fill="white" fill-opacity="0.5"/>
<path d="M12.7622 119.979V123.579C12.7622 123.998 12.7284 124.613 12.6606 125.426L16.1836 119.979H18.0054V127H16.5708V123.464C16.5708 123.27 16.5814 122.954 16.6025 122.519C16.6279 122.083 16.6491 121.765 16.666 121.566L13.1558 127H11.334V119.979H12.7622ZM21.6807 122.785C22.362 122.785 22.8634 122.711 23.1851 122.563C23.5067 122.411 23.6675 122.178 23.6675 121.865C23.6675 121.293 23.1597 121.008 22.144 121.008C21.467 121.008 20.7751 121.16 20.0684 121.465L19.5859 120.354C20.4027 120.02 21.304 119.853 22.29 119.853C23.1618 119.853 23.8389 120.013 24.3213 120.335C24.8037 120.652 25.0449 121.109 25.0449 121.706C25.0449 122.493 24.5942 123.009 23.6929 123.255V123.306C24.2557 123.458 24.6577 123.676 24.8989 123.959C25.1444 124.243 25.2671 124.594 25.2671 125.013C25.2671 125.656 24.9836 126.171 24.4165 126.556C23.8537 126.937 23.0666 127.127 22.0552 127.127C20.9507 127.127 20.1064 126.981 19.5225 126.689V125.4C20.2969 125.764 21.0988 125.946 21.9282 125.946C22.5249 125.946 22.984 125.864 23.3057 125.699C23.6315 125.529 23.7944 125.273 23.7944 124.931C23.7944 124.579 23.6315 124.321 23.3057 124.156C22.9798 123.991 22.4762 123.909 21.7949 123.909H20.938V122.785H21.6807ZM35.6709 127H30.4214V117.72H35.6709V119.002H31.9385V121.528H35.436V122.798H31.9385V125.711H35.6709V127ZM41.8789 119.979H43.5166L40.6157 123.363L43.7642 127H42.0503L39.0161 123.439V127H37.5244V119.979H39.0161V123.388L41.8789 119.979ZM49.3184 127L49.02 126.022H48.9692C48.6307 126.45 48.29 126.742 47.9473 126.898C47.6045 127.051 47.1644 127.127 46.627 127.127C45.9372 127.127 45.3976 126.941 45.0083 126.568C44.6232 126.196 44.4307 125.669 44.4307 124.988C44.4307 124.264 44.6994 123.718 45.2368 123.35C45.7743 122.982 46.5931 122.781 47.6934 122.747L48.9058 122.709V122.334C48.9058 121.886 48.8 121.552 48.5884 121.332C48.381 121.107 48.0573 120.995 47.6172 120.995C47.2575 120.995 46.9126 121.048 46.5825 121.154C46.2524 121.26 45.9351 121.384 45.6304 121.528L45.1479 120.462C45.5288 120.263 45.9456 120.113 46.3984 120.011C46.8512 119.905 47.2786 119.853 47.6807 119.853C48.5736 119.853 49.2464 120.047 49.6992 120.437C50.1562 120.826 50.3848 121.437 50.3848 122.271V127H49.3184ZM47.0967 125.984C47.6383 125.984 48.0721 125.834 48.3979 125.534C48.728 125.229 48.8931 124.804 48.8931 124.258V123.648L47.9917 123.687C47.2892 123.712 46.7772 123.83 46.4556 124.042C46.1382 124.249 45.9795 124.569 45.9795 125C45.9795 125.314 46.0726 125.557 46.2588 125.73C46.445 125.9 46.7243 125.984 47.0967 125.984ZM57.7417 119.979V121.147H55.4565V127H53.9585V121.147H51.6733V119.979H57.7417ZM62.1597 127.127C61.0679 127.127 60.2131 126.81 59.5952 126.175C58.9816 125.536 58.6748 124.658 58.6748 123.541C58.6748 122.394 58.9604 121.492 59.5317 120.836C60.103 120.181 60.888 119.853 61.8867 119.853C62.8135 119.853 63.5456 120.134 64.083 120.697C64.6204 121.26 64.8892 122.034 64.8892 123.02V123.826H60.2109C60.2321 124.507 60.4162 125.032 60.7632 125.4C61.1102 125.764 61.599 125.946 62.2295 125.946C62.6442 125.946 63.0293 125.908 63.3848 125.832C63.7445 125.752 64.1296 125.62 64.54 125.438V126.651C64.1761 126.824 63.8079 126.947 63.4355 127.019C63.0632 127.091 62.6379 127.127 62.1597 127.127ZM61.8867 120.982C61.4128 120.982 61.0319 121.133 60.7441 121.433C60.4606 121.734 60.2913 122.172 60.2363 122.747H63.4229C63.4144 122.167 63.2747 121.729 63.0039 121.433C62.7331 121.133 62.3607 120.982 61.8867 120.982ZM70.145 127.127C69.2563 127.127 68.5666 126.807 68.0757 126.168H67.9868C68.0461 126.761 68.0757 127.121 68.0757 127.248V130.123H66.584V119.979H67.79C67.8239 120.111 67.8937 120.424 67.9995 120.919H68.0757C68.5412 120.208 69.2394 119.853 70.1704 119.853C71.0464 119.853 71.7277 120.17 72.2144 120.805C72.7052 121.439 72.9507 122.33 72.9507 123.477C72.9507 124.624 72.701 125.519 72.2017 126.162C71.7065 126.805 71.021 127.127 70.145 127.127ZM69.7832 121.071C69.1908 121.071 68.757 121.245 68.4819 121.592C68.2111 121.939 68.0757 122.493 68.0757 123.255V123.477C68.0757 124.332 68.2111 124.952 68.4819 125.337C68.7528 125.718 69.195 125.908 69.8086 125.908C70.3249 125.908 70.7227 125.697 71.002 125.273C71.2812 124.85 71.4209 124.247 71.4209 123.464C71.4209 122.677 71.2812 122.083 71.002 121.681C70.7269 121.274 70.3206 121.071 69.7832 121.071ZM76.1118 119.979V123.579C76.1118 123.998 76.078 124.613 76.0103 125.426L79.5332 119.979H81.355V127H79.9204V123.464C79.9204 123.27 79.931 122.954 79.9521 122.519C79.9775 122.083 79.9987 121.765 80.0156 121.566L76.5054 127H74.6836V119.979H76.1118ZM84.9731 119.979V122.798H88.2803V119.979H89.772V127H88.2803V123.972H84.9731V127H83.4814V119.979H84.9731ZM91.5049 122.785C91.5049 121.219 91.7694 120.015 92.2983 119.173C92.8315 118.331 93.6779 117.79 94.8374 117.548C95.7134 117.371 96.7227 117.197 97.8652 117.028L98.0747 118.342C96.6867 118.553 95.6711 118.718 95.0278 118.837C94.3634 118.96 93.8831 119.233 93.5869 119.656C93.2949 120.079 93.1257 120.716 93.0791 121.566H93.1743C93.4155 121.215 93.7308 120.944 94.1201 120.754C94.5094 120.559 94.9263 120.462 95.3706 120.462C96.2339 120.462 96.9067 120.735 97.3892 121.281C97.8716 121.827 98.1128 122.593 98.1128 123.579C98.1128 124.708 97.8187 125.582 97.2305 126.2C96.6465 126.818 95.8361 127.127 94.7993 127.127C93.771 127.127 92.9648 126.746 92.3809 125.984C91.7969 125.223 91.5049 124.156 91.5049 122.785ZM94.9009 125.908C96.0096 125.908 96.564 125.18 96.564 123.725C96.564 122.32 96.0625 121.617 95.0596 121.617C94.7845 121.617 94.5179 121.676 94.2598 121.795C94.0016 121.913 93.7625 122.07 93.5425 122.265C93.3267 122.459 93.1595 122.66 93.041 122.868C93.041 123.866 93.1997 124.624 93.5171 125.14C93.8345 125.652 94.2957 125.908 94.9009 125.908ZM98.7666 119.979H100.392L101.82 123.959C102.036 124.527 102.18 125.06 102.251 125.559H102.302C102.34 125.326 102.41 125.045 102.512 124.715C102.613 124.381 103.151 122.802 104.124 119.979H105.736L102.734 127.933C102.188 129.393 101.278 130.123 100.004 130.123C99.6743 130.123 99.3527 130.087 99.0396 130.015V128.834C99.2638 128.885 99.5199 128.911 99.8076 128.911C100.527 128.911 101.033 128.494 101.325 127.66L101.585 127L98.7666 119.979ZM110.364 127.127C109.475 127.127 108.785 126.807 108.294 126.168H108.206C108.265 126.761 108.294 127.121 108.294 127.248V130.123H106.803V119.979H108.009C108.043 120.111 108.112 120.424 108.218 120.919H108.294C108.76 120.208 109.458 119.853 110.389 119.853C111.265 119.853 111.946 120.17 112.433 120.805C112.924 121.439 113.169 122.33 113.169 123.477C113.169 124.624 112.92 125.519 112.42 126.162C111.925 126.805 111.24 127.127 110.364 127.127ZM110.002 121.071C109.41 121.071 108.976 121.245 108.701 121.592C108.43 121.939 108.294 122.493 108.294 123.255V123.477C108.294 124.332 108.43 124.952 108.701 125.337C108.972 125.718 109.414 125.908 110.027 125.908C110.544 125.908 110.941 125.697 111.221 125.273C111.5 124.85 111.64 124.247 111.64 123.464C111.64 122.677 111.5 122.083 111.221 121.681C110.946 121.274 110.539 121.071 110.002 121.071ZM119.441 119.979V121.147H116.394V127H114.902V119.979H119.441ZM125.186 127L124.887 126.022H124.836C124.498 126.45 124.157 126.742 123.814 126.898C123.472 127.051 123.032 127.127 122.494 127.127C121.804 127.127 121.265 126.941 120.875 126.568C120.49 126.196 120.298 125.669 120.298 124.988C120.298 124.264 120.567 123.718 121.104 123.35C121.641 122.982 122.46 122.781 123.561 122.747L124.773 122.709V122.334C124.773 121.886 124.667 121.552 124.456 121.332C124.248 121.107 123.924 120.995 123.484 120.995C123.125 120.995 122.78 121.048 122.45 121.154C122.12 121.26 121.802 121.384 121.498 121.528L121.015 120.462C121.396 120.263 121.813 120.113 122.266 120.011C122.718 119.905 123.146 119.853 123.548 119.853C124.441 119.853 125.114 120.047 125.566 120.437C126.023 120.826 126.252 121.437 126.252 122.271V127H125.186ZM122.964 125.984C123.506 125.984 123.939 125.834 124.265 125.534C124.595 125.229 124.76 124.804 124.76 124.258V123.648L123.859 123.687C123.156 123.712 122.644 123.83 122.323 124.042C122.005 124.249 121.847 124.569 121.847 125C121.847 125.314 121.94 125.557 122.126 125.73C122.312 125.9 122.591 125.984 122.964 125.984Z" fill="#222222"/>
<rect x="0.5" y="100.5" width="189" height="41" rx="10.5" stroke="#007EA7" stroke-opacity="0.5"/>
<path fill-rule="evenodd" clip-rule="evenodd" d="M1 163C1 157.477 5.47715 153 11 153H179C184.523 153 189 157.477 189 163V183C189 188.523 184.523 193 179 193H11C5.47715 193 1 188.523 1 183V163Z" fill="white" fill-opacity="0.5"/>
<path d="M12.7622 171.979V175.579C12.7622 175.998 12.7284 176.613 12.6606 177.426L16.1836 171.979H18.0054V179H16.5708V175.464C16.5708 175.27 16.5814 174.954 16.6025 174.519C16.6279 174.083 16.6491 173.765 16.666 173.566L13.1558 179H11.334V171.979H12.7622ZM21.6807 174.785C22.362 174.785 22.8634 174.711 23.1851 174.563C23.5067 174.411 23.6675 174.178 23.6675 173.865C23.6675 173.293 23.1597 173.008 22.144 173.008C21.467 173.008 20.7751 173.16 20.0684 173.465L19.5859 172.354C20.4027 172.02 21.304 171.853 22.29 171.853C23.1618 171.853 23.8389 172.013 24.3213 172.335C24.8037 172.652 25.0449 173.109 25.0449 173.706C25.0449 174.493 24.5942 175.009 23.6929 175.255V175.306C24.2557 175.458 24.6577 175.676 24.8989 175.959C25.1444 176.243 25.2671 176.594 25.2671 177.013C25.2671 177.656 24.9836 178.171 24.4165 178.556C23.8537 178.937 23.0666 179.127 22.0552 179.127C20.9507 179.127 20.1064 178.981 19.5225 178.689V177.4C20.2969 177.764 21.0988 177.946 21.9282 177.946C22.5249 177.946 22.984 177.864 23.3057 177.699C23.6315 177.529 23.7944 177.273 23.7944 176.931C23.7944 176.579 23.6315 176.321 23.3057 176.156C22.9798 175.991 22.4762 175.909 21.7949 175.909H20.938V174.785H21.6807ZM37.5435 179H35.7598L31.9385 174.296V179H30.4214V169.72H31.9385V174.214L35.6963 169.72H37.3594L33.6143 174.201L37.5435 179ZM43.0088 179L42.7104 178.022H42.6597C42.3211 178.45 41.9805 178.742 41.6377 178.898C41.2949 179.051 40.8548 179.127 40.3174 179.127C39.6276 179.127 39.0881 178.941 38.6987 178.568C38.3136 178.196 38.1211 177.669 38.1211 176.988C38.1211 176.264 38.3898 175.718 38.9272 175.35C39.4647 174.982 40.2835 174.781 41.3838 174.747L42.5962 174.709V174.334C42.5962 173.886 42.4904 173.552 42.2788 173.332C42.0715 173.107 41.7477 172.995 41.3076 172.995C40.9479 172.995 40.603 173.048 40.2729 173.154C39.9429 173.26 39.6255 173.384 39.3208 173.528L38.8384 172.462C39.2192 172.263 39.6361 172.113 40.0889 172.011C40.5417 171.905 40.9691 171.853 41.3711 171.853C42.264 171.853 42.9368 172.047 43.3896 172.437C43.8467 172.826 44.0752 173.437 44.0752 174.271V179H43.0088ZM40.7871 177.984C41.3288 177.984 41.7625 177.834 42.0884 177.534C42.4185 177.229 42.5835 176.804 42.5835 176.258V175.648L41.6821 175.687C40.9797 175.712 40.4676 175.83 40.146 176.042C39.8286 176.249 39.6699 176.569 39.6699 177C39.6699 177.314 39.763 177.557 39.9492 177.73C40.1354 177.9 40.4147 177.984 40.7871 177.984ZM47.7061 174.785C48.3874 174.785 48.8888 174.711 49.2104 174.563C49.5321 174.411 49.6929 174.178 49.6929 173.865C49.6929 173.293 49.1851 173.008 48.1694 173.008C47.4924 173.008 46.8005 173.16 46.0938 173.465L45.6113 172.354C46.4281 172.02 47.3294 171.853 48.3154 171.853C49.1872 171.853 49.8643 172.013 50.3467 172.335C50.8291 172.652 51.0703 173.109 51.0703 173.706C51.0703 174.493 50.6196 175.009 49.7183 175.255V175.306C50.2811 175.458 50.6831 175.676 50.9243 175.959C51.1698 176.243 51.2925 176.594 51.2925 177.013C51.2925 177.656 51.009 178.171 50.4419 178.556C49.8791 178.937 49.092 179.127 48.0806 179.127C46.9761 179.127 46.1318 178.981 45.5479 178.689V177.4C46.3223 177.764 47.1242 177.946 47.9536 177.946C48.5503 177.946 49.0094 177.864 49.3311 177.699C49.6569 177.529 49.8198 177.273 49.8198 176.931C49.8198 176.579 49.6569 176.321 49.3311 176.156C49.0052 175.991 48.5016 175.909 47.8203 175.909H46.9634V174.785H47.7061ZM57.3037 179L57.0054 178.022H56.9546C56.616 178.45 56.2754 178.742 55.9326 178.898C55.5898 179.051 55.1497 179.127 54.6123 179.127C53.9225 179.127 53.383 178.941 52.9937 178.568C52.6086 178.196 52.416 177.669 52.416 176.988C52.416 176.264 52.6847 175.718 53.2222 175.35C53.7596 174.982 54.5785 174.781 55.6787 174.747L56.8911 174.709V174.334C56.8911 173.886 56.7853 173.552 56.5737 173.332C56.3664 173.107 56.0426 172.995 55.6025 172.995C55.2428 172.995 54.8979 173.048 54.5679 173.154C54.2378 173.26 53.9204 173.384 53.6157 173.528L53.1333 172.462C53.5142 172.263 53.931 172.113 54.3838 172.011C54.8366 171.905 55.264 171.853 55.666 171.853C56.5589 171.853 57.2318 172.047 57.6846 172.437C58.1416 172.826 58.3701 173.437 58.3701 174.271V179H57.3037ZM55.082 177.984C55.6237 177.984 56.0575 177.834 56.3833 177.534C56.7134 177.229 56.8784 176.804 56.8784 176.258V175.648L55.9771 175.687C55.2746 175.712 54.7625 175.83 54.4409 176.042C54.1235 176.249 53.9648 176.569 53.9648 177C53.9648 177.314 54.0579 177.557 54.2441 177.73C54.4303 177.9 54.7096 177.984 55.082 177.984ZM61.9438 171.979V174.798H65.251V171.979H66.7427V179H65.251V175.972H61.9438V179H60.4521V171.979H61.9438ZM70.3101 171.979V175.579C70.3101 175.998 70.2762 176.613 70.2085 177.426L73.7314 171.979H75.5532V179H74.1187V175.464C74.1187 175.27 74.1292 174.954 74.1504 174.519C74.1758 174.083 74.1969 173.765 74.2139 173.566L70.7036 179H68.8818V171.979H70.3101Z" fill="#222222"/>
<rect x="0.5" y="152.5" width="189" height="41" rx="10.5" stroke="#007EA7" stroke-opacity="0.5"/>
<path d="M12.6865 17.4395V21.3154C12.6865 21.7666 12.6501 22.4297 12.5771 23.3047L16.3711 17.4395H18.333V25H16.7881V21.1924C16.7881 20.9827 16.7995 20.6432 16.8223 20.1738C16.8496 19.7044 16.8724 19.3626 16.8906 19.1484L13.1104 25H11.1484V17.4395H12.6865ZM22.291 20.4609C23.0247 20.4609 23.5648 20.3812 23.9111 20.2217C24.2575 20.0576 24.4307 19.807 24.4307 19.4697C24.4307 18.8545 23.8838 18.5469 22.79 18.5469C22.0609 18.5469 21.3158 18.7109 20.5547 19.0391L20.0352 17.8428C20.9147 17.4827 21.8854 17.3027 22.9473 17.3027C23.8861 17.3027 24.6152 17.4759 25.1348 17.8223C25.6543 18.1641 25.9141 18.6562 25.9141 19.2988C25.9141 20.1465 25.4287 20.7025 24.458 20.9668V21.0215C25.0641 21.1855 25.4971 21.4202 25.7568 21.7256C26.0212 22.0309 26.1533 22.4092 26.1533 22.8604C26.1533 23.5531 25.848 24.1068 25.2373 24.5215C24.6312 24.9316 23.7835 25.1367 22.6943 25.1367C21.5049 25.1367 20.5957 24.9795 19.9668 24.665V23.2773C20.8008 23.6693 21.6644 23.8652 22.5576 23.8652C23.2002 23.8652 23.6947 23.7764 24.041 23.5986C24.3919 23.4163 24.5674 23.1406 24.5674 22.7715C24.5674 22.3932 24.3919 22.1152 24.041 21.9375C23.6901 21.7598 23.1478 21.6709 22.4141 21.6709H21.4912V20.4609H22.291ZM36.0244 25L33.126 16.6533H33.0713C33.1488 17.8929 33.1875 19.055 33.1875 20.1396V25H31.7041V15.0059H34.0078L36.7832 22.9561H36.8242L39.6816 15.0059H41.9922V25H40.4199V20.0576C40.4199 19.5609 40.4313 18.9137 40.4541 18.1162C40.4814 17.3187 40.5042 16.8356 40.5225 16.667H40.4678L37.4668 25H36.0244ZM51.1592 21.2061C51.1592 22.4411 50.8424 23.4049 50.209 24.0977C49.5755 24.7904 48.6937 25.1367 47.5635 25.1367C46.8571 25.1367 46.2327 24.9772 45.6904 24.6582C45.1481 24.3392 44.7311 23.8812 44.4395 23.2842C44.1478 22.6872 44.002 21.9945 44.002 21.2061C44.002 19.9801 44.3164 19.0231 44.9453 18.335C45.5742 17.6468 46.4606 17.3027 47.6045 17.3027C48.6982 17.3027 49.5641 17.6559 50.2021 18.3623C50.8402 19.0641 51.1592 20.012 51.1592 21.2061ZM45.6562 21.2061C45.6562 22.9515 46.3011 23.8242 47.5908 23.8242C48.8669 23.8242 49.5049 22.9515 49.5049 21.2061C49.5049 19.4788 48.8623 18.6152 47.5771 18.6152C46.9027 18.6152 46.4128 18.8385 46.1074 19.2852C45.8066 19.7318 45.6562 20.3721 45.6562 21.2061ZM56.0605 25.1367C54.9167 25.1367 54.0462 24.804 53.4492 24.1387C52.8568 23.4688 52.5605 22.5094 52.5605 21.2607C52.5605 19.9893 52.8704 19.0117 53.4902 18.3281C54.1146 17.6445 55.0146 17.3027 56.1904 17.3027C56.988 17.3027 57.7057 17.4508 58.3438 17.7471L57.8584 19.0391C57.1794 18.7747 56.6188 18.6426 56.1768 18.6426C54.8688 18.6426 54.2148 19.5107 54.2148 21.2471C54.2148 22.0947 54.3766 22.7327 54.7002 23.1611C55.0283 23.585 55.5068 23.7969 56.1357 23.7969C56.8512 23.7969 57.528 23.6191 58.166 23.2637V24.665C57.8789 24.8337 57.5713 24.9544 57.2432 25.0273C56.9196 25.1003 56.5254 25.1367 56.0605 25.1367ZM64.6328 17.4395H66.3965L63.2725 21.083L66.6631 25H64.8174L61.5498 21.165V25H59.9434V17.4395H61.5498V21.1104L64.6328 17.4395ZM74.4766 19.374C74.4766 20.2673 73.9548 20.8073 72.9111 20.9941V21.0488C73.4945 21.1172 73.9411 21.3018 74.251 21.6025C74.5609 21.9033 74.7158 22.293 74.7158 22.7715C74.7158 23.487 74.4424 24.0384 73.8955 24.4258C73.3532 24.8086 72.5625 25 71.5234 25H67.9141V17.4395H71.5098C73.4876 17.4395 74.4766 18.0843 74.4766 19.374ZM73.0684 22.6758C73.0684 22.3112 72.9271 22.0537 72.6445 21.9033C72.362 21.7484 71.9382 21.6709 71.373 21.6709H69.5205V23.8105H71.4141C72.5169 23.8105 73.0684 23.4323 73.0684 22.6758ZM72.8701 19.5107C72.8701 19.21 72.7516 18.9935 72.5146 18.8613C72.2822 18.7246 71.9336 18.6562 71.4688 18.6562H69.5205V20.4746H71.2295C71.7673 20.4746 72.1751 20.4062 72.4531 20.2695C72.7311 20.1283 72.8701 19.8753 72.8701 19.5107ZM77.9834 20.4609H79.5146C80.5719 20.4609 81.3535 20.6432 81.8594 21.0078C82.3652 21.3724 82.6182 21.9193 82.6182 22.6484C82.6182 23.4277 82.3538 24.0156 81.8252 24.4121C81.3011 24.804 80.5309 25 79.5146 25H76.377V17.4395H77.9834V20.4609ZM81.0254 22.6895C81.0254 22.3112 80.8841 22.0469 80.6016 21.8965C80.3236 21.7461 79.9225 21.6709 79.3984 21.6709H77.9834V23.8105H79.1934C79.8405 23.8105 80.3076 23.7194 80.5947 23.5371C80.8818 23.3548 81.0254 23.0723 81.0254 22.6895ZM85.4209 25H83.8076V17.4395H85.4209V25Z" fill="white"/>
<path fill-rule="evenodd" clip-rule="evenodd" d="M93.129 79.1286C84.811 81.2341 82.8002 89.5758 82.4325 97.3559C82.8659 97.2092 83.314 97.1041 83.6953 97.0176C84.8031 96.7614 85.9233 96.5424 87.0503 96.3782C87.6285 92.96 88.5473 89.6743 89.4548 86.3372C92.1128 86.0033 94.7527 85.5237 97.4175 85.1964C98.265 88.4645 98.5355 91.8422 99.3615 95.0939C100.503 95.0282 101.904 95.4859 102.817 95.5406C103.375 95.58 104.083 95.5943 104.77 95.6928C104.799 95.5735 104.806 95.4421 104.787 95.3019C103.915 88.8773 102.782 76.6827 93.129 79.1286Z" fill="#FACD61"/>
<path fill-rule="evenodd" clip-rule="evenodd" d="M102.818 95.5378C103.375 95.5773 104.084 95.5915 104.771 95.6902C104.799 95.5707 104.807 95.4391 104.788 95.2988C104.389 92.3557 103.933 88.212 102.635 84.8094C100.184 84.9169 99.4218 84.9366 97.4179 85.1779C98.2654 88.451 98.5358 91.8338 99.3619 95.0904C100.504 95.0246 101.904 95.483 102.818 95.5378ZM82.4325 97.3559C82.609 93.6135 83.1725 89.7472 84.6232 86.5015C86.9734 86.337 87.9601 86.4083 89.4548 86.3205C88.5473 89.6627 87.6285 92.9534 87.0503 96.3767C85.9233 96.5412 84.8031 96.7605 83.6953 97.0171C83.314 97.1037 82.8659 97.209 82.4325 97.3559Z" fill="#F0A641"/>
<path fill-rule="evenodd" clip-rule="evenodd" d="M77.7927 168.067C84.6669 168.105 91.3598 169.324 98.234 169.36C104.298 169.394 116.025 168.678 127.622 168.162C129.44 139.145 127.037 118.131 124.206 111.444C121.53 105.126 119.571 102.449 113.617 98.86C106.799 94.7523 94.2953 94.4352 86.8064 96.1658C55.6374 103.369 63.3188 143.056 64.4306 167.983C70.5267 168.005 75.651 168.055 77.7927 168.067Z" fill="#FACD61"/>
<path fill-rule="evenodd" clip-rule="evenodd" d="M77.7034 167.523C84.5431 167.56 91.2022 168.779 98.0419 168.815C104.075 168.848 115.744 168.133 127.282 167.617C127.467 164.637 127.607 161.744 127.708 158.939C125.684 162.198 122.742 163.87 117.393 164.151C111.566 164.46 105.141 162.683 99.3106 162.804C94.5964 162.899 87.9718 163.199 83.4692 161.458C74.0742 157.823 73.1819 150.733 72.4111 142C71.3005 129.413 67.9275 114.605 74.9353 101.174C57.8942 114.786 63.4773 146.378 64.4107 167.439C70.4751 167.46 75.5725 167.51 77.7034 167.523Z" fill="#F0A641"/>
<path fill-rule="evenodd" clip-rule="evenodd" d="M80.9121 115.512C84.3115 121.271 90.744 123.209 97.1033 122.975C102.423 122.779 108.859 121.587 111.834 116.514C113.641 113.437 114.546 110.059 114.613 106.465C114.65 104.568 114.378 102.689 114.265 100.807C114.349 104.861 113.922 109.049 112.189 112.185C109.098 117.775 102.938 119.079 96.9937 118.585C86.6771 117.725 83.4481 105.883 83.0939 96.8103C81.0394 97.5425 79.1909 98.4493 77.5227 99.5006C78.0895 104.816 78.1725 110.872 80.9121 115.512Z" fill="#F0A641"/>
<path fill-rule="evenodd" clip-rule="evenodd" d="M155.074 207.233C154.478 208.004 153.889 208.752 153.348 209.566C149.812 214.891 154.555 218.162 154.883 223.329C134.721 225.866 114.519 224.747 94.2637 224.592C73.6144 224.436 52.8719 225.136 32.2737 223.323C32.5822 221.151 34.3853 219.014 35.121 216.993C35.6303 215.584 35.0045 214.24 34.4575 212.965C32.5755 208.577 32.2814 206.85 34.6827 202.807C35.7968 200.932 36.7244 199.287 36.477 197.056C36.2995 195.464 35.2009 194.03 34.4663 192.66C32.5222 189.038 35.3807 186.835 37.1428 184.09C37.904 182.907 37.7853 180.919 37.0928 179.742C35.0988 176.35 32.7664 173.507 34.0336 169.484C41.8277 169 69.9071 169.386 75.7616 169.23C82.5614 169.055 89.2026 170.309 96.0014 170.444C108.769 170.694 145.276 167.888 154.723 169.275C156.573 172.382 153.731 174.01 152.951 176.865C152.404 178.861 152.668 180.456 153.528 182.323C154.699 184.864 156.854 186.477 157.018 189.488C157.164 192.15 155.047 194.081 154.153 196.367C153.654 197.655 154.196 199.439 154.686 200.604C155.621 202.83 156.762 205.049 155.074 207.233Z" fill="#FFFFFE"/>
<path fill-rule="evenodd" clip-rule="evenodd" d="M155.074 207.233C154.478 208.004 153.889 208.752 153.348 209.566C149.812 214.891 154.555 218.162 154.883 223.329C134.721 225.866 114.519 224.747 94.2637 224.592C73.6144 224.436 52.8719 225.136 32.2737 223.323C32.5822 221.151 34.3853 219.014 35.121 216.993C35.6304 215.584 35.0045 214.24 34.4575 212.965C32.5755 208.577 32.2815 206.85 34.6827 202.808C35.7968 200.932 36.7245 199.287 36.477 197.056C36.2995 195.464 35.2009 194.03 34.4663 192.66C32.5223 189.038 35.3807 186.835 37.1428 184.09C37.904 182.907 37.7853 180.919 37.0929 179.742C35.0988 176.35 32.7664 173.507 34.0336 169.484C41.8277 169 69.9071 169.386 75.7616 169.23C82.5614 169.055 89.2026 170.309 96.0014 170.444C108.769 170.694 145.276 167.888 154.723 169.275C156.573 172.382 153.731 174.01 152.951 176.865C152.404 178.861 152.668 180.456 153.528 182.323C154.699 184.864 156.854 186.477 157.018 189.488C157.164 192.15 155.048 194.081 154.153 196.367C153.654 197.655 154.196 199.439 154.686 200.604C155.621 202.83 156.762 205.049 155.074 207.233ZM156.215 196.942C156.378 196.037 157.363 194.979 157.822 194.196C160.506 189.596 158.426 185.957 155.854 182.042C153.45 178.384 156.317 176.412 157.399 173.244C158.191 170.922 157.444 169.348 156.004 167.493C155.78 167.204 155.47 167.126 155.173 167.182C144.232 165.481 109.737 168.43 97.7147 168.363C90.9015 168.327 84.2681 167.103 77.4549 167.065C71.4739 167.028 42.063 166.727 33.5787 167.4C33.4766 167.409 33.3989 167.445 33.3123 167.474C32.9872 167.472 32.6721 167.606 32.499 167.948C31.4748 169.956 31.2129 171.515 31.5491 173.745C32.0008 176.749 37.0252 181.101 34.2999 184.2C31.3805 187.518 30.7957 190.54 32.9717 194.591C33.5709 195.709 34.1901 196.534 34.3399 197.89C34.5363 199.651 32.3969 202.264 31.5325 203.755C30.6536 205.268 30.03 207.092 30.4872 208.857C31.3705 212.283 33.6974 214.813 32.1661 218.411C31.2096 220.664 29.8569 221.554 30.0123 224.168C30.0467 224.75 30.4317 225.093 30.8689 225.205C31.042 225.374 31.2739 225.495 31.568 225.522C52.397 227.404 73.3814 226.705 94.2637 226.808C115.027 226.909 135.796 228.236 156.431 225.129C157.137 225.021 157.27 224.178 156.986 223.633C157.026 221.088 156.036 219.155 154.869 216.94C152.782 212.956 155.641 210.379 157.579 207.397C158.554 205.894 158.156 204.026 157.714 202.433C157.202 200.604 155.85 198.961 156.215 196.942Z" fill="#7F1F38"/>
<path fill-rule="evenodd" clip-rule="evenodd" d="M127.163 165.554H127.166C127.166 165.536 127.165 165.542 127.163 165.554Z" fill="#93B5BC"/>
<path fill-rule="evenodd" clip-rule="evenodd" d="M126.665 165.543C126.659 165.543 126.653 165.543 126.646 165.543C126.577 166.724 126.653 165.631 126.665 165.543Z" fill="#93B5BC"/>
<path fill-rule="evenodd" clip-rule="evenodd" d="M89.0938 146.71C88.2023 145.947 86.8802 147.016 87.5026 147.969C88.3848 149.32 88.9125 150.421 88.7756 152.035C88.6668 153.288 90.6827 153.288 91.0068 152.202C91.5567 150.362 90.5599 147.962 89.0938 146.71Z" fill="#F0A641"/>
<path fill-rule="evenodd" clip-rule="evenodd" d="M100.378 144.225C99.904 142.608 98.2639 141.67 96.7054 142.268C95.4225 142.762 94.2674 143.935 93.5279 145.103C92.8489 146.176 94.1748 147.463 95.1977 146.826C95.8854 146.398 96.4067 145.762 97.0174 145.232C97.7657 144.585 97.6632 144.911 98.2297 145.514C99.1181 146.453 100.756 145.499 100.378 144.225Z" fill="#7F1F38"/>
<path fill-rule="evenodd" clip-rule="evenodd" d="M85.2294 150.015C83.2082 147.215 78.4769 147.826 76.0764 149.56C72.8926 151.866 74.0674 162.543 73.0989 166.621C70.421 177.943 63.5676 175.473 63.277 170.85C63.0873 169.266 63.4833 166.535 64.4041 165.002C64.2887 162.975 64.1478 160.869 63.9925 158.701C58.9329 159.781 55.1123 166.993 56.5578 172.863C58.2173 179.604 63.5499 181.644 66.5528 181.867C72.6552 182.323 77.503 178.868 80.0966 174.321C83.1417 168.983 83.2515 161.632 82.9974 155.563C86.6804 155.674 86.9511 152.398 85.2294 150.015Z" fill="#FACD61"/>
<path fill-rule="evenodd" clip-rule="evenodd" d="M83.5236 155.396C82.8789 154.517 82.4032 153.408 82.1166 152.528C81.5424 150.784 78.9332 152.91 78.8089 156.332C78.66 160.499 79.71 171.504 71.1514 176.117C68.4538 177.571 62.7697 176.453 61.0873 173.581C59.6455 171.117 59.547 167.262 62.6398 166.084C63.0428 165.93 63.467 166.105 63.786 166.345C63.9696 165.734 64.1957 165.163 64.4778 164.704C64.3614 162.707 64.2192 160.631 64.0625 158.495C58.9571 159.56 55.1021 166.665 56.5606 172.45C58.2351 179.092 63.6159 181.103 66.646 181.322C72.8036 181.771 77.6952 178.367 80.3122 173.886C83.3848 168.627 83.4957 161.383 83.2393 155.403C83.3412 155.405 83.4285 155.398 83.5236 155.396Z" fill="#F0A641"/>
<path fill-rule="evenodd" clip-rule="evenodd" d="M136.402 169.53C136.102 165.288 131.814 160.484 127.712 158.997C127.631 161.286 127.521 163.641 127.383 166.047C130.506 169.374 128.728 173.75 125.101 174.733C123.205 175.246 116.67 173.45 109.647 169.356C107.718 168.229 104.443 166.542 101.749 166.484C100.872 166.212 100.018 166.273 99.1412 166.824C99.1067 166.847 99.0822 166.883 99.0511 166.909C98.3582 166.609 97.673 166.496 97.0613 166.71C96.4818 166.918 95.958 167.445 95.8156 168.051C95.1394 168.113 94.4709 168.32 93.8069 168.7C93.2942 168.997 93.2497 169.528 93.461 169.936C93.461 170.366 93.669 170.807 94.1584 171.006C100.899 173.76 105.826 179.374 112.76 181.891C117.555 183.629 123.962 184.461 128.683 182.026C133.62 179.485 136.805 175.242 136.402 169.53Z" fill="#FACD61"/>
<path fill-rule="evenodd" clip-rule="evenodd" d="M132.154 172.395C132.301 168.625 130.317 165.084 132.424 162.284C130.963 160.804 129.243 159.613 127.551 158.997C127.47 161.286 127.361 163.641 127.223 166.047C129.412 168.392 129.173 171.243 127.582 173.074C128.153 175.207 123.731 177.647 121.957 177.714C118.504 177.841 114.555 177.038 111.169 175.368C109.431 174.726 107.738 173.967 106.088 173.045C102.563 171.074 99.083 169.6 95.4243 168.108C94.8797 168.205 94.3405 168.392 93.8047 168.7C93.2944 168.997 93.2501 169.528 93.4605 169.936C93.4605 170.366 93.6675 170.807 94.1546 171.006C100.863 173.76 105.767 179.374 112.669 181.891C117.442 183.629 123.818 184.461 128.517 182.026C130.082 181.219 131.466 180.236 132.618 179.09C131.598 177.191 132.112 173.479 132.154 172.395Z" fill="#F0A641"/>
<path fill-rule="evenodd" clip-rule="evenodd" d="M85.6415 143.095C85.4269 143.421 84.7808 143.898 84.4539 144.121C81.1959 140.16 75.844 140.029 72.9329 144.268C70.6679 142.775 71.3795 140.071 73.311 138.906C75.5227 137.567 78.4972 137.704 80.1429 137.75C83.1763 137.837 87.9477 139.568 85.6415 143.095Z" fill="#FFFFFE"/>
<path fill-rule="evenodd" clip-rule="evenodd" d="M85.4819 143.083C85.2723 143.399 84.6413 143.862 84.3219 144.079C81.1396 140.232 75.912 140.105 73.0686 144.223C70.8561 142.772 71.5512 140.146 73.4378 139.013C75.5982 137.713 78.5035 137.846 80.111 137.89C83.074 137.975 87.7345 139.657 85.4819 143.083ZM80.8231 136.726C78.5281 136.508 75.0644 136.554 72.6478 138.115C71.1098 139.104 70.2279 140.811 70.4723 142.518C70.9817 146.063 75.7737 146.549 78.8105 146.436C81.5931 146.334 85.8323 145.575 86.9836 142.84C88.5813 139.056 84.5387 136.904 80.8231 136.726Z" fill="#7F1F38"/>
<path fill-rule="evenodd" clip-rule="evenodd" d="M120.553 143.095C120.339 143.421 119.691 143.898 119.365 144.121C116.11 140.16 110.756 140.029 107.844 144.268C105.579 142.775 106.292 140.071 108.221 138.906C110.435 137.567 113.409 137.704 115.055 137.75C118.087 137.837 122.86 139.568 120.553 143.095Z" fill="#FFFFFE"/>
<path fill-rule="evenodd" clip-rule="evenodd" d="M120.392 143.083C120.184 143.399 119.551 143.862 119.232 144.079C116.052 140.232 110.823 140.105 107.979 144.223C105.767 142.772 106.463 140.146 108.347 139.013C110.51 137.713 113.414 137.846 115.023 137.89C117.983 137.975 122.646 139.657 120.392 143.083ZM115.735 136.726C113.44 136.508 109.976 136.554 107.558 138.115C106.021 139.104 105.14 140.811 105.384 142.518C105.891 146.063 110.685 146.549 113.721 146.436C116.504 146.334 120.742 145.575 121.896 142.84C123.492 139.056 119.449 136.904 115.735 136.726Z" fill="#7F1F38"/>
<path fill-rule="evenodd" clip-rule="evenodd" d="M84.5605 147.848C82.6475 146.564 79.973 146.966 77.8792 147.533C75.2907 148.24 73.9661 149.955 72.7385 152.18C72.1501 153.249 73.7975 154.196 74.397 153.133C75.1474 151.798 75.8185 150.551 77.2445 149.797C78.4776 149.15 80.0204 148.937 81.3934 148.901C82.8568 148.864 83.8034 149.42 84.5153 150.629C85.2746 151.919 85.1137 153.513 83.529 153.976C82.415 154.304 82.8811 155.991 84.0095 155.687C87.8102 154.672 87.4554 149.789 84.5605 147.848Z" fill="#F0A641"/>
<path fill-rule="evenodd" clip-rule="evenodd" d="M78.638 150.087C78.2073 150.333 77.9684 150.742 78.1084 151.184C78.2697 151.673 78.9263 152.03 79.5217 151.864C79.7724 151.792 79.903 151.783 80.1642 151.772C81.0927 151.731 81.7988 150.695 80.9821 150.097C80.2419 149.556 79.4088 149.646 78.638 150.087Z" fill="#FFFFFE"/>
<path fill-rule="evenodd" clip-rule="evenodd" d="M123.89 121.193C123.821 116.04 122.023 110.324 118.965 106.085C118.078 104.856 116.327 105.9 116.918 107.23C117.991 109.641 118.946 112.016 119.591 114.566C120.175 116.877 120.385 119.299 121.232 121.541C121.731 122.868 123.91 122.73 123.89 121.193Z" fill="#FFFFFE"/>
<path fill-rule="evenodd" clip-rule="evenodd" d="M123.63 154.087C122.89 154.087 122.303 154.741 122.291 155.525C122.275 156.376 122.199 157.202 122.325 158.045C122.387 158.477 122.794 158.839 123.165 158.95C123.718 159.113 124.214 158.837 124.526 158.354C125.053 157.538 124.986 156.474 124.969 155.525C124.958 154.741 124.37 154.087 123.63 154.087Z" fill="#FFFFFE"/>
<path fill-rule="evenodd" clip-rule="evenodd" d="M108.669 101.1C108.624 101.106 108.59 101.094 108.574 101.062C109.766 101.544 110.782 100.376 109.947 99.4724C109.627 99.1212 109.167 98.9946 108.669 98.9925C107.139 98.9788 107.149 101.052 108.669 101.1Z" fill="#FFFFFE"/>
<path fill-rule="evenodd" clip-rule="evenodd" d="M96.5333 97.3189C94.9697 97.6662 95.3226 100.234 96.9099 100.171C98.1127 100.124 99.3167 100.053 100.52 100.078C101.719 100.104 102.835 100.516 104.019 100.622C105.577 100.763 105.69 98.7093 104.726 97.9417C102.638 96.292 98.9222 96.784 96.5333 97.3189Z" fill="#FFFFFE"/>
<path fill-rule="evenodd" clip-rule="evenodd" d="M63.2191 171.558C62.9282 171.137 62.4844 170.895 61.974 171.039C61.413 171.198 61.0221 171.843 61.2026 172.431C61.3796 172.997 61.5394 173.454 61.9096 173.924C62.2338 174.335 62.9006 174.359 63.3156 174.109C63.7721 173.835 63.9744 173.284 63.8491 172.762C63.7341 172.292 63.4892 171.946 63.2191 171.558Z" fill="#FFFFFE"/>
<path fill-rule="evenodd" clip-rule="evenodd" d="M105.415 168.119C105.027 167.839 104.572 167.697 104.094 167.729C103.674 167.757 103.308 167.994 103.192 168.416C103.063 168.891 103.349 169.454 103.846 169.57C104.134 169.636 104.397 169.781 104.681 169.871C105.089 169.992 105.548 169.793 105.758 169.43C106.04 168.947 105.838 168.424 105.415 168.119Z" fill="#FFFFFE"/>
<path fill-rule="evenodd" clip-rule="evenodd" d="M135.739 167.382C135.766 167.417 135.611 167.154 135.578 167.086C135.19 166.299 134.043 166.65 133.778 167.303C133.634 167.659 133.727 168.035 133.953 168.345C134.263 168.777 134.858 168.961 135.368 168.686C135.815 168.447 136.074 167.801 135.739 167.382Z" fill="#FFFFFE"/>
<path fill-rule="evenodd" clip-rule="evenodd" d="M68.9456 150.215C68.4772 150.784 68.1679 151.315 68.0789 152.056C67.9988 152.747 68.1434 153.49 68.5251 154.075C69.1247 154.996 70.6901 154.427 70.3475 153.306C70.1138 152.545 69.9914 152.079 70.422 151.355C70.9571 150.455 69.6365 149.375 68.9456 150.215ZM107.772 168.937C106.124 167.508 101.703 165.526 99.6906 167.1C99.6183 167.159 99.5438 167.186 99.4692 167.218C99.2111 167.494 98.8039 167.628 98.3511 167.392C97.4532 166.926 96.591 166.907 96.1415 167.929C96.0703 168.093 95.9557 168.192 95.8289 168.266C95.7332 168.461 95.5485 168.62 95.2626 168.681C94.7041 168.797 94.1912 169.003 93.6816 169.251C93.2433 169.464 92.717 169.374 92.4578 168.93C92.2219 168.528 92.3421 167.922 92.7782 167.703C93.3545 167.414 93.9542 167.15 94.5772 166.985C94.9366 166.153 95.5741 165.407 96.5075 165.226C97.2808 165.076 98.0863 165.157 98.8017 165.483C101.58 163.325 106.883 165.619 109.135 167.569C110.083 168.386 108.707 169.747 107.772 168.937ZM128.579 166.943C128.636 168.314 126.55 168.298 126.465 166.943C126.309 164.457 126.475 161.969 126.88 159.512C127.059 158.425 128.879 158.679 128.797 159.771C128.618 162.168 128.475 164.54 128.579 166.943ZM65.2443 166.647C65.2644 167.95 63.2562 167.947 63.2283 166.647C63.1794 164.253 62.6053 161.869 62.859 159.473C62.9825 158.302 64.6858 158.247 64.7192 159.473C64.7837 161.876 65.2076 164.247 65.2443 166.647ZM83.9094 155.141C83.9784 156.103 82.5142 156.493 82.0859 155.634C81.6264 154.72 81.4528 153.689 81.4117 152.672C81.3761 151.723 82.749 151.359 83.1985 152.19C83.6869 153.091 83.8382 154.126 83.9094 155.141ZM74.5544 152.103C72.781 157.498 74.2162 161.676 72.6875 167.076C72.3382 168.314 70.5469 167.789 70.785 166.552C71.8331 161.11 70.6215 156.822 72.7254 151.598C73.1704 150.495 74.9449 150.918 74.5544 152.103ZM83.7703 167.412C83.5055 168.457 81.7098 168.262 81.8544 167.152C82.1315 165.003 82.1448 164.34 81.9946 162.163C81.9245 161.155 83.5811 160.924 83.7591 161.926C84.1586 164.147 84.3243 165.216 83.7703 167.412ZM104.359 93.9294C102.578 93.6832 100.714 93.3524 98.9207 93.6643C97.8337 93.8548 98.2298 95.3453 99.1632 95.4489C100.804 95.6282 102.448 95.714 104.089 95.9312C105.222 96.0827 105.493 94.0876 104.359 93.9294ZM87.4941 96.0492C86.7887 96.2665 86.0522 96.3734 85.3424 96.5784C84.6148 96.7922 83.9673 97.1042 83.2864 97.435C82.3607 97.8784 81.3961 96.7611 82.1638 95.9735C83.3542 94.7559 85.3324 94.366 86.9512 94.0742C88.2329 93.8447 88.768 95.6527 87.4941 96.0492ZM106.263 121.996C107.246 121.571 108.192 121.058 109.104 120.448C109.486 123.501 109.394 126.588 109.702 129.648C109.057 129.857 108.41 130.069 107.774 130.299C107.086 127.564 106.814 124.765 106.263 121.996ZM87.4454 129.924C86.7267 129.968 86.0135 130.021 85.2959 130.08C85.0534 127.278 85.643 124.529 85.8566 121.738C86.8235 122.141 87.8426 122.444 88.884 122.679C88.2198 125.055 87.827 127.485 87.4454 129.924ZM110.867 119.063C116.457 113.988 115.235 106.27 114.859 99.4715C114.784 98.1347 112.698 98.1236 112.774 99.4715C113.153 106.322 114.362 112.88 108.877 118.138C104.816 122.034 98.3021 121.964 93.1131 121.407C87.2409 120.777 82.8807 118.833 80.8881 112.966C79.4418 108.702 79.3639 104.03 78.337 99.6608C78.0477 98.4177 76.2342 98.9568 76.4545 100.18C77.4925 105.868 77.5315 112.058 80.4542 117.194C81.3654 118.798 82.6093 119.964 84.04 120.832C83.457 124.328 82.9619 127.89 83.4492 131.421C83.5038 131.823 84.0178 132.193 84.4138 132.154C85.7055 132.026 87.0028 131.989 88.2923 131.847C88.695 131.799 89.1745 131.579 89.2469 131.119C89.6641 128.407 90.0724 125.693 90.8289 123.055C91.9749 123.238 93.1242 123.369 94.2368 123.483C97.718 123.836 101.225 123.673 104.467 122.662C104.753 125.759 105.315 128.873 106.147 131.867C106.28 132.357 106.854 132.743 107.362 132.557C108.5 132.15 109.64 131.779 110.737 131.271C111.177 131.285 111.6 131.009 111.581 130.406C111.471 126.635 111.465 122.821 110.878 119.089C110.876 119.078 110.87 119.074 110.867 119.063Z" fill="#D0692D"/>
<path fill-rule="evenodd" clip-rule="evenodd" d="M117.009 149.803C114.773 147.75 110.936 148.556 109.301 150.991C108.782 151.76 109.825 152.857 110.593 152.298C112.305 151.046 113.744 150.441 115.726 151.489C116.757 152.037 117.934 150.658 117.009 149.803Z" fill="#F0A641"/>
<path fill-rule="evenodd" clip-rule="evenodd" d="M62.9022 194.85C62.5654 195.684 61.9646 196.618 60.8683 196.737C59.5776 196.877 59.2875 194.417 59.1887 193.749C58.891 191.703 59.0322 189.445 59.5841 187.441C59.6037 187.37 59.5917 187.31 59.5961 187.246C59.746 186.864 59.9166 186.483 60.1524 186.124C61.681 183.798 63.3553 187.205 63.5671 187.997C64.156 190.208 63.7573 192.732 62.9022 194.85ZM64.4307 184.855C63.1312 183.581 61.457 183.134 59.7567 183.97C57.8347 184.922 56.9145 187.449 56.8069 189.842C56.7482 191.142 56.8438 195.111 58.1096 197.182C60.1597 200.543 63.7266 198.033 64.7859 195.82C66.1288 193.011 66.9643 187.337 64.4307 184.855Z" fill="#7F1F38"/>
<path fill-rule="evenodd" clip-rule="evenodd" d="M75.3774 183.544C73.445 183.573 71.5285 183.68 69.6004 183.564C69.0221 183.533 68.5906 184.041 68.5672 184.551C68.3865 188.912 68.4396 193.279 68.2504 197.642C68.2005 198.806 69.949 198.735 70.0957 197.642C70.6261 193.648 70.4783 189.612 70.5995 185.596C71.8378 185.649 73.0719 185.619 74.3112 185.588C74.2879 189.673 74.1242 193.757 74.1093 197.845C74.104 199.142 76.2086 199.142 76.2149 197.845C76.2277 193.415 76.3988 188.985 76.4318 184.551C76.436 184.01 75.9482 183.537 75.3774 183.544Z" fill="#7F1F38"/>
<path fill-rule="evenodd" clip-rule="evenodd" d="M85.8752 190.743C84.6552 191.027 83.0786 191.346 82.0781 190.609C81.3255 190.054 81.3704 189.069 81.5734 188.32C81.8257 187.393 82.4719 186.459 83.3957 185.904C84.3952 185.298 85.2762 185.441 86.2987 185.655C86.1374 187.29 85.9717 189.011 85.8752 190.743ZM88.2923 185.033C88.2462 184.533 87.8282 184.279 87.3916 184.255C84.1255 182.127 80.0826 185.195 79.3234 187.966C78.9361 189.373 79.206 190.93 80.4534 191.978C80.9504 192.397 81.5495 192.657 82.1978 192.81C80.9921 194.171 80.2757 195.98 79.3344 197.425C78.7683 198.294 80.2176 199.34 81.0196 198.522C81.7239 197.8 82.1638 196.939 82.6191 196.093C83.1699 195.066 83.804 194.082 84.3844 193.066C84.4041 193.027 84.4052 192.992 84.4217 192.952C84.8913 192.917 85.3564 192.85 85.8051 192.759C85.781 194.466 85.8622 196.153 86.1376 197.734C86.278 198.548 88.0476 198.557 88.0729 197.734C88.2155 193.178 88.6565 189.069 88.2923 185.033Z" fill="#7F1F38"/>
<path fill-rule="evenodd" clip-rule="evenodd" d="M98.5558 183.729C96.1694 183.431 93.4164 183.525 91.0223 183.786C89.7517 183.924 89.7517 185.351 91.0223 185.488C91.7913 185.573 92.6028 185.63 93.4241 185.671C93.339 189.545 93.0729 193.448 93.3848 197.317C93.4862 198.578 95.7047 198.604 95.6829 197.317C95.612 193.448 95.6894 189.584 95.6425 185.716C96.6373 185.707 97.6265 185.663 98.5558 185.55C99.6051 185.416 99.6051 183.858 98.5558 183.729Z" fill="#7F1F38"/>
<path fill-rule="evenodd" clip-rule="evenodd" d="M103.82 196.823C103.987 194.945 104.085 193.017 104.111 191.08C106.203 190.495 108.993 190.542 109.092 193.076C109.193 195.698 106.267 196.655 103.82 196.823ZM104.101 188.986C104.082 187.439 104.033 185.894 103.928 184.389C103.849 183.261 102.071 183.264 101.985 184.389C101.664 188.576 101.308 192.967 101.691 197.237C101.761 198.035 102.28 198.725 102.958 198.784C106.945 199.113 111.282 197.045 111.343 193.076C111.402 189.36 107.424 188.301 104.101 188.986Z" fill="#7F1F38"/>
<path fill-rule="evenodd" clip-rule="evenodd" d="M126.142 190.26C125.986 189.376 124.681 189.328 124.26 190.023C123.382 191.473 122.617 193.003 121.692 194.43C121.647 193.228 121.644 192.023 121.573 190.821C121.5 189.577 119.655 189.577 119.579 190.821C119.451 193.018 119.557 195.269 119.879 197.447C119.99 198.192 121.139 198.417 121.618 197.891C122.708 196.693 123.548 195.352 124.341 193.978C124.342 195.189 124.348 196.398 124.639 197.583C124.898 198.635 126.733 198.431 126.612 197.326C126.353 194.974 126.559 192.594 126.142 190.26Z" fill="#7F1F38"/>
<path fill-rule="evenodd" clip-rule="evenodd" d="M132.234 192.407C132.541 191.843 132.683 191.196 132.569 190.467C132.239 188.327 129.465 188.935 128.203 189.742C127.202 190.385 128.08 191.855 129.161 191.292C129.607 191.058 130.582 190.52 130.593 191.061C130.606 191.704 129.91 192.246 129.297 192.568C129.061 192.655 128.836 192.754 128.627 192.866C127.651 193.391 128.327 195.045 129.41 194.623C129.491 194.593 129.571 194.554 129.65 194.519C129.65 194.521 129.653 194.526 129.654 194.528C129.692 194.507 129.748 194.482 129.802 194.451C129.913 194.4 130.027 194.355 130.136 194.299C130.743 194.047 131.624 193.818 131.669 194.523C131.753 195.802 129.482 195.765 128.683 195.774C127.341 195.791 127.427 197.54 128.683 197.689C130.841 197.95 133.878 196.864 133.702 194.386C133.624 193.288 133.03 192.68 132.234 192.407Z" fill="#7F1F38"/>
<path fill-rule="evenodd" clip-rule="evenodd" d="M112.338 203.191C112.325 202.768 112.006 202.285 111.553 202.215C110.143 202 108.277 202.103 106.855 202.234C106.264 202.287 105.807 202.773 105.723 203.601C105.354 207.231 105.453 210.891 105.344 214.111C105.309 215.137 107.217 215.459 107.25 214.328C107.355 210.446 107.455 207.37 107.455 204.114C108.192 204.142 109.721 204.116 110.459 204.165C110.555 207.981 110.558 210.001 110.459 214.155C110.427 215.508 112.417 215.531 112.425 214.19C112.445 209.809 112.444 207.317 112.338 203.191Z" fill="#7F1F38"/>
<path fill-rule="evenodd" clip-rule="evenodd" d="M100.312 203.654C98.3865 207.244 96.3733 210.89 94.507 215.049C94.0574 216.05 95.7968 216.792 96.2976 215.817C98.5512 211.468 99.9913 208.582 101.961 204.626C102.502 203.535 100.889 202.576 100.312 203.654Z" fill="#7F1F38"/>
<path fill-rule="evenodd" clip-rule="evenodd" d="M52.9686 214.202C52.5399 210.389 52.7103 206.496 51.6278 202.782C51.3363 201.786 50.1123 201.938 49.7651 202.782C49.1917 204.187 48.5733 205.564 48.016 206.967C47.553 205.629 47.2411 204.239 46.7385 202.901C46.4116 202.025 45.2734 202.007 44.9508 202.901C43.6508 206.519 43.311 210.318 42.6283 214.077C42.4268 215.184 44.0945 215.665 44.3163 214.544C44.8511 211.844 45.178 209.102 45.8243 206.435C46.1951 207.679 46.6238 208.896 47.2786 210.028C47.7073 210.774 48.793 210.587 49.0352 209.798C49.4093 208.587 49.8798 207.416 50.3728 206.252C50.7361 208.877 50.7243 211.561 51.0126 214.202C51.1498 215.449 53.11 215.458 52.9686 214.202Z" fill="#7F1F38"/>
<path fill-rule="evenodd" clip-rule="evenodd" d="M77.1988 213.96C77.2125 212.662 77.2272 211.367 77.2125 210.072C77.283 210.077 77.3513 210.093 77.4292 210.079C78.6137 209.9 79.6467 210.462 79.674 211.75C79.7056 213.219 78.418 213.766 77.1988 213.96ZM77.7743 206.438C78.0657 206.549 78.1857 206.698 78.2046 206.873C78.2709 207.476 77.7196 208.017 77.0601 208.388C77.017 207.694 76.9433 207.005 76.8665 206.312C77.1853 206.307 77.5008 206.337 77.7743 206.438ZM79.0325 208.617C79.4007 208.107 79.6237 207.505 79.5658 206.821C79.4164 204.981 77.565 204.606 76.0681 204.916C75.7483 204.981 75.58 205.183 75.5159 205.416C75.4001 205.549 75.3276 205.725 75.3433 205.969C75.5611 208.935 75.4948 211.903 75.4675 214.878C75.4612 215.477 75.9514 215.75 76.41 215.712C76.451 215.714 76.4815 215.732 76.5257 215.728C78.9347 215.552 81.2237 214.514 81.3383 211.762C81.4078 210.087 80.3685 209.023 79.0325 208.617Z" fill="#7F1F38"/>
<path fill-rule="evenodd" clip-rule="evenodd" d="M119.829 206.306C119.787 205.548 118.582 205.067 118.173 205.875C117.074 208.044 116.581 210.527 115.291 212.6C115.073 210.477 115.417 208.299 115.436 206.178C115.445 205.098 113.685 205.091 113.654 206.166C113.56 209.11 113.342 211.931 113.847 215.001C113.951 215.639 114.923 215.905 115.427 215.399C116.699 214.133 117.513 212.59 118.173 210.976C118.186 212.281 118.198 213.587 118.24 214.893C118.275 215.998 120.11 216.011 120.071 214.904C119.971 212.038 119.985 209.171 119.829 206.306Z" fill="#7F1F38"/>
<path fill-rule="evenodd" clip-rule="evenodd" d="M84.1944 213.513C84.2121 212.597 84.2364 211.683 84.2718 210.77C85.3167 210.507 86.6116 210.326 86.6934 211.689C86.7752 213.017 85.3753 213.411 84.1944 213.513ZM88.4272 211.46C88.3663 210.472 87.7327 209.501 86.7331 209.131C85.9669 208.85 85.1386 208.92 84.3502 209.091C84.4088 207.938 84.473 206.785 84.5648 205.634C84.6366 204.713 82.9968 204.484 82.8365 205.405C82.3212 208.363 82.4417 211.367 82.4517 214.356C82.4517 214.846 82.8287 215.099 83.2323 215.131C83.3186 215.157 83.407 215.183 83.5154 215.183C84.776 215.172 86.1427 215.05 87.1401 214.247C88.0191 213.538 88.4913 212.552 88.4272 211.46Z" fill="#7F1F38"/>
<path fill-rule="evenodd" clip-rule="evenodd" d="M91.1522 205.078C91.1318 204.011 89.4326 204.001 89.3818 205.067C89.236 208.156 88.9366 211.271 88.983 214.362C88.9965 215.451 90.7398 215.458 90.7873 214.373C90.9183 211.284 91.2121 208.172 91.1522 205.078Z" fill="#7F1F38"/>
<path fill-rule="evenodd" clip-rule="evenodd" d="M59.7627 209.372C59.7502 210.561 59.5307 211.753 59.1143 212.869C58.6559 214.094 57.3251 214.215 56.6348 213.069C56.2115 212.364 56.5533 208.941 56.5533 208.939C56.6404 208.231 56.8045 207.551 57.2889 206.959C57.6239 206.554 58.5247 205.985 59.0735 206.3C59.8702 206.756 59.774 208.637 59.7627 209.372ZM59.4866 204.402C58.4737 203.994 57.0105 204.625 56.2794 205.302C55.5065 206.024 54.8479 207.416 54.6408 210.137C54.4563 212.89 55.1059 216.249 58.5563 215.661C61.1241 215.219 61.5666 211.696 61.6831 209.683C61.7929 207.765 61.5236 205.216 59.4866 204.402Z" fill="#7F1F38"/>
<path fill-rule="evenodd" clip-rule="evenodd" d="M125.961 205.039C124.514 204.725 122.698 204.746 121.259 205.105C120.237 205.355 120.527 206.74 121.483 206.825C121.919 206.866 122.358 206.834 122.795 206.805C122.715 209.495 122.621 212.171 122.409 214.855C122.319 216.032 124.108 216.003 124.241 214.868C124.557 212.189 124.628 209.467 124.6 206.766C124.965 206.781 125.331 206.811 125.699 206.842C126.75 206.928 126.981 205.258 125.961 205.039Z" fill="#7F1F38"/>
<path fill-rule="evenodd" clip-rule="evenodd" d="M65.5482 213.107C63.7364 215.592 64.1219 210.743 64.1942 209.972C64.4426 207.296 65.3917 206.588 66.2047 206.641C67.2358 206.7 67.5058 205.084 66.6442 204.897C63.5086 204.216 62.5239 208.12 62.3414 210.503C62.2324 211.9 62.0629 213.629 62.8986 214.808C64.0431 216.423 66.0028 215.704 66.9108 214.257C67.4593 213.377 66.1615 212.265 65.5482 213.107Z" fill="#7F1F38"/>
<path fill-rule="evenodd" clip-rule="evenodd" d="M74.753 214.097C74.1453 212.096 73.182 210.225 72.523 208.241C72.4851 208.131 72.4271 208.043 72.3658 207.964C73.0638 207.263 73.7618 206.56 74.4185 205.821C75.1801 204.962 73.9547 203.71 73.1396 204.552C72.1517 205.57 71.1504 206.577 70.2004 207.629C70.2372 206.861 70.2952 206.094 70.3844 205.321C70.4948 204.358 68.859 204.14 68.6628 205.082C68.0283 208.104 68.2603 211.242 68.4677 214.295C68.5468 215.457 70.4022 215.474 70.3253 214.308C70.2305 212.928 70.1692 211.559 70.1558 210.193C70.2439 210.148 70.3286 210.087 70.4111 209.996C70.6141 209.768 70.8282 209.547 71.04 209.326C71.6176 211.096 72.4594 212.773 73.0069 214.559C73.3392 215.648 75.0875 215.195 74.753 214.097Z" fill="#7F1F38"/>
<path fill-rule="evenodd" clip-rule="evenodd" d="M142.74 207.502C142.964 208.259 143.055 209.065 143.168 209.862C142.765 209.88 142.363 209.935 141.974 210.021C142.178 209.195 142.397 208.299 142.74 207.502ZM144.809 209.216C144.598 207.805 144.426 206.432 143.566 205.259C143.279 204.864 142.608 204.594 142.236 205.077C140.257 207.636 139.976 211.338 139.195 214.391C138.928 215.433 140.471 215.876 140.771 214.844C141.067 213.828 141.295 212.796 141.54 211.764C141.671 211.793 141.808 211.808 141.953 211.79C142.449 211.722 142.95 211.708 143.45 211.676C143.634 212.814 143.824 213.951 144.019 215.086C144.211 216.204 145.888 215.742 145.695 214.627C145.384 212.828 145.079 211.021 144.809 209.216Z" fill="#7F1F38"/>
<path fill-rule="evenodd" clip-rule="evenodd" d="M130.917 213.611C130.325 213.779 129.738 213.868 129.137 213.891C129.106 212.904 129.106 211.913 129.122 210.927C129.746 210.987 130.441 210.935 130.996 210.767C132.07 210.446 131.804 209.063 130.754 208.955C130.417 208.922 130.06 209.01 129.725 209.058C129.546 209.083 129.364 209.081 129.177 209.075C129.208 208.475 129.246 207.876 129.226 207.271C129.195 206.367 130.21 206.561 130.88 206.563C132.035 206.565 132.043 204.866 130.892 204.833C129.454 204.795 127.646 204.703 127.424 206.47C127.083 209.167 127.126 212.075 127.272 214.787C127.301 215.312 127.675 215.665 128.212 215.703C129.294 215.787 130.363 215.662 131.406 215.366C132.568 215.037 132.086 213.284 130.917 213.611Z" fill="#7F1F38"/>
<path fill-rule="evenodd" clip-rule="evenodd" d="M138.159 207.269C138.159 208.98 136.525 208.943 135.64 208.829C135.626 208.133 135.611 207.22 135.571 206.522C136.143 206.421 138.011 205.958 138.159 207.269ZM138.005 204.956C137.278 204.781 136.484 204.729 134.623 205.066C134.159 205.15 133.682 205.455 133.71 205.986C133.855 208.746 133.831 211.507 133.803 214.273C133.791 215.478 135.637 215.49 135.644 214.286C135.65 212.985 135.665 211.687 135.66 210.388C136.683 210.646 139.832 210.252 139.706 207.099C139.668 206.167 139.109 205.217 138.005 204.956Z" fill="#7F1F38"/>
</svg>
