<svg width="202" height="40" viewBox="0 0 202 40" fill="none" xmlns="http://www.w3.org/2000/svg">
<rect x="0.5" y="0.5" width="201" height="39" rx="9.5" fill="white" stroke="#D4D7DC"/>
<path opacity="0.25" d="M15.9448 25H14.7827V16.0381H9.64893V25H8.48682V15.0059H15.9448V25ZM24.9956 21.2471C24.9956 22.4684 24.688 23.4232 24.0728 24.1113C23.4575 24.7949 22.6076 25.1367 21.5229 25.1367C20.853 25.1367 20.2583 24.9795 19.7388 24.665C19.2192 24.3506 18.8182 23.8994 18.5356 23.3115C18.2531 22.7236 18.1118 22.0355 18.1118 21.2471C18.1118 20.0257 18.4172 19.0755 19.0278 18.3965C19.6385 17.7129 20.4862 17.3711 21.5708 17.3711C22.619 17.3711 23.4507 17.7197 24.0659 18.417C24.6857 19.1143 24.9956 20.0576 24.9956 21.2471ZM19.2876 21.2471C19.2876 22.2041 19.479 22.9333 19.8618 23.4346C20.2446 23.9359 20.8075 24.1865 21.5503 24.1865C22.2931 24.1865 22.856 23.9382 23.2388 23.4414C23.6261 22.9401 23.8198 22.2087 23.8198 21.2471C23.8198 20.2946 23.6261 19.5723 23.2388 19.0801C22.856 18.5833 22.2886 18.335 21.5366 18.335C20.7938 18.335 20.2332 18.5788 19.855 19.0664C19.4767 19.554 19.2876 20.2809 19.2876 21.2471ZM28.0581 17.5078V22.2588L28.0103 23.5029L27.9897 23.8926L32.0435 17.5078H33.4585V25H32.3989V20.4199L32.4194 19.5176L32.4536 18.6289L28.4067 25H26.9917V17.5078H28.0581ZM38.8589 25.1367C37.7743 25.1367 36.9334 24.804 36.3364 24.1387C35.744 23.4688 35.4478 22.5231 35.4478 21.3018C35.4478 20.0485 35.7485 19.0801 36.3501 18.3965C36.9562 17.7129 37.8175 17.3711 38.9341 17.3711C39.2941 17.3711 39.6541 17.4098 40.0142 17.4873C40.3742 17.5648 40.6567 17.6559 40.8618 17.7607L40.5132 18.7246C40.2625 18.6243 39.9891 18.5423 39.6929 18.4785C39.3966 18.4102 39.1346 18.376 38.9067 18.376C37.3846 18.376 36.6235 19.3467 36.6235 21.2881C36.6235 22.2087 36.8081 22.915 37.1772 23.4072C37.5509 23.8994 38.1024 24.1455 38.8315 24.1455C39.4559 24.1455 40.0962 24.0111 40.7524 23.7422V24.7471C40.2511 25.0068 39.62 25.1367 38.8589 25.1367ZM46.9048 17.5078H48.1489L44.9155 21.124L48.4155 25H47.0894L43.6714 21.2061V25H42.5366V17.5078H43.6714V21.1514L46.9048 17.5078ZM54.5815 25H53.4468V17.5078H59.7358V25H58.5874V18.4922H54.5815V25ZM68.6089 21.2471C68.6089 22.4684 68.3013 23.4232 67.686 24.1113C67.0708 24.7949 66.2209 25.1367 65.1362 25.1367C64.4663 25.1367 63.8716 24.9795 63.3521 24.665C62.8325 24.3506 62.4315 23.8994 62.1489 23.3115C61.8664 22.7236 61.7251 22.0355 61.7251 21.2471C61.7251 20.0257 62.0304 19.0755 62.6411 18.3965C63.2518 17.7129 64.0994 17.3711 65.1841 17.3711C66.2323 17.3711 67.064 17.7197 67.6792 18.417C68.299 19.1143 68.6089 20.0576 68.6089 21.2471ZM62.9009 21.2471C62.9009 22.2041 63.0923 22.9333 63.4751 23.4346C63.8579 23.9359 64.4207 24.1865 65.1636 24.1865C65.9064 24.1865 66.4692 23.9382 66.8521 23.4414C67.2394 22.9401 67.4331 22.2087 67.4331 21.2471C67.4331 20.2946 67.2394 19.5723 66.8521 19.0801C66.4692 18.5833 65.9019 18.335 65.1499 18.335C64.4071 18.335 63.8465 18.5788 63.4683 19.0664C63.09 19.554 62.9009 20.2809 62.9009 21.2471ZM77.2358 25.1367C76.1512 25.1367 75.3104 24.804 74.7134 24.1387C74.1209 23.4688 73.8247 22.5231 73.8247 21.3018C73.8247 20.0485 74.1255 19.0801 74.7271 18.3965C75.3332 17.7129 76.1945 17.3711 77.311 17.3711C77.6711 17.3711 78.0311 17.4098 78.3911 17.4873C78.7511 17.5648 79.0337 17.6559 79.2388 17.7607L78.8901 18.7246C78.6395 18.6243 78.366 18.5423 78.0698 18.4785C77.7736 18.4102 77.5116 18.376 77.2837 18.376C75.7616 18.376 75.0005 19.3467 75.0005 21.2881C75.0005 22.2087 75.1851 22.915 75.5542 23.4072C75.9279 23.8994 76.4793 24.1455 77.2085 24.1455C77.8328 24.1455 78.4731 24.0111 79.1294 23.7422V24.7471C78.6281 25.0068 77.9969 25.1367 77.2358 25.1367ZM85.521 25L85.2954 23.9336H85.2407C84.867 24.403 84.4933 24.722 84.1196 24.8906C83.7505 25.0547 83.2879 25.1367 82.7319 25.1367C81.9891 25.1367 81.4058 24.9453 80.9819 24.5625C80.5627 24.1797 80.353 23.6351 80.353 22.9287C80.353 21.4157 81.563 20.6227 83.9829 20.5498L85.2544 20.5088V20.0439C85.2544 19.4561 85.1268 19.0231 84.8716 18.7451C84.6209 18.4626 84.2176 18.3213 83.6616 18.3213C83.0373 18.3213 82.3309 18.5127 81.5425 18.8955L81.1938 18.0273C81.563 17.8268 81.9663 17.6696 82.4038 17.5557C82.8459 17.4417 83.2879 17.3848 83.73 17.3848C84.6232 17.3848 85.284 17.583 85.7124 17.9795C86.1453 18.376 86.3618 19.0117 86.3618 19.8867V25H85.521ZM82.9575 24.2002C83.6639 24.2002 84.2176 24.0065 84.6187 23.6191C85.0243 23.2318 85.2271 22.6895 85.2271 21.9922V21.3154L84.0923 21.3633C83.1899 21.3952 82.5382 21.5365 82.1372 21.7871C81.7407 22.0332 81.5425 22.4183 81.5425 22.9424C81.5425 23.3525 81.6655 23.6647 81.9116 23.8789C82.1623 24.0931 82.5109 24.2002 82.9575 24.2002ZM89.7729 17.5078V22.2588L89.7251 23.5029L89.7046 23.8926L93.7583 17.5078H95.1733V25H94.1138V20.4199L94.1343 19.5176L94.1685 18.6289L90.1216 25H88.7065V17.5078H89.7729ZM91.9126 16.5166C91.0695 16.5166 90.4543 16.3548 90.0669 16.0312C89.6795 15.7031 89.4631 15.1654 89.4175 14.418H90.4839C90.5249 14.8919 90.6479 15.2223 90.853 15.4092C91.0627 15.596 91.425 15.6895 91.9399 15.6895C92.4093 15.6895 92.7557 15.5892 92.979 15.3887C93.2069 15.1882 93.3459 14.8646 93.396 14.418H94.4692C94.4146 15.138 94.1844 15.6689 93.7788 16.0107C93.3732 16.348 92.7511 16.5166 91.9126 16.5166ZM102.631 18.4785H100.198V25H99.063V18.4785H96.6567V17.5078H102.631V18.4785ZM102.925 17.5078H104.142L105.783 21.7803C106.143 22.7555 106.366 23.4596 106.453 23.8926H106.507C106.567 23.6602 106.69 23.2637 106.876 22.7031C107.068 22.138 107.688 20.4062 108.736 17.5078H109.953L106.733 26.0391C106.414 26.8822 106.04 27.4792 105.612 27.8301C105.188 28.1855 104.666 28.3633 104.046 28.3633C103.7 28.3633 103.358 28.3245 103.021 28.2471V27.3379C103.272 27.3926 103.552 27.4199 103.862 27.4199C104.641 27.4199 105.197 26.9824 105.53 26.1074L105.947 25.041L102.925 17.5078Z" fill="black"/>
<circle cx="180" cy="20" r="16" fill="#007EA7"/>
<path d="M178.469 25.1777C174.702 25.1777 171.619 22.0947 171.619 18.3281C171.619 14.5684 174.702 11.4854 178.469 11.4854C182.229 11.4854 185.312 14.5684 185.312 18.3281C185.312 19.8389 184.812 21.2402 183.979 22.3818L188.053 26.4629C188.271 26.6816 188.374 26.9619 188.374 27.2627C188.374 27.8848 187.909 28.3838 187.26 28.3838C186.959 28.3838 186.665 28.2744 186.453 28.0625L182.352 23.9541C181.244 24.7266 179.904 25.1777 178.469 25.1777ZM178.469 23.5986C181.36 23.5986 183.739 21.2197 183.739 18.3281C183.739 15.4365 181.36 13.0576 178.469 13.0576C175.577 13.0576 173.198 15.4365 173.198 18.3281C173.198 21.2197 175.577 23.5986 178.469 23.5986Z" fill="white"/>
</svg>
